<?xml version="1.0" encoding="UTF-8"?>
<svg width="16px" height="16px" viewBox="0 0 16 16" version="1.1" xmlns="http://www.w3.org/2000/svg" xmlns:xlink="http://www.w3.org/1999/xlink">
    <title>Group 3</title>
    <g id="Ok" stroke="none" stroke-width="1" fill="none" fill-rule="evenodd">
        <g id="HomepageEntrepr" transform="translate(-466.000000, -661.000000)">
            <g id="HeroSection" transform="translate(-394.000000, -337.000000)">
                <g id="HeroText" transform="translate(544.000000, 492.000000)">
                    <g id="Input" transform="translate(0.000000, 482.000000)">
                        <g id="Btn/BtnLarge/Black" transform="translate(296.000000, 4.000000)">
                            <g id="Group-3" transform="translate(20.000000, 20.000000)">
                                <rect id="Rectangle" x="0" y="0" width="16" height="16"></rect>
                                <path d="M15.7206087,7.20684441 L15.7099375,7.18296856 L10.8273813,2.37532829 C10.5809737,2.13370474 10.2550173,2 9.90771843,2 C9.56041957,2 9.233493,2.13370474 8.98708543,2.37628333 C8.48068878,2.87576602 8.48068878,3.6884998 8.98805554,4.18607242 L11.5607834,6.71977716 L1.30091554,6.71977716 C0.584005336,6.71977716 0,7.29375249 0,8.00047752 C0,8.34142459 0.135815194,8.66231596 0.381252653,8.90584958 C0.626690111,9.14747314 0.953616686,9.28022284 1.30091554,9.28022284 L11.5607834,9.28022284 L8.98902565,11.8139276 C8.74261808,12.0555511 8.60680289,12.3773975 8.60680289,12.7192996 C8.60680289,13.0602467 8.74261808,13.3820931 8.98805554,13.6246717 C9.233493,13.8662953 9.56041957,14 9.90771843,14 C10.2550173,14 10.5809737,13.8662953 10.8273813,13.6246717 L15.6915055,8.83517708 L15.7012066,8.8160764 C15.7846359,8.71866295 15.8515734,8.60883406 15.9010489,8.49040987 C16.0329837,8.18002388 16.0329837,7.82284123 15.9010489,7.5086351 C15.8486631,7.38543573 15.7778451,7.27178671 15.7206087,7.20684441 Z" id="WhiteArrow" fill="#FEFEFE"></path>
                            </g>
                        </g>
                    </g>
                </g>
            </g>
        </g>
    </g>
</svg>