<?xml version="1.0" encoding="UTF-8"?>
<svg width="12px" height="12px" viewBox="0 0 12 12" version="1.1" xmlns="http://www.w3.org/2000/svg" xmlns:xlink="http://www.w3.org/1999/xlink">
    <title>external-icon</title>
    <defs>
        <rect id="path-1" x="0" y="0" width="11.799177" height="11.3777778"></rect>
        <path d="M10.4807087,0.40601657 C10.3590726,0.351716062 10.2324107,0.316078704 10.149256,0.306490135 L10.1253496,0.296300218 L3.55470166,0.00117941554 C3.22381767,-0.0129981237 2.91887141,0.100994886 2.69568147,0.324166322 C2.47249153,0.547337758 2.35786563,0.852882112 2.37272629,1.18442056 C2.40394864,1.86645311 2.98428138,2.44673773 3.66563003,2.47597033 L7.12817366,2.63179865 L0.534718832,9.22470676 C0.073999929,9.68538746 0.108538914,10.4704778 0.61317608,10.9750731 C0.856629416,11.2185063 1.17304295,11.3603461 1.50466739,11.3765108 C1.83492795,11.3913117 2.1398157,11.2760134 2.36300565,11.052842 L8.95646047,4.45993387 L9.11292515,7.921567 C9.12710387,8.25242356 9.26963738,8.56949274 9.51377266,8.81360778 C9.75722599,9.05704093 10.0743215,9.19956262 10.405264,9.21504543 C10.7355245,9.22984635 11.0410942,9.11522996 11.2642842,8.89205852 C11.4874741,8.66888709 11.6014766,8.36396612 11.5872979,8.03310956 L11.2932642,1.48780655 L11.2858597,1.467935 C11.2699171,1.34477166 11.2345108,1.22334133 11.1817452,1.10699494 C11.0449012,0.800601916 10.7898549,0.545576713 10.4807087,0.40601657" id="path-3"></path>
    </defs>
    <g id="Ok" stroke="none" stroke-width="1" fill="none" fill-rule="evenodd">
        <g id="Homepage" transform="translate(-962.000000, -5247.000000)">
            <g id="Footer" transform="translate(0.000000, 5125.000000)">
                <g id="Social" transform="translate(911.000000, 80.000000)">
                    <g id="external-icon" transform="translate(51.000000, 42.000000)">
                        <mask id="mask-2" fill="white">
                            <use xlink:href="#path-1"></use>
                        </mask>
                        <g id="Wrap"></g>
                        <mask id="mask-4" fill="white">
                            <use xlink:href="#path-3"></use>
                        </mask>
                        <use id="Icons/Arrow" fill="#FEFEFE" xlink:href="#path-3"></use>
                        <rect id="Color/Purple/Main" fill="#FEFEFE" mask="url(#mask-4)" x="0" y="0" width="11.799177" height="11.3777778"></rect>
                    </g>
                </g>
            </g>
        </g>
    </g>
</svg>