<?xml version="1.0" encoding="UTF-8"?>
<svg width="102px" height="42px" viewBox="0 0 102 42" version="1.1" xmlns="http://www.w3.org/2000/svg" xmlns:xlink="http://www.w3.org/1999/xlink">
    <title>Group 4</title>
    <defs>
        <polygon id="path-1" points="0.254891566 0.068111733 30.4278269 0.068111733 30.4278269 41.8422853 0.254891566 41.8422853"></polygon>
    </defs>
    <g id="Ok" stroke="none" stroke-width="1" fill="none" fill-rule="evenodd">
        <g id="HomepageEntrepr" transform="translate(-50.000000, -29.000000)">
            <g id="HeroSection" transform="translate(-394.000000, -337.000000)">
                <g id="Head" transform="translate(394.000000, 337.000000)">
                    <g id="Group-4" transform="translate(50.000000, 29.000000)">
                        <g id="Logo-Copy">
                            <mask id="mask-2" fill="white">
                                <use xlink:href="#path-1"></use>
                            </mask>
                            <g id="Path"></g>
                            <path d="M14.461878,30.4322237 C14.2975678,30.3978747 14.2068694,30.3624707 14.1161711,30.3622362 C12.0427488,30.3575469 9.96546441,30.271616 7.89707436,30.3734905 C4.19705061,30.5554344 1.5748741,33.5978361 1.86031053,37.1621542 C1.91753825,37.8809028 2.16529098,38.5044592 2.63516684,39.0447809 C3.54144797,40.0876757 4.70332283,40.441716 6.04249831,40.3056098 C8.49264056,40.0566093 10.5748402,39.0587315 12.2194642,37.2068195 C13.9206138,35.2908989 14.6577864,33.0456739 14.461878,30.4322237 Z M1.77534667,31.777225 C1.86171489,31.7833211 1.88886587,31.7936375 1.90583524,31.7849623 C1.94667874,31.7626883 1.98986285,31.7379523 2.01923741,31.7033689 C3.83402322,29.5657628 6.18035977,28.70235 8.93513138,28.7476015 C10.9849136,28.7813643 13.0356322,28.7586213 15.0855314,28.7434984 C15.6079538,28.7396298 16.1386854,28.7191142 16.6496388,28.6221634 C19.1923518,28.1397542 22.0468331,25.6197378 21.6114811,21.5291658 C21.2970212,18.576212 18.5811036,16.081752 15.4238655,16.0207915 C12.9693931,15.9736642 10.512112,15.9618238 8.05787373,16.0195019 C6.10639675,16.0653396 4.46036834,16.8491519 3.20662484,18.3930958 C2.16447177,19.6764332 1.75100441,21.1644574 1.74714242,22.7877672 C1.73976952,25.5580738 1.74000275,28.3282631 1.74000275,31.0985697 C1.74000275,31.3276408 1.76364366,31.5568291 1.77534667,31.777225 Z M1.76996329,17.4154991 C1.82602071,17.4358975 1.86171489,17.4575854 1.86908779,17.4500825 C2.17535557,17.1531342 2.46968628,16.8428214 2.78496538,16.5557205 C4.41917374,15.0699237 6.36140534,14.409791 8.54940016,14.4101427 C13.2029852,14.4109633 17.8578576,14.3596157 22.5103893,14.4218658 C26.202221,14.4713377 29.7829911,10.914288 28.6158498,6.37190437 C27.9013811,3.59069525 25.4112145,1.68356703 22.4824191,1.66492717 C17.6619492,1.63444688 12.840543,1.65261782 8.01972191,1.65285228 C7.82966502,1.65285228 7.63785268,1.66680288 7.44908313,1.69341451 C4.09067024,2.16820363 1.78552829,4.79830085 1.76411178,8.19779089 C1.74526994,11.1355046 1.74328042,14.0733355 1.73625465,17.0110491 C1.73590753,17.151024 1.75896246,17.2906472 1.76996329,17.4154991 Z M20.1537541,15.997814 C22.8775128,18.3934475 23.8835035,21.2528502 22.9563911,24.5982964 C22.0180437,27.9852426 19.5498788,29.7708014 16.1391535,30.4030329 C16.1117684,30.7862639 16.0706909,31.1125203 16.0676481,31.4393627 C16.0112396,37.4110375 10.6827419,42.2848356 4.72473934,41.8100465 C2.41210747,41.6256408 0.29374556,39.4564993 0.278999767,37.1324945 C0.246348368,31.9704231 0.270456569,26.8078829 0.270456569,21.6458115 C0.270456569,17.1048346 0.311066015,12.5636233 0.255359686,8.02323262 C0.21404806,4.64460985 2.57758803,1.17864933 6.418399,0.309726637 C6.90220145,0.200232061 7.41046319,0.157442425 7.90737301,0.15333931 C12.630708,0.11594234 17.354277,0.0923787321 22.0778461,0.0673895555 C24.1279794,0.0572091682 25.9764699,0.633286625 27.5816548,1.94874555 C30.0763855,3.99385569 31.0725458,7.55289832 30.00055,10.6548539 C28.9202451,13.7792007 25.9740123,15.9495145 22.7373107,15.9958211 C21.9334309,16.0076615 21.129083,15.997814 20.1537541,15.997814 Z" id="Shape" fill="#FFFFFF" mask="url(#mask-2)"></path>
                        </g>
                        <path d="M46.2,29 L46.2,22.44 L52.34,22.44 L52.34,20.84 L46.2,20.84 L46.2,16.88 L53.26,16.88 L53.26,15.28 L44.4,15.28 L44.4,29 L46.2,29 Z M56.4933333,29 L56.4933333,15.28 L54.8933333,15.28 L54.8933333,29 L56.4933333,29 Z M63.2666667,29.2 C65.5066667,29.2 67.4266667,27.76 68.0666667,25.6 L66.4666667,25.6 C66.0266667,26.92 64.7466667,27.8 63.2666667,27.8 C61.3066667,27.8 59.9466667,26.4 59.8666667,24.32 L68.1266667,24.32 L68.2866667,24.16 C68.2866667,20.94 66.2866667,18.8 63.2666667,18.8 C60.2466667,18.8 58.2466667,20.88 58.2466667,24 C58.2466667,27.12 60.2466667,29.2 63.2666667,29.2 Z M66.5866667,22.92 L59.9466667,22.92 C60.3266667,21.18 61.5266667,20.2 63.2666667,20.2 C65.0066667,20.2 66.2066667,21.18 66.5866667,22.92 Z M74.44,29.2 C75.8,29.2 77.22,28.44 78,27.32 L78,29 L79.6,29 L79.6,19 L78,19 L78,20.68 C77.22,19.56 75.8,18.8 74.44,18.8 C71.52,18.8 69.56,20.88 69.56,24 C69.56,27.12 71.52,29.2 74.44,29.2 Z M74.6,27.8 C72.54,27.8 71.16,26.28 71.16,24 C71.16,21.72 72.54,20.2 74.6,20.2 C76.64,20.2 78,21.72 78,24 C78,26.28 76.64,27.8 74.6,27.8 Z M86.1733333,29.2 C88.7333333,29.2 90.6933333,27.5 91.0733333,24.94 L89.5533333,24.94 C89.2533333,26.66 87.9133333,27.8 86.1733333,27.8 C84.1133333,27.8 82.7533333,26.28 82.7533333,24 C82.7533333,21.72 84.1133333,20.2 86.1733333,20.2 C87.8933333,20.2 89.2333333,21.3 89.5333333,22.96 L91.0533333,22.96 C90.6733333,20.46 88.7333333,18.8 86.1733333,18.8 C83.1533333,18.8 81.1533333,20.88 81.1533333,24 C81.1533333,27.12 83.1533333,29.2 86.1733333,29.2 Z M94.4266667,29 L94.4266667,23.08 C94.4266667,21.36 95.5666667,20.2 97.2666667,20.2 C98.9666667,20.2 100.106667,21.36 100.106667,23.08 L100.106667,29 L101.706667,29 L101.706667,22.8 C101.706667,20.4 100.046667,18.8 97.5466667,18.8 C96.3866667,18.8 95.1266667,19.4 94.4266667,20.28 L94.4266667,15.28 L92.8266667,15.28 L92.8266667,29 L94.4266667,29 Z" id="Fleach" fill="#FEFEFE" fill-rule="nonzero"></path>
                    </g>
                </g>
            </g>
        </g>
    </g>
</svg>