<svg xmlns="http://www.w3.org/2000/svg" width="32" height="32" viewBox="0 0 32 32">
  <g fill="none" fill-rule="evenodd">
    <rect width="32" height="32"/>
    <path fill="#FFF" fill-rule="nonzero" d="M27.8799496,8.31974922 C27.0519936,7.47335423 26.0648153,6.84639498 24.9184148,6.43887147 C24.0904588,6.15673981 23.2306584,6 22.3708579,6 C19.7914566,6 17.4349665,7.2539185 16.0338103,9.29153605 C15.810899,8.94670846 15.5561434,8.63322884 15.2376988,8.31974922 C14.4097428,7.47335423 13.4225645,6.84639498 12.2761639,6.43887147 C11.448208,6.15673981 10.5884075,6 9.72860708,6 C6.44862765,6 3.51893728,8.03761755 2.43622562,11.0783699 C1.76749195,12.9905956 1.86302533,15.0595611 2.75467022,16.8777429 C3.64631512,18.6959248 5.20669368,20.0752351 7.14920578,20.7648903 C7.5313393,20.8902821 7.91347283,21.015674 8.32745082,21.0783699 C7.72240607,22.0501567 6.98998348,22.9592476 6.09833858,23.7742947 C5.77989397,24.0564263 5.58882721,24.4639498 5.62067167,24.8714734 C5.65251613,25.2476489 5.8435829,25.5924765 6.1620275,25.7805643 C6.38493872,25.9059561 6.60784995,26 6.89445009,26 C7.08551686,26 7.24473916,25.968652 7.43580592,25.9059561 C9.50569586,25.1222571 11.4800524,23.8056426 13.1678088,22.0815047 C13.9002314,21.3291536 14.8555652,20.2946708 15.6516767,19.0407524 C15.8427435,18.7586207 16.0019658,18.4451411 16.1611881,18.1316614 C17.0846775,19.354232 18.3266114,20.2633229 19.7914566,20.7648903 C20.1735901,20.8902821 20.5557237,21.015674 20.9697017,21.0783699 C20.3646569,22.0501567 19.6322343,22.9592476 18.7405894,23.7742947 C18.4221448,24.0564263 18.231078,24.4639498 18.2629225,24.8714734 C18.294767,25.2476489 18.4858337,25.5924765 18.8042783,25.7805643 C19.0271896,25.9059561 19.2501008,26 19.5367009,26 C19.7277677,26 19.88699,25.968652 20.0780568,25.9059561 C22.1479467,25.1222571 24.1223033,23.8056426 25.8100597,22.0815047 C26.5424823,21.3291536 27.4978161,20.2946708 28.2939276,19.0407524 C28.8989723,18.1003135 29.3447948,17.1285266 29.6313949,16.0940439 C30.4911954,13.3040752 29.8224617,10.3260188 27.8799496,8.31974922 Z M27.8481051,15.5611285 C27.5933495,16.4388715 27.2112159,17.2539185 26.7017046,18.0689655 C26.0011264,19.1661442 25.1731704,20.0752351 24.4407479,20.7962382 C23.7401697,21.5172414 22.9759027,22.1755486 22.1479467,22.7084639 C22.5937691,22.0501567 22.9759027,21.3918495 23.2943473,20.6708464 C23.4217251,20.3887147 23.3898807,20.0438871 23.2306584,19.7617555 C23.0714361,19.5109718 22.7529914,19.354232 22.4345468,19.354232 C22.4345468,19.354232 22.4345468,19.354232 22.4345468,19.354232 C21.7339687,19.354232 21.065235,19.2601881 20.4283458,19.0407524 C18.9635006,18.539185 17.7852556,17.5047022 17.1165219,16.1253918 C17.0846775,16.0626959 17.0846775,16.031348 17.052833,15.968652 C16.4477883,14.6206897 16.3840993,13.1473354 16.8617662,11.7366771 C16.8936107,11.6112853 16.9572996,11.5172414 16.9891441,11.3918495 C17.9126334,9.26018809 20.0143678,7.88087774 22.3708579,7.88087774 C23.0395916,7.88087774 23.6764808,8.00626959 24.31337,8.19435737 C25.1731704,8.47648903 25.905593,8.97805643 26.5424823,9.60501567 C27.975483,11.1097179 28.4849943,13.3981191 27.8481051,15.5611285 Z M14.0594537,18.0376176 C13.3588756,19.1347962 12.5309196,20.0438871 11.798497,20.7648903 C11.0979189,21.4858934 10.3336518,22.1442006 9.50569586,22.677116 C9.95151831,22.0188088 10.3336518,21.3605016 10.6520964,20.6394984 C10.7794743,20.3573668 10.7476298,20.0125392 10.5884075,19.7304075 C10.4291852,19.4796238 10.1107406,19.322884 9.792296,19.322884 C9.792296,19.322884 9.792296,19.322884 9.792296,19.322884 C9.09171787,19.322884 8.4229842,19.2288401 7.78609499,19.0094044 C6.3212498,18.507837 5.14300476,17.4733542 4.47427109,16.0940439 C3.80553742,14.7147335 3.71000404,13.1473354 4.21951541,11.7053292 C5.04747138,9.4169279 7.24473916,7.88087774 9.72860708,7.88087774 C10.3973408,7.88087774 11.03423,8.00626959 11.6711192,8.19435737 C12.5309196,8.47648903 13.2633422,8.97805643 13.9002314,9.60501567 C14.3778983,10.1065831 14.7600318,10.7021944 15.046632,11.3605016 C14.5689651,12.8965517 14.5689651,14.4952978 15.0784765,16 C14.7918763,16.7210031 14.4734317,17.3793103 14.0594537,18.0376176 Z"/>
  </g>
</svg>
