<?xml version="1.0" encoding="UTF-8"?>
<svg width="696px" height="700px" viewBox="0 0 696 700" version="1.1" xmlns="http://www.w3.org/2000/svg" xmlns:xlink="http://www.w3.org/1999/xlink">
    <title>ShapeHero</title>
    <g id="Ok" stroke="none" stroke-width="1" fill="none" fill-rule="evenodd" opacity="0.05">
        <g id="Homepage" transform="translate(394.000000, -60.000000)" fill="#5A67E3" fill-rule="nonzero">
            <g id="HeroSection" transform="translate(-394.000000, -331.000000)">
                <g id="ShapeHero" transform="translate(0.000000, 391.000000)">
                    <path d="M404.86026,700 C398.721968,700 392.342959,699.879734 385.963949,699.639203 C344.44021,698.55681 301.351807,695.429898 269.577119,671.1362 C249.356864,655.742174 236.11741,633.492995 223.239033,611.845145 C217.822893,602.704942 212.166036,593.203941 206.027744,584.424535 C180.391348,547.623191 145.0059,518.999922 103.722878,501.561377 C96.862434,498.674997 89.5205554,496.029149 82.4193941,493.3833 C57.6255089,484.243097 32.1094718,474.862362 15.9814105,454.296905 C-14.4693319,415.330775 4.90841329,358.204505 22.1197025,318.637046 C28.0172771,305.287539 33.6741344,293.621753 44.265697,286.526069 C57.1440743,277.866929 73.6332115,278.347992 89.5205554,280.15198 C169.077633,289.051651 243.820365,320.080236 316.035564,350.026428 C346.365948,362.654341 377.659201,375.64305 404.138108,395.727444 C482.010165,454.777968 514.988439,522.126834 514.386646,620.985348 L514.386646,620.985348 C519.200992,650.570743 496.332846,677.390024 471.057526,688.695012 C450.83727,697.955481 428.811634,700 404.86026,700 Z M73.3924941,280.031714 C63.0416489,280.031714 53.1722383,281.715436 44.8674903,287.36793 C34.3962864,294.343348 28.7394291,305.888868 22.9622132,319.118109 C-12.9046693,401.259673 2.14016397,435.415169 16.7035625,453.815841 C32.5909064,474.140767 58.1069436,483.521502 82.6601114,492.661705 C89.7612727,495.307554 96.9827926,497.953402 103.963595,500.839782 C145.487335,518.278328 180.993141,547.021861 206.749896,583.943472 C212.888188,592.843143 218.545045,602.223878 223.961185,611.484347 C236.719204,632.891666 249.958657,655.140845 270.058554,670.414605 C301.592525,694.467772 344.680927,697.594683 385.963949,698.797342 C417.377561,699.639203 445.42113,699.398671 470.816809,688.093683 C495.731052,676.90896 518.47884,650.330211 513.544135,621.22588 L513.784852,621.22588 L513.544135,621.22588 C514.145928,522.728163 481.288013,455.499563 403.656673,396.689571 C377.298125,376.725443 346.004872,363.616467 315.674488,350.988555 C243.459289,321.042363 168.836916,290.013778 89.4001967,281.114106 C84.1044154,280.512777 78.6882754,280.031714 73.3924941,280.031714 Z M418.942224,698.797342 C414.248236,698.797342 409.674606,698.677076 405.221336,698.55681 C401.851293,698.436544 398.601609,698.316278 395.231567,698.316278 C351.421012,696.873088 309.415838,693.625911 276.918998,670.775403 C253.810134,654.539515 238.283866,630.486349 223.118674,607.154778 C219.02648,600.900954 214.813926,594.286333 210.481014,588.03251 L208.434917,585.025864 C180.993141,545.939469 146.690922,514.910884 109.018659,495.307554 C102.037857,491.579313 94.5756193,488.211869 87.3540994,484.844426 C64.1248769,474.020501 40.0531437,462.835779 23.8047238,442.02979 C2.7419573,415.090243 -1.831672,379.732089 10.3245532,337.037718 C13.8149546,324.890869 18.3885839,313.104818 23.9250825,301.679564 C29.4615811,290.013778 36.4423837,276.784536 48.4782503,269.207789 C61.7177036,260.789181 78.6882754,261.270244 93.61275,262.8337 C123.582058,265.960611 155.356746,272.575232 190.742193,283.158626 C236.11741,296.748665 280.650117,314.548008 319.887042,330.302832 C350.097067,342.329415 381.269961,354.837062 408.230302,374.320126 C486.94487,431.326131 521.728524,496.630478 524.737491,592.963409 C528.227892,604.388663 525.339284,616.776044 521.848883,628.562096 C517.034536,644.677717 510.896244,661.394668 499.101095,674.984707 C494.407107,680.637201 488.629891,685.207303 481.889806,688.45448 C461.910267,697.11362 439.643914,698.797342 418.942224,698.797342 Z M78.5679168,262.713434 C68.0967128,262.713434 57.6255089,264.27689 48.959685,269.929384 C37.1645357,277.506131 30.3040918,290.494841 24.7675931,302.040361 C19.3514532,313.345349 14.7778239,325.131401 11.2874226,337.27825 C-0.748444006,379.732089 3.70482663,414.849712 24.6472345,441.548727 C40.7752957,462.23445 64.7266702,473.298906 87.835534,484.122831 C95.057054,487.490274 102.519291,490.977984 109.500094,494.585959 C147.292715,514.309555 181.835652,545.458406 209.277428,584.544801 L211.323525,587.551447 C215.656437,593.80527 219.86899,600.419891 223.961185,606.673714 C239.006018,629.88502 254.652645,653.938186 277.520791,670.053808 C309.897272,692.78405 351.661729,695.910962 395.351925,697.474418 C398.601609,697.594683 401.971652,697.714949 405.221336,697.714949 C429.413428,698.316278 457.216279,698.196013 481.288013,687.372088 C487.787381,684.245176 493.564596,679.79534 498.138226,674.142846 C509.813016,660.673073 515.951308,644.076388 520.765655,628.081032 C524.256056,616.535512 527.024306,604.268398 523.654263,592.963409 L523.654263,592.843143 C520.645296,496.871009 485.982001,431.686928 407.50815,374.921455 C380.788527,355.558657 349.615632,343.05101 319.405607,331.024427 C280.168682,315.389869 235.635976,297.590525 190.381117,284.000486 C155.116028,273.417093 123.34134,266.802472 93.4923913,263.675561 C88.6780447,263.074232 83.6229807,262.713434 78.5679168,262.713434 Z M432.542753,697.714949 C426.52482,697.714949 420.627245,697.594683 414.72967,697.354152 C411.359628,697.233886 407.989585,697.11362 404.739901,696.993354 C358.642532,695.189367 317.720586,691.942189 284.621953,670.414605 C257.78197,653.096325 240.089246,627.479703 221.433653,600.419891 C218.785762,596.571384 216.017513,592.602612 213.369622,588.754105 L211.203166,585.627194 C180.993141,543.173355 148.496302,510.581314 114.555158,489.05373 C107.333638,484.483629 99.6306833,480.033793 92.168446,475.824489 C70.5038862,463.437108 48.1171743,450.68893 31.8687544,429.762675 C8.51917326,399.816483 1.53837064,362.413809 11.6484986,321.643692 C14.8981825,308.775248 19.7125292,296.387867 25.8508211,284.601815 C31.9891131,272.695498 39.932785,259.466257 52.6908036,251.769243 C66.1709742,243.591167 83.0211874,243.951964 97.7049446,245.274888 C127.072459,248.041002 158.726788,254.415092 194.473312,264.878219 C237.802432,277.626397 280.289041,293.501487 323.497802,310.218438 C352.143164,321.162628 384.640004,333.670275 412.08178,352.552011 C491.518499,407.39323 528.227892,470.773324 534.847619,564.460407 C540.023041,577.689649 536.171564,592.36208 532.560804,606.553448 L531.959011,608.718233 C530.875783,613.047803 529.912914,617.377373 528.950044,621.586677 C524.978208,638.664426 521.367448,654.780047 511.979472,669.332213 C506.442974,677.991353 499.58253,684.245176 492.240651,687.612619 C473.585058,695.910962 452.883367,697.714949 432.542753,697.714949 Z M83.5026221,245.395154 C72.9110595,245.395154 62.1991382,246.95861 53.0518796,252.490838 C40.4142197,260.067586 32.5909064,273.176561 26.5729731,284.962613 C20.4346812,296.628399 15.7406932,309.015779 12.4910092,321.763958 C2.3808813,362.293543 9.24132526,399.455685 32.4705478,429.161346 C48.7189676,449.967335 70.9853208,462.715513 92.529522,474.982628 C99.9917593,479.191932 107.694714,483.641768 114.916234,488.211869 C148.857378,509.859719 181.474576,542.45176 211.80496,585.025864 L213.971416,588.152776 C216.739665,592.001283 219.387556,595.970055 222.155805,599.818562 C240.811398,626.878374 258.504122,652.37473 285.103387,669.572744 C318.081662,690.859797 358.883249,694.106974 404.86026,695.910962 C408.230302,696.031228 411.479986,696.151493 414.850029,696.271759 C440.727142,697.233886 468.048559,697.233886 491.879575,686.530227 C499.101095,683.283049 505.84118,677.029226 511.25732,668.610618 C520.524938,654.178718 524.135698,638.183362 528.107534,621.22588 C529.070403,617.016576 530.033272,612.687006 531.1165,608.357436 L531.718294,606.192651 C535.329054,592.121548 539.060172,577.569383 534.005108,564.580673 L534.366184,564.460407 L534.005108,564.460407 C527.50574,471.013855 490.916706,407.754028 411.600345,353.15334 C384.278928,334.271604 351.782088,321.884223 323.257084,310.940033 C280.048323,294.343348 237.561714,278.347992 194.232595,265.599814 C158.60643,255.136687 126.9521,248.762597 97.584586,245.996483 C92.890598,245.755952 88.19661,245.395154 83.5026221,245.395154 Z M446.022923,696.752823 C438.801404,696.752823 431.459525,696.512291 424.117646,696.151493 L413.88716,695.67043 C373.687365,693.746177 328.19179,691.701658 291.843473,670.053808 C259.948426,651.172072 238.644942,621.586677 216.137872,590.197295 L215.536078,589.355434 C214.813926,588.273042 213.971416,587.190649 213.249264,586.228523 C188.094303,551.231166 157.282484,511.663707 119.489863,482.799907 C111.907267,477.027147 103.843237,471.494919 96.0199233,466.082956 C76.0403848,452.372651 55.4590529,438.301549 39.3309917,417.49556 C12.8520852,383.340064 3.82518529,345.93739 12.4910092,306.249665 C15.4999759,292.659626 20.5550398,279.670916 27.2951251,267.524067 C33.3130584,256.339345 42.2195997,242.388508 56.4219223,234.210432 C70.2631688,226.272887 87.5948167,226.513419 101.195346,227.716077 C130.442502,230.121393 161.133962,236.134685 197.722996,246.477547 C241.53355,258.864927 283.779442,274.138688 326.747486,290.013778 C355.272489,300.476905 387.648971,312.383223 415.572181,330.663629 C495.851411,383.46033 534.486543,444.91617 544.596671,536.077671 C550.97568,550.269039 547.124203,566.504926 543.393084,582.25975 C542.911649,584.544801 542.309856,586.829852 541.828421,588.994637 C539.902683,597.653777 538.699096,606.192651 537.49551,614.611259 C534.967978,631.929539 532.560804,648.285692 524.737491,663.679719 C520.765655,671.496998 513.784852,681.719594 502.471138,686.891024 C485.019131,694.708303 465.882103,696.752823 446.022923,696.752823 Z M88.6780447,228.076874 C78.0864821,228.076874 66.6524088,229.520064 57.1440743,235.052293 C43.0621103,243.230369 34.2759277,256.940674 28.2579945,268.005131 C21.5179092,280.031714 16.5832039,293.020424 13.5742372,306.490197 C5.02877195,345.93739 13.9353132,383.099532 40.293861,416.894231 C56.4219223,437.579954 77.0032541,451.651056 96.862434,465.241095 C104.685747,470.653058 112.749778,476.185286 120.332374,481.958046 C158.124995,510.942112 189.057172,550.629836 214.212133,585.627194 C214.934285,586.709586 215.776796,587.671713 216.498948,588.754105 L217.100741,589.595966 C239.487453,620.865082 260.670578,650.330211 292.445266,669.211947 C328.673224,690.619265 374.048441,692.78405 414.007518,694.588038 L424.117646,695.069101 C451.679781,696.271759 478.399405,696.512291 502.110062,685.808632 C513.183059,680.877733 520.043503,670.655137 524.015339,663.07839 C531.838652,647.804629 534.245826,631.448476 536.652999,614.250462 C537.856586,605.952119 539.060172,597.292979 540.985911,588.633839 C541.467345,586.348789 542.069139,584.184004 542.550573,581.898953 C546.281692,566.264395 550.133169,550.148773 543.75416,536.197937 L544.115236,536.077671 L543.75416,536.077671 C533.764391,445.156702 495.249618,383.941393 415.211105,331.264958 C387.528612,313.104818 355.152131,301.1985 326.627127,290.735373 C283.659083,274.860283 241.413192,259.586522 197.602637,247.199142 C161.133962,236.85628 130.442502,230.842988 101.195346,228.437672 C97.3438686,228.317406 93.1313153,228.076874 88.6780447,228.076874 Z M513.183059,686.289695 C526.422512,680.276404 534.005108,667.768757 537.976944,658.267756 C545.198464,641.190008 546.642768,623.390665 548.087072,604.629195 C548.929583,593.203941 549.892452,581.297624 552.299625,569.511572 C553.021777,566.144129 553.743929,562.536154 554.58644,559.16871 C558.558276,541.609899 562.770829,523.329492 554.947516,507.935466 L554.105005,508.296263 C561.687601,523.449758 557.595407,541.489633 553.623571,558.928179 C552.901419,562.415888 552.058908,565.903597 551.336756,569.27104 C548.929583,581.177358 548.087072,593.083675 547.124203,604.508929 C545.679899,623.270399 544.235595,640.829211 537.014075,657.906959 C533.042239,667.287694 525.580002,679.554809 512.701624,685.447834 C487.305946,696.873088 457.577355,695.309633 433.625981,694.106974 C431.218808,693.986708 428.811634,693.866443 426.404461,693.746177 L423.275136,693.625911 C380.547809,691.34086 336.25582,689.055809 299.787145,669.211947 C281.492627,659.229883 258.744839,644.076388 218.906121,589.716232 L210.481014,578.170712 C182.798521,540.166709 156.560332,504.207225 125.628155,475.944755 C117.564124,468.608539 108.898301,461.512855 100.473194,454.657702 C82.4193941,439.985271 63.7638009,424.952042 48.1171743,404.747382 C18.0275079,366.021784 7.43594527,329.942034 14.6574652,291.216436 C17.4257145,277.025068 22.6011372,263.555295 29.9430158,251.167914 C39.0902744,235.052293 49.2004023,224.108102 61.1159102,217.613747 C74.9571568,210.037 92.0480873,210.157265 105.287541,211.119392 C134.053262,213.284177 164.624363,218.936671 201.333756,229.159267 C246.468256,241.546648 291.482397,257.181206 330.237887,270.891511 C364.660465,283.03836 392.944752,293.501487 419.062582,309.737374 C500.063964,360.249024 540.384117,419.540079 553.984647,507.935466 L554.827157,507.8152 C541.226628,419.179282 500.786116,359.647695 419.544017,309.015779 C393.426187,292.779892 365.021541,282.196499 330.598963,270.04965 C291.843473,256.339345 246.829332,240.704787 201.694832,228.317406 C164.86508,218.09481 134.293979,212.442316 105.407899,210.277531 C91.9277287,209.315405 74.7164395,209.074873 60.6344756,216.771886 C48.598609,223.266241 38.3681224,234.450963 29.2208638,250.566585 C21.7586265,263.074232 16.5832039,276.664271 13.8149546,290.975905 C6.47307594,330.0623 17.1849972,366.382581 47.3950223,405.228445 C63.1620075,425.553371 81.8176007,440.706866 99.8714006,455.259031 C108.657583,462.354716 116.962331,469.089602 125.026362,476.425818 C155.958539,504.568023 182.076369,540.407241 209.758863,578.411244 L215.776796,586.709586 L218.183969,589.956764 C239.126377,618.580032 264.401697,650.570743 299.426069,669.69301 C336.135462,689.657138 380.427451,692.062455 423.275136,694.22724 L426.404461,694.347506 C428.811634,694.467772 431.218808,694.588038 433.625981,694.708303 C441.569653,695.069101 450.115118,695.550164 459.021659,695.550164 C476.955101,695.790696 495.97177,693.986708 513.183059,686.289695 Z M471.538961,694.828569 C461.789909,694.828569 452.161215,694.22724 443.013957,693.746177 L429.774504,693.024582 C387.408253,690.498999 343.597699,687.973417 306.888306,669.572744 C268.132815,650.08968 240.450322,617.257107 220.711501,590.798624 L218.304328,587.431181 C208.916352,574.683003 199.769093,561.574027 190.982911,549.066381 C170.883013,520.443112 151.986703,493.3833 130.442502,470.29226 C121.53596,460.79126 112.268343,452.011854 102.519291,442.751385 C86.6319474,427.718156 70.1428102,412.203863 55.3386943,393.081596 C31.1466024,361.932746 7.43594527,323.567945 15.0185412,275.702144 C17.6664319,260.668915 23.0825718,246.597813 31.1466024,233.609103 C41.016013,217.252949 52.0890103,206.068227 64.9673875,199.453606 C79.2900688,191.997125 96.2606406,191.997125 109.500094,192.838986 C137.78438,194.642973 168.235123,200.175201 205.546309,210.157265 C250.199374,222.063583 293.88957,236.375217 334.330082,250.085522 C367.308356,261.149978 396.916588,271.613106 423.515853,287.36793 C463.234213,310.940033 492.120292,335.233731 514.507004,364.097531 C539.421248,396.208508 555.910385,433.971979 565.057644,479.672995 L565.057644,479.672995 C574.084544,496.630478 569.631273,516.835138 565.298361,536.318202 C564.335492,540.768038 563.252264,545.458406 562.409753,549.908241 C559.761863,564.580673 559.280428,579.37337 558.919352,593.564738 C558.317559,614.250462 557.836124,633.733526 550.855321,652.735528 C547.485279,661.875731 539.541607,678.35215 523.533904,685.5681 C507.165126,692.904316 489.111326,694.828569 471.538961,694.828569 Z M98.7881726,193.320049 C87.9558927,193.320049 75.7996675,194.763239 65.2081049,200.175201 C52.4500863,206.789822 41.4974477,217.854279 31.6280371,234.090166 C23.5640065,246.95861 18.2682252,260.909447 15.6203345,275.82241 C8.0377386,323.207148 31.6280371,361.451682 55.6997703,392.480267 C70.5038862,411.602534 86.9930234,427.116827 102.880367,442.150056 C112.749778,451.410525 122.017395,460.189931 130.923936,469.690931 C152.588496,492.781971 171.484807,519.962049 191.584704,548.585317 C200.370887,561.21323 209.518145,574.201939 218.906121,586.950118 L221.313294,590.317561 C258.865198,640.588679 286.908767,658.628554 307.129023,668.730884 C343.718058,687.01129 387.408253,689.536873 429.774504,692.062455 L443.013957,692.78405 C468.770711,694.347506 497.897508,696.031228 523.05247,684.726239 C538.699096,677.630555 546.522409,661.394668 549.892452,652.37473 C556.752896,633.492995 557.354689,614.00993 557.836124,593.444473 C558.1972,579.132839 558.558276,564.460407 561.326525,549.66771 C562.169036,545.217874 563.131905,540.527506 564.215133,535.957405 C568.548045,516.594606 573.001316,496.510212 563.974416,479.793261 L564.455851,479.55273 L564.094775,479.672995 C555.067875,434.212511 538.578738,396.449039 513.784852,364.458328 C491.518499,335.714794 462.632419,311.421096 423.034418,287.969259 C396.435153,272.334701 366.94728,261.871573 333.969006,250.807117 C293.528494,237.096812 249.838298,222.785178 205.185233,210.87886 C167.994405,200.896796 137.543663,195.484834 109.379735,193.680846 C106.009693,193.440315 102.519291,193.320049 98.7881726,193.320049 Z M534.005108,684.846505 C552.058908,676.668429 560.363656,657.666427 563.733699,647.083034 C570.473784,625.916247 570.233067,604.508929 569.992349,581.898953 C569.751632,565.061736 569.510915,547.502925 572.519881,530.184645 C573.482751,524.652417 574.686337,518.999922 575.889924,513.467694 C580.583912,491.94011 585.398259,469.570665 574.927055,451.169993 L574.927055,451.169993 C563.974416,406.912167 546.040975,370.231088 520.043503,339.202503 C496.693922,311.421096 467.206049,287.969259 427.126613,265.599814 C399.925554,250.566585 370.55804,240.584521 337.700124,230.001128 C300.268579,217.974544 255.615514,204.023708 208.916352,191.876859 C171.484807,182.135326 141.034064,176.84363 113.110854,175.40044 C101.195346,174.799111 83.5026221,174.799111 68.6985062,182.015061 C54.8572596,188.870213 42.7010344,200.535999 32.4705478,216.65162 C23.5640065,230.602457 17.7867905,245.635686 15.8610519,260.428383 C9.48204259,307.452324 34.5166451,344.133402 62.9212902,380.814481 C76.0403848,397.771964 89.640914,412.444395 102.760009,426.756029 C114.314441,439.383942 125.267079,451.169993 135.497566,464.038437 C151.144192,483.641768 165.105797,505.289618 179.909913,528.260392 C192.667932,547.983988 205.787027,568.42918 220.591142,588.152776 L223.118674,591.520219 C228.775532,598.856435 234.432389,605.831853 240.089246,612.326208 C235.395258,606.312917 230.099477,599.337498 223.840826,591.039156 L221.313294,587.671713 C206.629537,567.948116 193.390084,547.502925 180.632065,527.779328 C166.068667,504.688288 152.107062,482.920173 136.460435,463.316842 C126.229948,450.448398 115.27731,438.542081 103.602519,425.914168 C90.4834247,411.602534 76.8828954,396.930103 63.7638009,379.97262 C35.4795144,343.532073 10.5652706,306.850994 16.9442799,260.308117 C18.9903772,245.755952 24.6472345,230.722723 33.4334171,216.892152 C43.543545,200.896796 55.5794116,189.351276 69.3002995,182.61639 C83.9840567,175.40044 101.436063,175.40044 113.231213,176.001769 C141.034064,177.444959 171.364448,182.736656 208.795993,192.478188 C255.495156,204.625037 300.027862,218.575874 337.459407,230.602457 C370.317323,241.065584 399.684837,251.047648 426.765537,266.080877 C466.724614,288.450322 496.092128,311.781894 519.321351,339.443035 C545.318823,370.47162 563.252264,406.912167 574.084544,451.169993 L574.686337,451.049727 L574.204903,451.290259 C584.555748,469.4504 579.741401,491.579313 575.047413,512.986631 C573.843827,518.518859 572.64024,524.291619 571.677371,529.703582 C568.668404,547.262393 568.909121,564.700939 569.149839,581.658421 C569.390556,604.268398 569.751632,625.55545 563.011547,646.60197 C559.641504,657.065098 551.457115,675.706302 533.764391,683.764113 C508.729788,695.069101 480.204785,693.144848 452.64265,691.220594 L435.792437,690.138202 C394.268697,687.492353 351.421012,684.846505 314.831978,668.009289 C308.212251,665.002643 302.435035,662.356795 297.379971,659.951478 C302.91647,663.198655 308.573327,666.205301 314.350543,668.851149 C351.059936,685.688366 394.02798,688.45448 435.672078,690.980063 L452.522291,692.062455 C462.993495,692.78405 473.705417,693.505645 484.176621,693.505645 C501.38791,693.866443 518.358482,691.942189 534.005108,684.846505 Z M496.453204,692.904316 C485.500566,692.904316 474.427569,692.062455 463.47493,691.220594 L460.465963,690.980063 C457.456997,690.739531 454.44803,690.498999 451.318705,690.378733 C447.828303,690.138202 444.337902,689.89767 440.847501,689.657138 C400.28663,686.891024 358.281456,684.004644 321.81278,668.730884 C285.825539,653.577389 253.449058,627.840501 225.766565,592.001283 L225.525848,591.640485 C224.683337,590.558093 223.961185,589.595966 223.118674,588.513574 C204.342723,563.49828 188.936813,537.160063 174.132697,511.543441 C163.0597,492.421174 152.588496,474.501565 141.034064,457.544082 C128.276046,438.782612 113.953365,421.464333 98.7881726,403.06366 C89.640914,391.999204 80.2529381,380.57395 70.7446035,368.306835 L68.2170715,365.059657 C39.0902744,327.536718 11.6484986,292.058297 16.9442799,244.793825 C18.6293012,229.520064 24.6472345,213.76524 34.1555691,199.453606 C44.626773,183.458251 57.9865849,171.311402 72.6703421,164.456249 C87.7151754,157.360565 105.167182,157.240299 116.962331,157.721362 C144.644824,158.924021 174.132697,163.734654 212.406753,173.476187 C250.440092,182.977187 291.362038,194.642973 341.190526,209.916734 C372.724496,219.538 403.295597,229.399798 430.857732,243.831698 C471.177885,265.118751 501.267551,287.608461 525.580002,314.307476 C552.78106,344.373934 572.158805,379.852355 584.916824,422.907523 C596.711973,442.871651 591.416192,467.40588 586.361128,490.977984 C584.916824,497.472339 583.47252,504.207225 582.509651,510.581314 C579.259967,530.545442 580.222836,550.750102 581.065347,570.112901 C582.148575,594.887663 583.231803,618.3395 576.612076,641.671071 C570.83486,662.116263 559.039711,677.510289 544.355953,684.245176 C529.31112,690.980063 513.0627,692.904316 496.453204,692.904316 Z M109.500094,158.442957 C98.667814,158.442957 85.1876434,159.645616 73.2721355,165.29811 C58.7087369,172.153262 45.4692837,184.179846 35.1184384,200.054935 C25.7304625,214.246304 19.7125292,229.880862 18.0275079,245.034357 C12.7317266,291.938031 40.0531437,327.296186 69.0595822,364.69886 L71.5871141,367.946037 C81.0954487,380.213152 90.4834247,391.638406 99.6306833,402.702863 C114.795875,421.103535 129.118556,438.421815 141.876575,457.303551 C153.431007,474.261033 163.902211,492.300908 175.095567,511.423175 C189.899683,536.919532 205.305592,563.378015 224.081544,588.273042 C224.924054,589.355434 225.646206,590.317561 226.488717,591.399953 L226.729434,591.760751 C254.291569,627.479703 286.427333,653.096325 322.294215,668.24982 C358.642532,683.523581 400.527348,686.289695 441.088218,689.055809 C444.57862,689.296341 448.069021,689.536873 451.559422,689.777404 C454.688747,690.017936 457.697714,690.258468 460.706681,690.378733 L463.715647,690.619265 C491.037065,692.663784 519.44171,694.828569 544.355953,683.643847 C558.798993,677.149492 570.473784,661.755465 576.130641,641.671071 C582.750368,618.459766 581.66714,595.128194 580.583912,570.353433 C579.741401,550.870368 578.778532,530.665708 582.028216,510.581314 C583.111444,504.086959 584.555748,497.472339 585.879693,490.977984 C590.934757,467.526146 596.11018,443.232448 584.555748,423.508852 L584.555748,423.388586 C571.797729,380.453684 552.540343,344.975263 525.339284,315.029071 C501.147192,288.330056 471.177885,266.080877 430.857732,244.793825 C403.415956,230.361925 372.844855,220.620393 341.431243,210.999126 C291.723114,195.725365 250.801168,184.179846 212.767829,174.558579 C174.493773,164.937312 145.0059,160.126679 117.443766,158.924021 C114.795875,158.563223 112.268343,158.442957 109.500094,158.442957 Z M508.368712,692.062455 C496.81428,692.062455 485.019131,691.100328 473.464699,690.017936 L471.418602,689.89767 C468.048559,689.657138 464.558158,689.296341 461.067757,689.055809 L460.706681,689.055809 C455.771975,688.695012 450.83727,688.334214 445.782206,687.973417 C406.304564,685.207303 365.382617,682.200657 329.395376,668.490352 C290.038093,653.457123 256.096949,627.960766 228.414456,592.722878 C227.451586,591.520219 226.609076,590.317561 225.646206,589.235169 C203.500212,560.130837 187.131433,528.500923 171.364448,497.953402 C162.939342,481.597249 154.99567,466.323488 146.329846,451.410525 C127.794611,419.780611 106.009693,391.51814 80.7343727,358.805834 L78.6882754,356.159986 C75.1978741,351.71015 71.7074728,347.260314 68.3374302,342.930744 C40.4142197,307.692855 14.1760306,274.499486 18.2682252,229.64033 C19.7125292,213.644974 25.9711798,197.409087 36.2016664,182.496124 C47.154305,166.380502 61.3566276,154.113388 77.1236128,147.017703 C88.6780447,141.726007 102.760009,139.681488 121.174884,140.282817 C155.958539,141.485475 190.260759,148.821691 216.378589,155.19578 C255.254438,164.576515 297.379971,175.881503 345.042003,189.83234 C376.335256,198.852277 406.785998,208.112746 434.829568,221.943317 C475.510797,242.147977 506.202256,263.555295 531.357218,289.292183 C559.761863,318.276249 580.583912,352.672277 595.14731,394.524786 L595.14731,394.524786 C608.266405,416.172636 602.609548,442.631119 597.073049,468.368007 C595.508386,475.824489 593.823365,483.521502 592.740137,490.857718 C589.370094,513.347428 590.934757,536.077671 592.49942,557.966052 C594.3048,583.823206 596.230538,610.522221 589.610812,636.138843 C583.713237,658.869085 571.075577,676.187365 554.827157,683.523581 C540.263759,690.138202 524.496774,692.062455 508.368712,692.062455 Z M115.27731,141.004412 C99.7510419,141.004412 87.7151754,143.169197 77.4846888,147.859564 C61.8380622,154.834983 47.876457,166.981832 36.9238184,182.977187 C26.8136905,197.649619 20.6753985,213.885506 19.2310945,229.64033 C15.1388999,274.138688 41.377089,307.211792 69.0595822,342.329415 C72.4296248,346.658985 76.0403848,351.108821 79.4104274,355.558657 L81.4565247,358.204505 C106.731845,390.916811 128.637122,419.179282 147.172356,450.809196 C155.83818,465.722159 163.781852,481.116185 172.206959,497.352073 C187.973944,527.899594 204.222364,559.529508 226.368358,588.513574 C227.331228,589.716232 228.173738,590.91889 229.136608,592.001283 C256.698742,626.99864 290.519527,652.37473 329.636094,667.407959 C365.502976,681.118264 406.304564,684.12491 445.782206,686.891024 C450.716911,687.251822 455.771975,687.612619 460.706681,687.973417 L461.067757,687.973417 C464.558158,688.213948 468.048559,688.45448 471.418602,688.815278 L473.464699,688.935543 C501.026834,691.34086 529.431479,693.746177 554.466081,682.441188 C570.473784,675.225239 582.991085,658.14749 588.768301,635.65778 C595.388028,610.161423 593.582648,584.785333 591.656909,557.845786 C590.092246,535.837139 588.407225,513.106897 591.897626,490.49692 C592.980854,483.160704 594.665876,475.343425 596.230538,467.886944 C601.646678,442.390587 607.303536,415.932104 594.3048,394.645052 L594.906593,394.284254 L594.3048,394.524786 C579.741401,352.792542 558.919352,318.51678 530.755424,289.65298 C505.720822,264.036358 475.149721,242.749306 434.468492,222.544646 C406.545281,208.714075 376.094539,199.453606 344.801286,190.433669 C297.139254,176.603098 255.013721,165.177844 216.137872,155.797109 C190.1404,149.42302 155.83818,142.086804 121.174884,140.884146 C119.128787,141.124678 117.203048,141.004412 115.27731,141.004412 Z M520.28422,691.100328 C508.60943,691.100328 496.693922,690.017936 484.898773,688.935543 L480.806578,688.574746 C477.195818,688.213948 473.585058,687.973417 469.974298,687.612619 C463.47493,687.131556 456.975562,686.650493 450.476194,686.169429 C412.08178,683.283049 372.36342,680.396669 336.857614,668.009289 C295.093157,653.697655 258.504122,627.840501 231.062346,593.324207 C230.099477,592.121548 229.136608,590.91889 228.173738,589.716232 C203.259495,557.364723 186.890716,521.044442 171.003372,485.926819 C164.504004,471.73545 158.486071,458.265677 151.866344,445.036436 C135.497566,412.324129 114.795875,380.213152 86.6319474,343.772605 C81.2158074,336.797187 75.5589501,329.942034 70.1428102,323.207148 C42.460317,289.532715 16.3424865,257.662269 19.5921705,214.246304 C20.7957572,197.649619 27.1747665,180.812402 38.1274051,165.538642 C49.681837,149.302754 64.6063115,136.795108 81.3361661,129.699424 C93.1313153,124.648259 107.213279,122.483474 125.267079,122.844271 C159.44894,123.686132 193.991877,130.781816 220.230066,137.035639 C263.679545,147.258235 307.008664,158.322692 348.89348,169.868212 C378.742429,178.046288 410.396758,187.186491 438.921762,200.295467 C479.964067,219.417734 511.136962,239.74266 537.254792,264.397156 C566.742665,292.298829 589.009018,325.612464 605.498156,366.14205 L605.498156,366.14205 C619.941196,389.353355 613.923262,418.096889 608.025688,445.878297 C606.220308,454.296905 604.414928,462.956045 603.211341,471.134121 C599.600581,496.149414 601.887396,521.405239 604.17421,545.819203 C606.822101,573.720876 609.469992,602.704942 602.850265,630.486349 C596.95269,655.621908 583.352161,674.623909 565.539079,682.68172 C551.096039,689.176075 535.930847,691.100328 520.28422,691.100328 Z M120.813808,123.686132 C104.806106,123.686132 92.2888047,125.850917 81.4565247,130.541284 C64.8470289,137.636969 50.042913,149.904083 38.6088397,166.139971 C27.7765598,181.1732 21.5179092,197.89015 20.3143225,214.366569 C17.1849972,257.421737 43.182469,289.171917 70.7446035,322.726084 C76.2811021,329.460971 81.9379594,336.316123 87.2337407,343.291542 C115.397669,379.732089 136.219718,411.963332 152.588496,444.675638 C159.208223,457.90488 165.346515,471.374653 171.725524,485.686287 C187.612868,520.683644 203.981647,557.003925 228.775532,589.235169 C229.738401,590.437827 230.580912,591.640485 231.543781,592.843143 C258.865198,627.239172 295.333874,652.97606 336.977972,667.287694 C372.36342,679.675074 412.08178,682.561454 450.355835,685.327568 C456.855203,685.808632 463.47493,686.289695 469.974298,686.770758 C473.585058,687.01129 477.195818,687.372088 480.806578,687.732885 L484.898773,688.093683 C512.099831,690.619265 540.1434,693.144848 564.816927,681.960125 C582.389292,674.02258 595.749104,655.26111 601.52632,630.366083 C608.025688,602.584676 605.377797,573.841142 602.850265,545.939469 C600.56345,521.525505 598.276636,496.149414 601.887396,471.013855 C603.090982,462.715513 604.896362,454.056373 606.701742,445.637765 C612.599317,417.976623 618.61725,389.353355 604.294569,366.502847 L604.535286,366.382581 L604.414928,366.502847 C588.046149,326.093528 565.779796,292.900158 536.412282,264.998485 C510.41481,240.343989 479.241915,220.019064 438.319969,201.017062 C409.794965,187.787821 378.260995,178.767883 348.412046,170.589807 C306.52723,159.044287 263.318469,147.97983 219.86899,137.757234 C193.630801,131.623677 159.208223,124.407727 125.026362,123.565866 C123.702416,123.686132 122.258112,123.686132 120.813808,123.686132 Z M532.07937,690.378733 C519.923144,690.378733 507.64656,689.176075 495.490335,687.973417 L490.435271,687.492353 C486.824511,687.131556 483.093393,686.770758 479.482633,686.530227 C471.177885,685.808632 462.752778,685.207303 454.568389,684.605973 C417.49792,681.839859 379.223864,678.953479 344.44021,667.889023 C298.824275,653.457123 261.513089,628.682361 233.710237,594.166068 C233.228802,593.564738 232.627009,592.843143 232.145574,592.241814 C231.66414,591.640485 231.182705,591.039156 230.821629,590.558093 C203.500212,555.320204 187.612868,514.790618 172.206959,475.463691 C167.392612,463.316842 162.457907,450.809196 157.402843,438.902878 C141.274782,400.658344 120.091656,364.578594 94.695978,331.625756 C87.7151754,322.605818 80.1325794,313.706147 72.7907008,305.167273 C44.8674903,272.575232 18.3885839,241.666913 20.9161158,198.972543 C21.8789852,181.774529 28.3783531,164.335983 40.0531437,148.581159 C51.6075756,132.585804 67.3745608,119.957891 85.5487194,112.260878 C97.4642273,107.329979 111.425833,105.165194 129.359274,105.405725 C162.698624,105.886789 195.917616,112.381144 224.081544,118.755233 C271.141782,129.338626 313.146956,139.561222 352.624599,149.783818 C382.353189,157.480831 413.766801,166.019705 442.893598,178.527351 C484.296979,196.567226 516.071667,215.930025 543.032008,239.622394 C573.723468,266.441675 597.434125,298.672918 615.728642,337.999845 L615.728642,337.999845 C631.615986,362.774606 625.116618,393.682925 618.857968,423.629118 C616.932229,432.889587 614.886132,442.510853 613.562186,451.771322 C609.710709,479.191932 612.840034,506.973339 615.849001,533.79262 C619.219044,563.979344 622.709445,595.128194 616.089718,625.194652 C610.071785,652.735528 595.628745,673.541517 576.371359,682.200657 C562.048677,688.45448 547.244561,690.378733 532.07937,690.378733 Z M126.591024,106.12732 C109.86117,106.12732 96.7420753,108.292105 85.5487194,112.982473 C67.4949195,120.55922 51.848293,133.066867 40.4142197,148.941957 C28.9801464,164.576515 22.3604198,181.774529 21.5179092,198.852277 C19.1107359,241.18585 45.348925,271.853637 73.2721355,304.325412 C80.6140141,312.864286 88.19661,321.763958 95.1774126,330.904161 C120.69345,363.856999 141.876575,399.936749 158.004636,438.301549 C163.180059,450.207866 168.114764,462.835779 172.808752,474.862362 C188.214661,514.069023 204.102005,554.598609 231.303064,589.716232 C231.784498,590.317561 232.265933,590.91889 232.627009,591.399953 C233.108444,592.001283 233.710237,592.722878 234.191672,593.324207 C261.874165,627.599969 299.064993,652.37473 344.560568,666.686364 C379.223864,677.630555 417.49792,680.516935 454.44803,683.283049 C462.632419,683.884378 471.057526,684.485708 479.362274,685.207303 C482.973034,685.5681 486.704153,685.808632 490.314913,686.169429 L495.369976,686.650493 C522.571035,689.416607 550.734963,692.182721 575.408489,680.997999 C594.425158,672.459124 608.74784,651.893667 614.645414,624.593323 C621.144782,594.526865 617.77474,563.49828 614.404697,533.431822 C611.39573,506.492276 608.266405,478.710869 612.117882,451.169993 C613.441828,441.909524 615.487925,432.288257 617.413664,423.027788 C623.672314,393.322128 630.171682,362.534075 614.404697,337.999845 L615.126849,337.518782 L614.284338,337.879579 C596.11018,298.672918 572.399523,266.561941 541.828421,239.862926 C514.988439,216.290823 483.213751,196.928024 441.930729,179.008415 C412.92429,166.500768 381.510679,157.961894 351.782088,150.264881 C312.304446,140.042285 270.299271,129.819689 223.239033,119.236296 C195.195464,112.862207 161.976472,106.247586 128.75748,105.886789 C128.276046,106.12732 127.433535,106.12732 126.591024,106.12732 Z M543.633801,689.536873 C531.1165,689.536873 518.358482,688.213948 505.84118,686.770758 C503.795083,686.530227 501.748986,686.289695 499.823247,686.169429 C496.092128,685.808632 492.36101,685.447834 488.75025,685.087037 C478.640122,684.12491 468.168918,683.403315 458.05879,682.561454 C422.432625,679.915606 385.602873,677.029226 351.782088,667.407959 C303.157187,653.457123 264.160979,629.043159 236.11741,594.647131 C235.034182,593.444473 234.071313,592.121548 233.108444,590.91889 C203.620571,553.275685 188.575737,508.536795 173.89198,465.241095 C170.28122,454.417171 166.429743,443.232448 162.578266,432.528789 C145.728052,386.34671 127.192818,351.349352 102.278574,319.358641 C93.973826,308.654982 84.7062087,298.31212 75.7996675,288.330056 C47.154305,256.339345 20.0736052,226.032355 21.7586265,183.698782 C22.4807785,165.779173 29.2208638,147.739298 41.4974477,131.623677 C53.7740316,115.147258 70.3835275,102.519345 89.4001967,94.9425981 C101.556422,90.2522306 115.397669,87.9671798 133.090392,87.9671798 C165.346515,88.0874456 197.602637,94.1007372 227.571945,100.595092 C268.975326,109.61503 313.267315,119.356562 356.115,129.819689 C384.278928,136.674842 416.775768,144.973184 446.624717,156.879502 C488.268815,173.716718 520.645296,192.117391 548.568507,214.727367 C580.343195,240.464255 605.618514,271.613106 625.718412,309.617109 L625.718412,309.617109 C642.929701,336.075592 636.069257,369.148696 629.329172,401.259673 C627.162716,411.482268 624.99626,422.065662 623.672314,432.047726 C619.700478,461.993918 623.431597,492.180642 627.162716,521.525505 C631.25491,553.877014 635.467463,587.310915 628.968096,619.78269 C626.079488,633.974058 616.330436,668.24982 586.722204,681.719594 C572.880957,687.612619 558.437917,689.536873 543.633801,689.536873 Z M132.970034,88.6887748 C115.397669,88.6887748 101.676781,90.8535598 89.640914,95.5439272 C70.7446035,103.120675 54.3758249,115.628321 42.099241,131.984474 C29.9430158,147.97983 23.2029305,165.899439 22.4807785,183.578516 C20.7957572,225.551292 47.7560983,255.738016 76.4014608,287.608461 C85.3080021,297.590525 94.5756193,307.933387 102.880367,318.637046 C127.794611,350.868289 146.450204,385.865646 163.300417,432.167992 C167.272253,442.871651 171.003372,454.176639 174.614132,465.000564 C189.177531,508.175998 204.342723,552.914887 233.710237,590.437827 C234.673106,591.640485 235.635976,592.963409 236.719204,594.166068 C264.762773,628.321564 303.518263,652.735528 352.022805,666.566099 C385.843591,676.307631 422.552984,679.073745 458.179149,681.719594 C468.289277,682.441188 478.640122,683.283049 488.870609,684.245176 C492.601727,684.605973 496.332846,684.966771 499.943606,685.327568 C501.989703,685.5681 504.0358,685.808632 505.961539,685.928898 C533.162598,688.815278 561.206167,691.821923 586.000052,680.757467 C615.247208,667.528225 624.875901,633.492995 627.764509,619.542158 C634.263877,587.190649 630.051324,553.877014 625.959129,521.645771 C622.22801,492.300908 618.376533,461.993918 622.468728,431.92746 C623.792673,421.82513 626.079488,411.241737 628.245944,401.019141 C634.986029,369.148696 641.846473,336.195858 624.755542,310.098172 L625.116618,309.85764 L624.755542,309.977906 C604.655645,271.973903 579.500684,241.065584 547.846355,215.328696 C520.043503,192.838986 487.667022,174.438313 446.143282,157.601097 C416.414692,145.694779 383.917852,137.396437 355.753924,130.541284 C312.906239,120.078157 268.734609,110.336625 227.331228,101.316687 C197.36192,94.8223322 165.226156,88.6887748 132.970034,88.6887748 Z M596.832332,680.877733 C628.60702,666.566099 638.717147,629.403956 641.605755,614.130196 C648.225482,579.37337 643.170418,543.654418 638.356071,509.138124 C633.902801,477.387945 629.329172,444.675638 633.541725,412.324129 C634.986029,401.379939 637.393202,389.834419 639.680017,378.769962 C646.781178,344.614466 654.243415,309.256311 635.587822,281.234372 L634.745311,281.715436 C653.160187,309.376577 645.818309,344.614466 638.717147,378.649696 C636.430333,389.714153 634.023159,401.259673 632.578856,412.324129 C628.366302,444.795904 632.939932,477.628476 637.393202,509.378656 C642.207549,543.774684 647.262613,579.493636 640.642886,614.00993 C637.754278,629.163425 627.764509,665.844504 596.350897,680.035872 C571.557012,691.220594 543.513443,687.973417 516.312384,684.846505 C514.02557,684.605973 511.618396,684.365442 509.331582,684.004644 C505.600463,683.523581 501.748986,683.162783 498.138226,682.801986 C486.102359,681.599328 473.705417,680.757467 461.789909,679.79534 C427.608048,677.269758 392.342959,674.623909 359.485043,666.085035 C308.091892,652.855794 267.651381,628.802627 239.367094,594.647131 C238.283866,593.324207 237.320997,592.121548 236.237769,590.798624 C205.064875,551.351431 191.103269,502.884301 177.743457,456.100892 C174.854849,446.118828 171.845883,435.775967 168.836916,425.793903 C157.64356,389.23309 141.876575,346.538719 110.944398,306.249665 C101.436063,293.98255 90.6037833,282.316765 80.0122208,271.011776 C50.6447063,239.622394 22.8418545,209.916734 23.8047238,167.943958 C24.1657998,149.42302 31.1466024,131.022348 43.904621,114.78646 C56.7829983,98.1897755 73.9942875,85.4415973 93.7331087,77.9851157 C105.889334,73.4150141 120.091656,71.2502291 136.94187,71.0096975 C168.957275,70.7691658 200.97268,76.5419257 230.941988,82.795749 C238.765301,84.4794707 246.468256,86.0429265 254.17121,87.6063823 C290.519527,95.1831297 324.821747,102.278814 359.364684,110.216359 C393.907621,118.033638 422.552984,125.369854 449.994759,135.592449 C537.254792,168.665553 594.184441,213.524709 634.745311,281.715436 L635.467463,281.234372 C594.786234,212.923379 537.615868,167.823692 450.115118,134.99112 C422.673342,124.768524 394.02798,117.432309 359.485043,109.61503 C325.062464,101.677485 290.639886,94.5818006 254.291569,87.0050531 C246.588614,85.4415973 238.765301,83.7578757 231.062346,82.1944199 C201.093039,75.9405966 168.957275,70.0475708 136.94187,70.2881025 C119.971298,70.4083683 105.648617,72.6934191 93.3720327,77.2635207 C73.5128528,84.7200023 56.1812049,97.5884464 43.182469,114.425663 C30.3040918,130.902082 23.2029305,149.543286 22.8418545,168.18449 C21.8789852,210.518063 49.681837,240.223723 79.2900688,271.853637 C89.8816314,283.158626 100.713911,294.704145 110.101887,306.97126 C127.433535,329.460971 147.894508,361.211151 167.874047,426.1547 C171.003372,436.136764 173.89198,446.479626 176.780588,456.46169 C190.260759,503.365364 204.222364,551.832495 235.515617,591.399953 C236.478486,592.722878 237.561714,593.925536 238.644942,595.24846 C267.049587,629.524222 307.610458,653.697655 359.244325,666.926896 C392.2226,675.46577 427.487689,678.111619 461.66955,680.637201 C473.585058,681.479062 485.982001,682.441188 498.017867,683.643847 C501.748986,684.004644 505.480104,684.365442 509.211223,684.846505 C511.498038,685.087037 513.784852,685.327568 516.192026,685.688366 C529.070403,687.131556 542.189497,688.695012 555.067875,688.695012 C569.510915,688.695012 583.592879,686.770758 596.832332,680.877733 Z M566.501948,687.732885 C553.262495,687.732885 539.902683,686.049163 526.66323,684.485708 C524.015339,684.12491 521.367448,683.884378 518.839916,683.523581 L514.386646,683.042518 C512.099831,682.801986 509.813016,682.561454 507.526202,682.320923 C493.444238,680.877733 479.121557,679.915606 465.28031,678.833214 C432.542753,676.427897 398.721968,674.02258 366.94728,666.686364 C312.545163,654.058452 270.299271,630.366083 241.413192,595.970055 C240.329964,594.647131 239.246736,593.324207 238.163508,592.001283 C205.185233,550.509571 192.547573,498.434465 180.391348,448.043081 C178.104533,438.782612 175.817719,429.161346 173.410545,419.900877 C155.236387,349.184567 135.256848,316.953324 118.165918,294.704145 C107.694714,281.114106 95.2977713,268.365928 83.2619047,256.098813 C52.6908036,224.829697 23.8047238,195.244302 24.2802239,152.910729 C24.4065171,133.668196 31.6280371,114.545929 45.2285663,97.4681805 C58.9494542,80.2701665 77.1236128,67.2814567 97.8253033,59.9452409 C110.342605,55.4954051 124.544927,53.2103543 141.274782,52.8495568 C173.049469,52.2482276 205.185233,57.9007217 235.154541,63.9140134 C250.680809,67.040925 266.327435,70.0475708 281.492627,73.0542166 C308.573327,78.3459132 336.616896,83.8781415 363.577237,89.6509015 C393.185469,95.9047247 424.599081,103.120675 454.44803,113.34327 C542.791291,143.890792 601.887396,186.94596 645.938667,252.851636 L646.059026,252.851636 C666.158923,282.557296 658.215251,320.080236 650.632655,356.400517 C648.105123,368.427101 645.577591,380.814481 644.012929,392.720799 C639.559658,427.477624 644.975798,462.715513 650.151221,496.871009 C655.687719,533.672354 661.464935,571.556091 654.965567,608.718233 C652.076959,625.074387 641.605755,664.882377 607.664612,680.276404 C594.425158,685.808632 580.583912,687.732885 566.501948,687.732885 Z M145.487335,53.5711518 C143.922672,53.5711518 142.478368,53.5711518 140.913706,53.5711518 C124.30421,53.9319493 110.222246,56.2170001 97.8253033,60.5465701 C77.2439714,67.8827858 59.3105302,80.7512299 45.710001,97.828978 C32.2298304,114.666195 25.1286691,133.668196 25.0049468,152.670198 C24.6472345,194.763239 53.4129556,224.108102 83.7433394,255.256952 C95.779206,267.644333 108.296507,280.392511 118.767711,293.98255 C149.338812,333.670275 164.022569,379.732089 174.253056,419.540079 C176.660229,428.920814 178.947044,438.421815 181.233859,447.80255 C193.390084,498.073668 206.027744,550.148773 238.88566,591.399953 C239.968888,592.722878 241.052116,594.045802 242.135344,595.24846 C270.901065,629.403956 312.906239,653.096325 367.187997,665.603972 C398.962685,672.940188 432.78347,675.345504 465.400669,677.750821 C479.241915,678.712948 493.684955,679.79534 507.64656,681.23853 C509.933375,681.479062 512.22019,681.719594 514.507004,681.960125 L518.960275,682.441188 C521.608166,682.801986 524.256056,683.042518 526.783588,683.403315 C553.984647,686.770758 582.148575,690.258468 606.94246,679.073745 C640.522527,663.92025 650.753014,624.473057 653.641622,608.23717 C660.261349,571.31556 654.484133,533.431822 648.827275,496.750744 C643.651853,462.595247 638.235713,427.237093 642.688983,392.360001 C644.253646,380.453684 646.781178,368.066303 649.30871,356.03972 C656.891306,319.95997 664.594261,282.677562 644.855439,253.332699 L644.735081,253.332699 C600.804168,187.547289 541.828421,144.492121 453.605519,114.064865 C423.75657,103.84227 392.342959,96.6263197 362.855085,90.3724964 C335.894744,84.5997365 307.851175,79.187774 280.890834,73.7758116 C265.725642,70.7691658 250.079016,67.76252 234.552748,64.6356083 C206.148103,58.9831142 175.69736,53.5711518 145.487335,53.5711518 Z M617.77474,679.434543 C642.809342,668.129554 661.464935,639.506286 667.482869,603.065739 C674.102595,563.618546 667.603227,523.329492 661.224218,484.363363 C655.326643,447.922816 649.188351,410.159344 653.761981,372.997202 C655.326643,360.249024 658.094893,346.899517 660.742783,334.031073 C668.686455,295.546006 676.991203,255.858282 655.567361,224.589165 L654.845209,225.070229 C676.028334,256.098813 667.843945,295.666272 659.900273,333.910807 C657.252382,346.899517 654.484133,360.249024 652.799111,372.997202 C648.225482,410.27961 654.363774,448.043081 660.261349,484.603894 C666.519999,523.449758 673.139726,563.738812 666.519999,602.945473 C660.502066,639.145489 642.08719,667.407959 617.293305,678.592682 C592.49942,689.777404 564.215133,686.169429 536.893716,682.561454 C534.005108,682.200657 531.1165,681.839859 528.227892,681.479062 C524.737491,680.997999 521.006372,680.637201 516.793819,680.156138 C500.304682,678.35215 483.454469,677.269758 467.206049,676.067099 C436.39423,673.902314 404.619542,671.617264 374.289159,665.483706 C317.239151,653.81792 273.548955,630.366083 244.3018,596.090321 C243.33893,594.887663 242.255702,593.564738 241.052116,592.121548 C206.629537,549.186646 195.55654,493.623832 184.844619,439.865005 C183.159597,431.205865 181.354217,422.185928 179.428479,413.406522 C169.799785,368.306835 156.680691,321.162628 126.350307,281.835701 C114.916234,267.043004 100.954629,253.332699 87.474458,240.103458 C55.9404876,209.074873 26.0915385,179.850276 25.8508211,137.516703 C25.7304625,117.793106 33.0723411,98.1897755 47.154305,80.9917615 C61.4769862,63.5532159 80.2529381,50.564506 101.676781,43.2282902 C114.434799,39.0189861 128.516763,36.6136694 144.644824,36.1326061 C175.817719,35.1704795 207.953483,40.5824419 238.043149,46.4754677 C258.504122,50.4442401 279.205813,54.1724809 299.064993,57.7804559 C321.210987,61.8694942 344.199492,65.9585325 366.345487,70.4083683 C394.148339,75.8203307 426.645178,82.6754832 457.336638,92.4170156 C546.402051,120.55922 607.303536,161.449603 654.72485,225.070229 L655.447002,224.589165 C607.905329,160.848274 546.883485,119.837625 457.577355,91.5751548 C426.765537,81.9538882 394.268697,74.9784699 366.465845,69.5665075 C344.319851,65.2369375 321.331346,61.0276334 299.185351,56.9385951 C279.205813,53.3306201 258.624481,49.4821135 238.163508,45.6336069 C207.953483,39.7405811 175.817719,34.4488845 144.524466,35.2907453 C128.276046,35.7718086 114.073723,38.0568594 101.315705,42.3864294 C80.0122208,49.6023793 61.1159102,62.8316209 46.6728703,80.3904324 C32.4705478,97.7087122 25.0083105,117.432309 25.1272359,137.396437 C25.3693865,180.090807 55.2183356,209.555936 86.9930234,240.584521 C100.473194,253.813762 114.434799,267.524067 125.868872,282.316765 C143.681955,305.52807 162.457907,337.398516 178.706327,413.526788 C180.632065,422.306193 182.317087,431.326131 184.122467,439.985271 C194.834388,493.744098 206.027744,549.427178 240.570681,592.602612 C241.774268,594.045802 242.857496,595.368726 243.820365,596.571384 C273.187879,631.087678 316.998434,654.539515 374.289159,666.325567 C404.619542,672.57939 436.514589,674.744175 467.326407,676.90896 C483.574827,678.111619 500.42504,679.194011 516.793819,680.997999 C521.126731,681.479062 524.85785,681.839859 528.227892,682.320923 C531.1165,682.68172 534.005108,683.042518 536.893716,683.403315 C550.494245,685.207303 564.215133,687.016551 577.815663,687.016551 C591.656909,687.131556 605.13708,685.207303 617.77474,679.434543 Z M628.245944,678.833214 C654.845209,666.80663 674.343313,636.499641 680.481604,597.653777 C687.101331,555.921533 679.759453,513.347428 672.77865,472.096248 C666.158923,433.250384 659.298479,393.081596 663.992467,353.514137 C665.677489,339.924098 668.566097,325.612464 671.454705,311.781894 C679.879811,271.252308 688.545635,229.279533 665.797847,196.326695 L665.075695,196.807758 C687.582766,229.399798 678.916942,271.132042 670.612194,311.541362 C667.723586,325.371933 664.834978,339.683567 663.149957,353.273606 C658.33561,392.96133 665.316413,433.250384 671.936139,472.096248 C679.037301,513.227163 686.25882,555.801267 679.639094,597.413245 C673.500802,635.898311 654.243415,666.085035 627.884868,677.991353 C602.970624,689.296341 574.686337,685.327568 547.244561,681.479062 C544.115236,680.997999 540.985911,680.637201 537.856586,680.156138 C534.005108,679.675074 530.153631,679.194011 526.302154,678.712948 C507.766919,676.668429 488.870609,675.46577 470.576091,674.263112 C441.328936,672.338859 410.998552,670.294339 381.871755,665.002643 C322.053498,654.178718 276.678281,631.207944 246.94969,596.571384 C245.866462,595.24846 244.662876,593.925536 243.579648,592.482346 C207.712765,547.983988 198.204431,489.05373 188.936813,432.047726 C187.612868,423.869649 186.168564,415.330775 184.844619,406.912167 C177.141664,362.053011 166.189025,310.819767 134.293979,269.328055 C122.017395,253.332699 106.611486,238.780533 91.5666527,224.709431 C58.8290956,193.801112 27.7765598,164.576515 27.0544078,121.882144 C26.6933318,101.557219 34.2759277,81.4728249 48.959685,63.6734817 C64.0045182,45.8741385 83.6229807,32.644897 105.768975,25.5492129 C119.73058,21.2196429 134.053262,18.9345921 148.61666,18.4535288 C180.270989,17.1306046 213.369622,22.6628329 241.774268,27.9545295 C264.883131,32.2840995 288.112354,36.1326061 310.619424,39.8608469 C330.237887,43.1080244 350.458143,46.4754677 369.956247,50.0834426 C395.472284,54.6535443 428.811634,61.1478992 461.188115,70.4083683 C551.336756,96.2655222 614.043621,135.111386 664.834978,196.567226 L665.55713,195.965897 C614.645414,134.389791 551.697832,95.4236614 461.428833,69.5665075 C429.052352,60.3060384 395.592643,53.8116834 370.076605,49.2415818 C350.458143,45.6336069 330.237887,42.2661636 310.619424,39.0189861 C288.112354,35.2907453 264.883131,31.3219728 241.774268,27.1126687 C213.249264,21.8209721 180.150631,16.2887438 148.375943,17.6116679 C133.812544,18.0927313 119.249146,20.4980479 105.287541,24.707352 C82.9008287,31.923302 63.1620075,45.1525435 47.9968156,63.0721525 C33.0723411,80.9917615 25.4897451,101.316687 25.8508211,121.882144 C26.5729731,165.057578 57.7458676,194.282175 90.6037833,225.31076 C105.528258,239.381863 120.934167,253.934028 133.210751,269.809118 C161.856114,306.97126 174.012339,351.589884 183.520673,407.032433 C184.964977,415.330775 186.288923,423.869649 187.612868,432.167992 C196.880485,489.294262 206.38882,548.344786 242.376061,592.963409 C243.459289,594.406599 244.662876,595.729523 245.746104,597.052448 C275.595053,631.809273 321.210987,654.900313 381.149603,665.724238 C410.2764,671.015934 440.606784,673.060454 469.853939,674.984707 C488.148457,676.187365 507.044767,677.510289 525.580002,679.434543 C529.431479,679.915606 533.403315,680.396669 537.134434,680.877733 C540.263759,681.23853 543.393084,681.719594 546.522409,682.200657 C560.484015,684.12491 574.565979,686.049163 588.407225,686.049163 C602.609548,686.289695 615.849001,684.365442 628.245944,678.833214 Z M600.082016,685.5681 C585.879693,685.5681 571.436653,683.403315 557.234331,681.358796 C553.864288,680.877733 550.494245,680.396669 547.124203,679.915606 C522.450676,676.548163 497.054998,674.984707 472.622189,673.421251 C445.180413,671.737529 416.775768,670.053808 389.093275,665.603972 C326.38641,655.742174 279.205813,632.891666 248.75507,597.894308 C208.314559,551.351431 200.250528,487.129477 192.306856,424.952042 C184.844619,365.540721 177.021305,304.205146 141.274782,257.782535 C128.276046,240.825053 111.305474,225.551292 95.057054,210.638329 C60.8751929,179.609744 28.6190705,150.264881 27.2951251,106.72865 C26.6933318,84.8402682 34.9980797,63.43295 51.487217,44.6714802 C66.6524088,27.4734662 87.3540994,14.2442246 109.740811,7.50933804 C152.949572,-5.59963767 198.806224,0.774451435 245.866462,9.07279386 C271.021423,13.5226297 296.417102,17.3711363 320.849911,21.0993771 C452.763009,41.1837711 577.213869,60.1857726 675.907975,167.943958 L675.667258,168.18449 L676.028334,167.943958 C700.220426,202.460252 691.073167,246.718078 682.166626,289.412449 C679.157659,304.08488 676.028334,319.358641 674.222954,333.790541 C669.288249,375.763316 676.870845,418.457687 684.333082,459.708867 C692.156395,503.124833 700.220426,547.983988 693.48034,592.121548 C687.22169,633.372729 666.760717,665.483706 638.717147,678.111619 C626.440564,683.643847 613.441828,685.5681 600.082016,685.5681 Z M164.624363,0.894717267 C146.089128,0.894717267 127.794611,2.93923641 109.981529,8.35119887 C87.7151754,15.0860855 67.2542022,28.1950612 52.209369,45.2728094 C35.8405904,63.7937475 27.6562011,85.0807998 28.2579945,106.72865 C29.5819398,149.904083 61.7177036,179.128681 95.779206,210.037 C112.147985,224.949963 129.118556,240.223723 142.117292,257.301472 C177.984175,303.964614 185.807488,365.420455 193.269725,424.952042 C201.093039,487.009211 209.277428,551.1109 249.477222,597.413245 C279.807606,632.290336 326.747486,654.900313 389.213633,664.762111 C416.775768,669.091681 445.180413,670.895669 472.622189,672.57939 C497.175356,674.02258 522.450676,675.586036 547.244561,679.073745 C550.614604,679.554809 553.984647,680.035872 557.354689,680.516935 C584.796465,684.485708 613.20111,688.695012 638.235713,677.390024 C666.038565,664.882377 686.25882,633.011931 692.517471,592.001283 C699.137198,548.104254 691.073167,503.245098 683.370212,459.949399 C675.907975,418.577953 668.325379,375.883582 673.260085,333.790541 C674.945106,319.238375 678.074431,304.08488 681.203756,289.292183 C689.989939,246.718078 699.137198,202.82105 675.185823,168.545287 L675.185823,168.545287 C576.732435,60.9073675 452.401933,42.0256319 320.729552,21.9412379 C296.296743,18.2129971 270.901065,14.3644905 245.746104,9.91465468 C218.183969,5.1040214 190.982911,0.894717267 164.624363,0.894717267 Z" id="Shape"></path>
                </g>
            </g>
        </g>
    </g>
</svg>