<?xml version="1.0" encoding="UTF-8"?>
<svg width="329px" height="331px" viewBox="0 0 329 331" version="1.1" xmlns="http://www.w3.org/2000/svg" xmlns:xlink="http://www.w3.org/1999/xlink">
    <title>Shape</title>
    <g id="Ok" stroke="none" stroke-width="1" fill="none" fill-rule="evenodd" opacity="0.7">
        <g id="Homepage" transform="translate(0.000000, -976.000000)" fill="#C5C9F0" fill-rule="nonzero">
            <g id="Sourcing" transform="translate(150.000000, 1134.000000)">
                <g id="Bg">
                    <g id="Shape" transform="translate(-150.000000, -158.000000)">
                        <path d="M191.37791,331 C188.476332,331 185.460967,330.943131 182.445602,330.829394 C162.817283,330.317577 142.449346,328.838995 127.429414,317.351546 C117.871276,310.072371 111.612971,299.551688 105.525348,289.315347 C102.965132,284.993337 100.291129,280.500721 97.3895513,276.349316 C85.2711976,258.947537 68.5444557,245.41282 49.0299236,237.16688 C45.7869839,235.802034 42.3164694,234.550926 38.9597423,233.299818 C27.2396443,228.977807 15.1781842,224.54206 7.55443113,214.817536 C-6.83966982,196.392124 2.3202126,169.379559 10.4560088,150.669803 C13.2437991,144.357393 15.917802,138.841143 20.9244459,135.485898 C27.0120696,131.391362 34.8065037,131.618836 42.3164694,132.471865 C79.9231917,136.680138 115.254167,151.352226 149.390375,165.512497 C163.727582,171.483695 178.519939,177.6255 191.036548,187.122549 C227.846759,215.045011 243.435627,246.891403 243.151159,293.637358 L243.151159,293.637358 C245.426906,307.627023 234.617107,320.308711 222.669434,325.654356 C213.111296,330.033235 202.699752,331 191.37791,331 Z M34.6927163,132.414996 C29.7998599,132.414996 25.1345782,133.211156 21.2089143,135.883978 C16.2591641,139.182355 13.5851612,144.641736 10.8542646,150.897277 C-6.10005199,189.738502 1.01165797,205.889173 7.89579321,214.590062 C15.4057589,224.200848 27.467219,228.636596 39.0735297,232.958606 C42.4302568,234.209715 45.8438776,235.460823 49.143711,236.825668 C68.7720305,245.071609 85.555666,258.663194 97.7309134,276.121842 C100.632491,280.330115 103.306494,284.765863 105.86671,289.144741 C111.89744,299.267345 118.155744,309.788028 127.656989,317.010335 C142.563133,328.384046 162.93107,329.862629 182.445602,330.431314 C197.294853,330.829394 210.55108,330.715657 222.555647,325.370013 C234.332638,320.081237 245.085544,307.513286 242.752903,293.751095 L242.86669,293.751095 L242.752903,293.751095 C243.037371,247.175746 227.505397,215.386222 190.808973,187.577497 C178.349258,178.137317 163.556901,171.938644 149.219694,165.967445 C115.083486,151.807174 79.8094043,137.135086 42.2595757,132.926813 C39.7562538,132.64247 37.1960382,132.414996 34.6927163,132.414996 Z M198.034471,330.431314 C195.815617,330.431314 193.653657,330.374446 191.548591,330.317577 C189.955568,330.260709 188.419439,330.20384 186.826416,330.20384 C166.117116,329.521417 146.261222,327.985966 130.899929,317.18094 C119.976342,309.503685 112.637057,298.129974 105.468454,287.097473 C103.534069,284.140308 101.54279,281.012538 99.4946175,278.055373 L98.5274249,276.633659 C85.555666,258.151377 69.3409673,243.47929 51.5332455,234.209715 C48.2334121,232.446789 44.706004,230.85447 41.2923832,229.26215 C30.311903,224.14398 18.9331671,218.855204 11.2525203,209.016943 C1.29612637,196.278387 -0.865833459,179.559031 4.88042819,159.370693 C6.5303449,153.626968 8.69230473,148.05385 11.309414,142.651337 C13.9265233,137.135086 17.2263567,130.879545 22.9157246,127.296826 C29.1740294,123.316027 37.1960382,123.543501 44.2508545,124.282792 C58.4173808,125.761375 73.4373122,128.889146 90.164054,133.893579 C111.612971,140.319726 132.663633,148.736272 151.210972,156.186053 C165.491286,161.872909 180.226749,167.787239 192.970933,176.999945 C230.1794,203.955642 246.621673,234.835269 248.044015,280.386984 C249.693932,285.789497 248.328484,291.646958 246.678567,297.220077 C244.40282,304.840463 241.501242,312.745193 235.925661,319.17134 C233.706808,321.844162 230.975911,324.005167 227.789865,325.540618 C218.345514,329.635155 207.820184,330.431314 198.034471,330.431314 Z M37.1391446,124.225924 C32.1893944,124.225924 27.2396443,124.965215 23.1432994,127.638037 C17.5677188,131.220756 14.324779,137.362561 11.7076697,142.821942 C9.14745416,148.167587 6.98549434,153.740705 5.33557763,159.48443 C-0.353790342,179.559031 1.75127581,196.164649 11.6507761,208.789469 C19.2745291,218.570861 30.5963714,223.802769 41.5199579,228.920939 C44.9335787,230.513258 48.4609868,232.162447 51.7608202,233.868503 C69.6254357,243.194947 85.9539217,257.923903 98.9256807,276.406185 L99.8928732,277.827898 C101.941046,280.785063 103.932324,283.912834 105.86671,286.869999 C112.97842,297.845631 120.374598,309.219342 131.184397,316.839729 C146.488797,327.587887 166.230904,329.066469 186.883309,329.80576 C188.419439,329.862629 190.012462,329.919497 191.548591,329.919497 C202.984221,330.20384 216.126661,330.146972 227.505397,325.028801 C230.577655,323.550219 233.308552,321.446082 235.470512,318.77326 C240.989199,312.403982 243.890776,304.556121 246.166524,296.992602 C247.81644,291.533221 249.124995,285.732628 247.531972,280.386984 L247.531972,280.330115 C246.10963,234.949006 229.72425,204.126248 192.629571,177.284288 C179.999174,168.12845 165.263711,162.21412 150.983398,156.527265 C132.436058,149.134352 111.385397,140.717806 89.993373,134.291659 C73.3235248,129.287225 58.3035934,126.159455 44.1939608,124.680872 C41.9182137,124.396529 39.5286791,124.225924 37.1391446,124.225924 Z M204.463456,329.919497 C201.618772,329.919497 198.830982,329.862629 196.043192,329.748892 C194.450169,329.692023 192.857146,329.635155 191.321016,329.578286 C169.530737,328.725258 150.186886,327.189807 134.541124,317.010335 C121.853834,308.821262 113.490463,296.70826 104.671942,283.912834 C103.420281,282.09304 102.111727,280.216378 100.860066,278.396584 L99.8359796,276.918002 C85.555666,256.843401 70.1943725,241.432021 54.1503548,231.25255 C50.736734,229.091544 47.0955385,226.987408 43.5681304,224.997008 C33.327268,219.139547 22.7450436,213.11148 15.0643968,203.216351 C4.02702299,189.05608 0.727189572,171.369958 5.50625866,152.091517 C7.04238802,146.006581 9.3181352,140.14912 12.2197129,134.576001 C15.1212905,128.946014 18.8762734,122.690473 24.9070034,119.050885 C31.2790956,115.183823 39.2442107,115.354429 46.1852396,115.979983 C60.0672975,117.28796 75.0303352,120.301993 91.9277581,125.249558 C112.409483,131.277625 132.492952,138.784275 152.917783,146.689004 C166.458478,151.864043 181.819772,157.778373 194.791531,166.706736 C232.34136,192.638799 249.693932,222.608529 252.823084,266.909135 C255.269512,273.164677 253.448915,280.102641 251.742104,286.813131 L251.457636,287.836765 C250.945593,289.884033 250.490443,291.931301 250.035294,293.9217 C248.157802,301.997036 246.450992,309.617422 242.013285,316.498518 C239.396176,320.593054 236.153236,323.550219 232.682722,325.142539 C223.864201,329.066469 214.078488,329.919497 204.463456,329.919497 Z M39.4717854,116.036851 C34.4651416,116.036851 29.4016041,116.776143 25.0776845,119.392096 C19.1038481,122.974816 15.4057589,129.173488 12.5610749,134.746607 C9.65949728,140.262857 7.44064377,146.120319 5.90451442,152.148386 C1.12544533,171.31309 4.36838507,188.885474 15.3488652,202.932008 C23.029512,212.770268 33.5548427,218.798335 43.7388114,224.598928 C47.2662195,226.589328 50.907415,228.693464 54.3210358,230.85447 C70.3650535,241.09081 85.7832407,256.502189 100.120448,276.633659 L101.144534,278.112241 C102.453089,279.932035 103.70475,281.808697 105.013304,283.628491 C113.831825,296.423917 122.195196,308.480051 134.768699,316.612255 C150.357567,326.67799 169.644525,328.213441 191.37791,329.066469 C192.970933,329.123338 194.507063,329.180206 196.100086,329.237075 C208.332227,329.692023 221.247092,329.692023 232.512041,324.630722 C235.925661,323.09527 239.111707,320.138105 241.671923,316.157306 C246.052736,309.333079 247.759547,301.769561 249.637038,293.751095 C250.092188,291.760695 250.547337,289.713427 251.05938,287.666159 L251.343849,286.642525 C253.050659,279.988904 254.814363,273.107808 252.424828,266.966004 L252.595509,266.909135 L252.424828,266.909135 C249.35257,222.722266 232.056891,192.809405 194.563956,166.991079 C181.649091,158.062716 166.287797,152.205254 152.803995,147.030215 C132.379164,139.182355 112.295695,131.618836 91.8139707,125.590769 C74.9734415,120.643205 60.0104038,117.629171 46.128346,116.321194 C43.9094924,116.207457 41.6906389,116.036851 39.4717854,116.036851 Z M210.835549,329.464549 C207.421928,329.464549 203.951413,329.350812 200.480899,329.180206 L195.644936,328.952732 C176.642447,328.042835 155.136636,327.07607 137.954745,316.839729 C122.87792,307.911366 112.807739,293.9217 102.16862,279.079007 L101.884152,278.680927 C101.54279,278.16911 101.144534,277.657293 100.803172,277.202344 C88.9123931,260.653594 74.3476111,241.943838 56.4829957,228.295385 C52.8986938,225.565694 49.0868173,222.94974 45.3887281,220.390655 C35.9443773,213.907639 26.2155581,207.254018 18.591805,197.415758 C6.07519546,181.265087 1.80816949,163.578966 5.90451442,144.812342 C7.32685641,138.386195 9.71639096,132.24439 12.902437,126.500666 C15.747121,121.21189 19.9572533,114.615138 26.6707075,110.748076 C33.2134807,106.994751 41.4061705,107.108488 47.8351563,107.677173 C61.6603205,108.814545 76.1682088,111.657973 93.4638874,116.548668 C114.173187,122.40613 134.142868,129.628437 154.453912,137.135086 C167.937714,142.082651 183.242114,147.712638 196.441448,156.356659 C234.389532,181.321956 252.652403,210.381789 257.431472,253.488156 C260.446837,260.198646 258.62624,267.875901 256.862535,275.325682 C256.634961,276.406185 256.350492,277.486687 256.122918,278.510321 C255.212619,282.604857 254.643682,286.642525 254.074745,290.623324 C252.879978,298.812396 251.742104,306.54652 248.044015,313.825696 C246.166524,317.522152 242.86669,322.355979 237.518684,324.801327 C229.269101,328.497783 220.223006,329.464549 210.835549,329.464549 Z M41.9182137,107.847779 C36.9115698,107.847779 31.5066703,108.530202 27.0120696,111.146156 C20.3555091,115.013217 16.2022704,121.496233 13.3575865,126.72814 C10.1715404,132.414996 7.83889953,138.5568 6.41655754,144.926079 C2.37710628,163.578966 6.58723858,181.15135 19.0469544,197.131415 C26.6707075,206.912807 36.3995267,213.566428 45.7869839,219.992575 C49.4850731,222.55166 53.2969496,225.167614 56.8812514,227.897305 C74.7458668,241.602627 89.3675425,260.369251 101.258322,276.918002 C101.599684,277.429819 101.997939,277.884767 102.339301,278.396584 L102.62377,278.794664 C113.205994,293.580489 123.219282,307.513286 138.239213,316.441649 C155.364211,326.564252 176.813128,327.587887 195.70183,328.440915 L200.480899,328.668389 C213.509552,329.237075 226.139948,329.350812 237.348003,324.28951 C242.582222,321.957899 245.825162,317.124072 247.702653,313.541353 C251.400742,306.319046 252.538616,298.584922 253.676489,290.452718 C254.245426,286.528788 254.814363,282.434252 255.724662,278.339715 C255.952237,277.259213 256.236705,276.235579 256.46428,275.155076 C258.227984,267.762164 260.048582,260.141777 257.033216,253.545024 L257.203898,253.488156 L257.033216,253.488156 C252.311041,210.495526 234.105064,181.54943 196.270767,156.641002 C183.18522,148.05385 167.88082,142.423862 154.397018,137.476298 C134.085975,129.969648 114.116293,122.747341 93.4069938,116.88988 C76.1682088,111.999184 61.6603205,109.155756 47.8351563,108.018385 C46.0145586,107.961516 44.0232798,107.847779 41.9182137,107.847779 Z M242.582222,324.516984 C248.840527,321.673557 252.424828,315.759227 254.30232,311.26661 C257.715941,303.191275 258.398665,294.774729 259.081389,285.903234 C259.479645,280.500721 259.934794,274.870733 261.072668,269.297615 C261.41403,267.705295 261.755392,265.999238 262.153648,264.406919 C264.031139,256.104109 266.022418,247.460089 262.324329,240.180913 L261.926073,240.351519 C265.510375,247.516957 263.57599,256.047241 261.698498,264.293182 C261.357136,265.94237 260.95888,267.591558 260.617518,269.183878 C259.479645,274.813865 259.081389,280.443852 258.62624,285.846365 C257.943515,294.71786 257.260791,303.02067 253.84717,311.096005 C251.969679,315.531752 248.442271,321.332345 242.354647,324.118905 C230.350081,329.521417 216.297342,328.782126 204.9755,328.213441 C203.837626,328.156572 202.699752,328.099704 201.561879,328.042835 L200.082643,327.985966 C179.885387,326.905464 158.948513,325.824961 141.709728,316.441649 C133.061888,311.721559 122.308983,304.556121 103.477175,278.851532 L99.4946175,273.392151 C86.4090712,255.421687 74.006249,238.417988 59.3845733,225.053877 C55.5726968,221.584895 51.4763518,218.22965 47.4937943,214.988142 C38.9597423,208.050178 30.141222,200.941608 22.7450436,191.387691 C8.52162369,173.076015 3.51497988,156.015448 6.92860066,137.703772 C8.23715529,130.993282 10.6835835,124.624004 14.154098,118.766542 C18.4780176,111.146156 23.2570867,105.971117 28.889561,102.900215 C35.4323342,99.3174955 43.5112367,99.374364 49.7695415,99.8293125 C63.3671309,100.852947 77.8181255,103.525769 95.1706978,108.359596 C116.505828,114.217058 137.784064,121.60997 156.103829,128.092986 C172.375421,133.83671 185.745436,138.784275 198.091364,146.46153 C236.380811,170.346324 255.440193,198.382523 261.869179,240.180913 L262.267435,240.124045 C255.838449,198.211918 236.722173,170.061981 198.318939,146.120319 C185.973011,138.443063 172.546102,133.43863 156.27451,127.694906 C137.954745,121.21189 116.676509,113.818978 95.3413789,107.961516 C77.9319129,103.127689 63.4809183,100.454867 49.8264351,99.4312326 C43.454343,98.9762841 35.3185468,98.862547 28.6619863,102.502135 C22.9726183,105.573037 18.1366556,110.861813 13.8127359,118.482199 C10.2853278,124.396529 7.83889953,130.822677 6.5303449,137.590035 C3.05983044,156.072316 8.12336793,173.246621 22.4036815,191.615165 C29.8567536,201.225951 38.6752739,208.391389 47.2093259,215.272485 C51.3625645,218.62773 55.2882284,221.812369 59.1001049,225.281351 C73.7217806,238.588594 86.0677091,255.535424 99.1532554,273.505888 L101.997939,277.429819 L103.135813,278.96527 C113.035313,292.499986 124.982986,307.627023 141.539047,316.669123 C158.891619,326.109304 179.828493,327.246675 200.082643,328.270309 L201.561879,328.327178 C202.699752,328.384046 203.837626,328.440915 204.9755,328.497783 C208.730482,328.668389 212.769934,328.895863 216.980066,328.895863 C225.457224,329.0096 234.446426,328.156572 242.582222,324.516984 Z M222.897009,328.554652 C218.288621,328.554652 213.737126,328.270309 209.413207,328.042835 L203.154902,327.701624 C183.128327,326.507384 162.419027,325.313144 145.066455,316.612255 C126.74669,307.399549 113.661144,291.874432 104.33058,279.36335 L103.192707,277.77103 C98.7549996,271.742963 94.43108,265.54429 90.2778414,259.62996 C80.7765969,246.095243 71.8442892,233.299818 61.6603205,222.381055 C57.4501882,217.888439 53.0693749,213.737034 48.4609868,209.358155 C40.9510211,202.249585 33.156587,194.913541 26.1586644,185.87144 C14.7230348,171.142484 3.51497988,153.001414 7.0992817,130.367728 C8.35094265,123.259158 10.9111582,116.605537 14.7230348,110.463733 C19.3883165,102.729609 24.622535,97.4408331 30.7101588,94.3130624 C37.4805066,90.7872118 45.5025155,90.7872118 51.7608202,91.1852917 C65.130835,92.0383201 79.5249359,94.6542737 97.1619766,99.374364 C118.269532,105.004351 138.921937,111.77171 158.038214,118.254725 C173.627082,123.486633 187.622927,128.434197 200.196431,135.883978 C218.971345,147.030215 232.625828,158.517664 243.208052,172.166118 C254.985044,187.350023 262.779478,205.20675 267.103398,226.816802 L267.103398,226.816802 C271.370424,234.835269 269.265358,244.389186 267.217185,253.601893 C266.762036,255.706029 266.249993,257.923903 265.851737,260.02804 C264.600076,266.966004 264.372501,273.960837 264.20182,280.671326 C263.917352,290.452718 263.689777,299.665425 260.389944,308.650657 C258.796921,312.972667 255.041938,320.76366 247.475078,324.175773 C239.737538,327.644755 231.203486,328.554652 222.897009,328.554652 Z M46.6972827,91.4127659 C41.5768516,91.4127659 35.8305899,92.0951886 30.8239461,94.6542737 C24.7932161,97.7820444 19.6158912,103.013952 14.9506095,110.691207 C11.138733,116.776143 8.63541105,123.372895 7.38375009,130.424597 C3.79944827,152.830808 14.9506095,170.91501 26.3293454,185.587098 C33.327268,194.629198 41.1217021,201.965242 48.6316679,209.073812 C53.2969496,213.452691 57.6777629,217.604096 61.8878952,222.096712 C72.1287576,233.015475 81.0610653,245.867769 90.5623098,259.402486 C94.7155484,265.373684 99.039468,271.515489 103.477175,277.543556 L104.615049,279.135875 C122.365877,302.906932 135.622104,311.437216 145.180242,316.214175 C162.475921,324.858196 183.128327,326.052435 203.154902,327.246675 L209.413207,327.587887 C221.588454,328.327178 235.356725,329.123338 247.247504,323.777693 C254.643682,320.422448 258.341771,312.745193 259.934794,308.480051 C263.177734,299.551688 263.462202,290.338981 263.689777,280.614458 C263.860458,273.847099 264.031139,266.909135 265.339694,259.914303 C265.737949,257.810166 266.193099,255.592292 266.705142,253.431287 C268.753315,244.275449 270.858381,234.7784 266.591355,226.873671 L266.818929,226.759934 L266.648248,226.816802 C262.381222,205.320487 254.586788,187.46376 242.86669,172.336724 C232.34136,158.745138 218.686876,147.25769 199.968856,136.168321 C187.395353,128.775408 173.456401,123.827844 157.867533,118.595937 C138.751256,112.112921 118.098851,105.345563 96.9912956,99.7155754 C79.4111486,94.9954851 65.0170476,92.4364 51.7039266,91.5833716 C50.1109035,91.4696345 48.4609868,91.4127659 46.6972827,91.4127659 Z M252.424828,323.834562 C260.95888,319.9675 264.884544,310.982268 266.477567,305.977835 C269.663613,295.968968 269.549826,285.846365 269.436039,275.155076 C269.322251,267.193478 269.208464,258.890669 270.630806,250.701596 C271.085955,248.085643 271.654892,245.41282 272.223829,242.796867 C274.442682,232.617395 276.71843,222.039843 271.76868,213.338954 L271.76868,213.338954 C266.591355,192.411325 258.114196,175.066414 245.825162,160.394327 C234.787788,147.25769 220.848836,136.168321 201.903241,125.590769 C189.045269,118.482199 175.163211,113.762109 159.631237,108.757676 C141.937303,103.07082 120.829747,96.4740676 98.7549996,90.7303433 C81.0610653,86.1239901 66.6669643,83.6217735 53.4676306,82.9393508 C47.8351563,82.655008 39.4717854,82.655008 32.4738628,86.0671215 C25.9310897,89.3086293 20.184828,94.8248794 15.3488652,102.445266 C11.138733,109.042019 8.40783633,116.150589 7.49753745,123.145421 C4.48217243,145.381027 16.3160578,162.725937 29.7429662,180.070848 C35.9443773,188.089314 42.3733631,195.027278 48.5747742,201.794637 C54.0365674,207.765835 59.2138923,213.338954 64.049855,219.42389 C71.4460334,228.693464 78.0457002,238.929805 85.0436228,249.791699 C91.0743529,259.118143 97.275764,268.785798 104.273687,278.112241 L105.468454,279.704561 C108.142457,283.173543 110.81646,286.471919 113.490463,289.542821 C111.271609,286.699393 108.768287,283.401017 105.809816,279.477087 L104.615049,277.884767 C97.6740197,268.558324 91.415715,258.890669 85.3849849,249.564225 C78.5008497,238.645462 71.9011828,228.352253 64.5050045,219.082678 C59.6690417,212.997743 54.4917169,207.367755 48.9730299,201.396557 C42.7716189,194.629198 36.342633,187.691234 30.141222,179.672768 C16.7712072,162.441595 4.99421555,145.096685 8.00958057,123.088553 C8.97677312,116.207457 11.6507761,109.098887 15.8040147,102.559003 C20.5830838,94.9954851 26.2724517,89.5361035 32.7583312,86.3514643 C39.6993601,82.9393508 47.9489437,82.9393508 53.5245243,83.2236936 C66.6669643,83.9061163 81.0041716,86.4083329 98.698106,91.014686 C120.772854,96.7584104 141.823515,103.355163 159.51745,109.042019 C175.049424,113.989583 188.931482,118.709674 201.73256,125.818243 C220.621262,136.395795 234.503319,147.428295 245.4838,160.508064 C257.772834,175.180152 266.249993,192.411325 271.370424,213.338954 L271.654892,213.282085 L271.427317,213.395822 C276.320174,221.982975 274.044427,232.446789 271.825573,242.569393 C271.256636,245.185346 270.6877,247.915037 270.23255,250.474122 C268.810208,258.776932 268.923996,267.022872 269.037783,275.041339 C269.15157,285.732628 269.322251,295.798363 266.136205,305.75036 C264.543182,310.697925 260.674412,319.512551 252.311041,323.322745 C240.477156,328.668389 226.993354,327.758492 213.964701,326.848595 L205.999586,326.336778 C186.371266,325.08567 166.117116,323.834562 148.821438,315.872964 C145.692285,314.45125 142.961389,313.200141 140.571854,312.06277 C143.188963,313.598221 145.862966,315.019935 148.593863,316.271044 C165.946435,324.232642 186.257479,325.540618 205.942692,326.734858 L213.907807,327.246675 C218.857557,327.587887 223.921095,327.929098 228.870845,327.929098 C237.006641,328.099704 245.02865,327.189807 252.424828,323.834562 Z M234.674,327.644755 C229.496676,327.644755 224.262457,327.246675 219.085132,326.848595 L217.66279,326.734858 C216.240448,326.621121 214.818106,326.507384 213.338871,326.450515 C211.688954,326.336778 210.039037,326.223041 208.38912,326.109304 C189.21595,324.801327 169.360056,323.436482 152.121271,316.214175 C135.110061,309.048737 119.805661,296.878865 106.720115,279.932035 L106.606327,279.761429 C106.208072,279.249612 105.86671,278.794664 105.468454,278.282847 C96.5930398,266.454187 89.3106488,253.999973 82.3127262,241.88697 C77.0785077,232.844869 72.1287576,224.371454 66.6669643,216.352987 C60.6362343,207.481492 53.8658864,199.29242 46.6972827,190.591531 C42.3733631,185.359623 37.9356561,179.95711 33.4410554,174.156518 L32.2462881,172.621066 C18.4780176,154.878076 5.50625866,138.101852 8.00958057,115.752509 C8.80609209,108.530202 11.6507761,101.080421 16.1453768,94.3130624 C21.0951269,86.7495442 27.4103253,81.0058199 34.3513543,77.7643121 C41.4630642,74.4090672 49.7126478,74.3521986 55.2882284,74.5796728 C68.3737747,75.1483584 82.3127262,77.4231007 100.404916,82.0294539 C118.383319,86.52207 137.72717,92.0383201 161.281154,99.2606269 C176.187298,103.810112 190.638292,108.473333 203.666945,115.29756 C222.726328,125.363295 236.949748,135.997715 248.442271,148.622535 C261.300242,162.839675 270.460125,179.615899 276.490855,199.974843 C282.066436,209.415023 279.563114,221.016209 277.173579,232.162447 C276.490855,235.233349 275.808131,238.417988 275.352981,241.432021 C273.816852,250.872202 274.272001,260.42612 274.670257,269.581958 C275.1823,281.29688 275.694343,292.386249 272.565191,303.418749 C269.834294,313.086404 264.258714,320.36558 257.317685,323.550219 C250.205975,326.734858 242.525328,327.644755 234.674,327.644755 Z M51.7608202,74.9208842 C46.6403891,74.9208842 40.2682969,75.4895698 34.6358227,78.162392 C27.7516874,81.4038998 21.4933827,87.0907556 16.6005262,94.5974052 C12.1628192,101.307895 9.3181352,108.700808 8.52162369,115.866246 C6.01830178,138.044983 18.9331671,154.764339 32.6445439,172.450461 L33.8393111,173.985912 C38.3339118,179.786505 42.7716189,185.189018 47.0955385,190.420925 C54.2641421,199.121814 61.03449,207.310887 67.0652201,216.23925 C72.5270133,224.257717 77.4767635,232.788001 82.7678757,241.830101 C89.7657983,253.886236 97.0481893,266.397318 105.923603,278.16911 C106.321859,278.680927 106.663221,279.135875 107.061477,279.647692 L107.175264,279.818298 C120.203917,296.70826 135.394529,308.821262 152.348846,315.986701 C169.530737,323.209008 189.329738,324.516984 208.502908,325.824961 C210.152824,325.938698 211.802741,326.052435 213.452658,326.166173 C214.931894,326.27991 216.354236,326.393647 217.776578,326.450515 L219.19892,326.564252 C232.113785,327.531018 245.540693,328.554652 257.317685,323.265876 C264.144926,320.194974 269.663613,312.915799 272.337616,303.418749 C275.466769,292.443118 274.954726,281.410618 274.442682,269.695695 C274.044427,260.482988 273.589277,250.929071 275.125407,241.432021 C275.63745,238.361119 276.320174,235.233349 276.946004,232.162447 C279.335539,221.073078 281.781967,209.585629 276.320174,200.259186 L276.320174,200.202317 C270.289444,179.900242 261.186455,163.124017 248.328484,148.963746 C236.892854,136.338927 222.726328,125.818243 203.666945,115.752509 C190.695186,108.928282 176.244191,104.321929 161.394941,99.7724439 C137.897851,92.5501371 118.554,87.0907556 100.575597,82.5412709 C82.4834073,77.9917863 68.5444557,75.717044 55.5158031,75.1483584 C54.2641421,74.9777527 53.0693749,74.9208842 51.7608202,74.9208842 Z M240.306475,327.246675 C234.844681,327.246675 229.269101,326.791727 223.807308,326.27991 L222.840115,326.223041 C221.247092,326.109304 219.597175,325.938698 217.947259,325.824961 L217.776578,325.824961 C215.443937,325.654356 213.111296,325.48375 210.721761,325.313144 C192.060634,324.005167 172.716783,322.583453 155.705573,316.100438 C137.10134,308.991868 121.057322,296.935734 107.971776,280.273246 C107.516626,279.704561 107.118371,279.135875 106.663221,278.624058 C96.1947841,264.861867 88.4572436,249.905437 81.0041716,235.460823 C77.021614,227.726699 73.2666312,220.504392 69.1702862,213.452691 C60.4086595,198.49626 50.1109035,185.132149 38.1632308,169.663901 L37.1960382,168.412793 C35.5461215,166.308657 33.8962048,164.20452 32.3031818,162.157252 C19.1038481,145.494764 6.70102594,129.799042 8.63541105,108.58707 C9.3181352,101.023552 12.2766065,93.3462969 17.1125693,86.2945957 C22.2898942,78.674209 29.0033484,72.8736161 36.4564204,69.5183712 C41.9182137,67.0161546 48.5747742,66.0493892 57.2795072,66.333732 C73.7217806,66.9024175 89.9364793,70.3713996 102.282408,73.3854331 C120.659066,77.8211806 140.571854,83.1668251 163.101751,89.7635778 C177.894108,94.0287196 192.288209,98.4075986 205.544436,104.947483 C224.7745,114.5014 239.282388,124.624004 251.173167,136.793875 C264.600076,150.499198 274.442682,166.763605 281.326818,186.553863 L281.326818,186.553863 C287.528229,196.790204 284.854226,209.301286 282.237117,221.471158 C281.497499,224.997008 280.700987,228.636596 280.188944,232.105578 C278.595921,242.739998 279.335539,253.488156 280.075157,263.838233 C280.928562,276.064973 281.838861,288.689793 278.709708,300.802796 C275.921918,311.550953 269.948082,319.740026 262.267435,323.209008 C255.3833,326.336778 247.930228,327.246675 240.306475,327.246675 Z M54.4917169,66.6749433 C47.1524322,66.6749433 41.4630642,67.6985773 36.6271014,69.9164511 C29.2309231,73.2148274 22.6312562,78.9585518 17.4539314,86.52207 C12.6748623,93.460034 9.77328464,101.137289 9.09056048,108.58707 C7.15617537,129.628437 19.5589975,145.26729 32.6445439,161.872909 C34.2375669,163.920177 35.9443773,166.024314 37.5374003,168.12845 L38.5045929,169.379559 C50.4522656,184.847806 60.8069153,198.211918 69.568542,213.168348 C73.6648869,220.220049 77.4198698,227.499225 81.4024273,235.17648 C88.8554994,249.621094 96.5361461,264.577524 107.004583,278.282847 C107.459733,278.851532 107.857988,279.420218 108.313138,279.932035 C121.34179,296.480785 137.328914,308.480051 155.81936,315.588621 C172.773677,322.071636 192.060634,323.49335 210.721761,324.801327 C213.054402,324.971933 215.443937,325.142539 217.776578,325.313144 L217.947259,325.313144 C219.597175,325.426881 221.247092,325.540618 222.840115,325.711224 L223.807308,325.768093 C236.83596,326.905464 250.262869,328.042835 262.096754,322.697191 C269.663613,319.285077 275.580556,311.209742 278.311453,300.575322 C281.440605,288.519187 280.5872,276.519922 279.676901,263.781365 C278.937283,253.374419 278.140772,242.626261 279.790688,231.934972 C280.302731,228.46599 281.099243,224.769534 281.838861,221.243683 C284.399076,209.187549 287.073079,196.676466 280.928562,186.610732 L281.21303,186.440126 L280.928562,186.553863 C274.044427,166.820474 264.20182,150.612935 250.888699,136.964481 C239.054814,124.851478 224.603819,114.785743 205.373755,105.231825 C192.174422,98.6919413 177.780321,94.3130624 162.987964,90.0479206 C140.458067,83.5080364 120.545279,78.1055234 102.16862,73.6697759 C89.8795856,70.6557423 73.6648869,67.1867603 57.2795072,66.6180747 C56.3123146,66.7318119 55.4020157,66.6749433 54.4917169,66.6749433 Z M245.938949,326.791727 C240.420262,326.791727 234.787788,326.27991 229.212207,325.768093 L227.277822,325.597487 C225.571012,325.426881 223.864201,325.313144 222.157391,325.142539 C219.085132,324.915064 216.012873,324.68759 212.940615,324.460116 C194.791531,323.09527 176.016617,321.730425 159.232981,315.872964 C139.490874,309.105605 122.195196,296.878865 109.223437,280.557589 C108.768287,279.988904 108.313138,279.420218 107.857988,278.851532 C96.0809967,263.55389 88.3434563,246.379586 80.8334906,229.773967 C77.7612318,223.063477 74.9165479,216.694199 71.7873955,210.438657 C64.049855,194.97041 54.2641421,179.786505 40.9510211,162.555332 C38.3908055,159.256955 35.7168026,156.015448 33.156587,152.830808 C20.0710407,136.907612 7.72511217,121.837444 9.26124152,101.307895 C9.83017832,93.460034 12.8455433,85.4984359 18.0228682,78.2761291 C23.4846614,70.5988738 30.5394777,64.6845438 38.4476992,61.3292989 C44.0232798,58.9408194 50.6798403,57.9171854 59.2138923,58.0877911 C75.3716973,58.485871 91.7001834,61.8411159 104.103006,64.7982809 C124.641624,69.6321083 145.123349,74.8640156 164.922349,80.3233972 C179.031982,84.1904591 193.995019,88.5124695 207.478822,94.7111423 C226.879566,103.753243 241.615029,113.364029 253.960958,125.022084 C267.899909,138.215589 278.42524,153.96818 286.219674,173.132884 L286.219674,173.132884 C293.046916,184.108515 290.202232,197.7001 287.414441,210.836737 C286.561036,214.817536 285.707631,218.912073 285.138694,222.779134 C283.431884,234.607795 284.512864,246.550192 285.593844,258.094509 C286.845505,271.288014 288.097166,284.993337 284.968013,298.129974 C282.180223,310.015502 275.751237,319.000734 267.330973,322.810928 C260.503731,325.88183 253.335127,326.791727 245.938949,326.791727 Z M57.1088261,58.485871 C49.5419667,58.485871 43.625024,59.509505 38.5045929,61.7273788 C30.6532651,65.0826237 23.6553425,70.8832166 18.2504429,78.5604719 C13.1300117,85.6690416 10.1715404,93.5737711 9.6026036,101.364764 C8.12336793,121.723707 20.4124027,136.737007 33.4410554,152.603334 C36.0581646,155.787973 38.7321676,159.029481 41.2354895,162.327858 C54.5486105,179.559031 64.3912171,194.799804 72.1287576,210.268052 C75.2579099,216.523593 78.1594876,222.892872 81.1748526,229.66023 C88.6848183,246.20898 96.4223588,263.383285 108.142457,278.624058 C108.597606,279.192744 108.995862,279.761429 109.451011,280.330115 C122.365877,296.594523 139.604662,308.764394 159.289875,315.531752 C176.016617,321.389214 194.791531,322.754059 212.883721,324.062036 C215.95598,324.28951 219.085132,324.516984 222.157391,324.744459 C223.864201,324.858196 225.571012,325.028801 227.277822,325.199407 L229.212207,325.370013 C242.070179,326.564252 255.326406,327.758492 266.98961,322.469716 C275.296088,318.716392 281.611286,309.844896 284.342183,298.073105 C287.414441,284.936468 286.16278,271.344883 284.968013,258.151377 C283.887033,246.60706 282.806053,234.607795 284.512864,222.722266 C285.081801,218.798335 285.935206,214.703799 286.788611,210.723 C289.576401,197.643232 292.421085,184.108515 285.650737,173.303489 L285.764525,173.246621 L285.707631,173.303489 C277.970091,154.195654 267.44476,138.499932 253.562702,125.306426 C241.273667,113.648372 226.538204,104.037586 207.194353,95.0523536 C193.710551,88.7968123 178.804407,84.5316705 164.694774,80.6646085 C144.895774,75.205227 124.470943,69.9733197 103.932324,65.1394922 C91.5295023,62.2391958 75.2579099,58.8270823 59.1001049,58.4290024 C58.4742744,58.485871 57.7915503,58.485871 57.1088261,58.485871 Z M251.51453,326.450515 C245.768268,326.450515 239.965113,325.88183 234.218851,325.313144 L231.829316,325.08567 C230.122506,324.915064 228.358802,324.744459 226.651992,324.630722 C222.726328,324.28951 218.74377,324.005167 214.875,323.720825 C197.351747,322.412848 179.259556,321.048002 162.817283,315.816095 C141.254578,308.991868 123.617538,297.276945 110.475098,280.955669 C110.247523,280.671326 109.963055,280.330115 109.73548,280.045772 C109.507905,279.761429 109.28033,279.477087 109.109649,279.249612 C96.1947841,262.587125 88.6848183,243.422421 81.4024273,224.826403 C79.1266802,219.082678 76.7940393,213.168348 74.4045047,207.538361 C66.7807517,189.45416 56.767464,172.393592 44.7628976,156.811607 C41.4630642,152.546466 37.8787624,148.338192 34.4082479,144.300525 C21.2089143,128.889146 8.69230473,114.273926 9.887072,94.0855882 C10.3422214,85.9533844 13.4144801,77.7074435 18.9331671,70.2576624 C24.3949603,62.6941443 31.8480324,56.7229457 40.438978,53.083358 C46.0714523,50.7517471 52.6711191,49.7281131 61.1482774,49.8418502 C76.9078267,50.0693244 92.6104822,53.1402265 105.923603,56.1542601 C128.169032,61.1586932 148.024926,65.9925206 166.686053,70.826348 C180.738792,74.4659357 195.588042,78.5036033 209.356313,84.4179333 C228.927739,92.948217 243.94767,102.104055 256.691854,113.307161 C271.199743,125.988849 282.407798,141.229623 291.055637,159.825641 L291.055637,159.825641 C298.565603,171.540564 295.493344,186.155783 292.534873,200.316054 C291.624574,204.694933 290.657381,209.244418 290.031551,213.623297 C288.210953,226.589328 289.690189,239.725965 291.112531,252.407653 C292.705554,266.681661 294.35547,281.410618 291.226318,295.627757 C288.381634,308.650657 281.554392,318.488917 272.451404,322.583453 C265.681056,325.540618 258.683133,326.450515 251.51453,326.450515 Z M59.8397228,50.1830615 C51.9315013,50.1830615 45.7300902,51.2066956 40.438978,53.4245693 C31.904926,57.0072885 24.5087477,62.9216185 19.1038481,70.4282681 C13.6989485,77.8211806 10.5697962,85.9533844 10.1715404,94.0287196 C9.0336668,114.046452 21.436489,128.547934 34.6358227,143.902445 C38.1063371,147.940112 41.6906389,152.148386 44.9904724,156.470396 C57.0519324,172.052381 67.0652201,189.112948 74.6889731,207.254018 C77.1354014,212.884005 79.4680422,218.855204 81.6868957,224.54206 C88.9692867,243.08121 96.4792525,262.245914 109.337224,278.851532 C109.564799,279.135875 109.792374,279.420218 109.963055,279.647692 C110.190629,279.932035 110.475098,280.273246 110.702672,280.557589 C123.788219,296.765128 141.368366,308.480051 162.874177,315.247409 C179.259556,320.422448 197.351747,321.787294 214.818106,323.09527 C218.686876,323.379613 222.669434,323.663956 226.595098,324.005167 C228.301908,324.175773 230.065612,324.28951 231.772423,324.460116 L234.161957,324.68759 C247.019929,325.995567 260.33305,327.303544 271.996254,322.014768 C280.985456,317.9771 287.755804,308.252577 290.543594,295.343414 C293.615853,281.126275 292.022829,266.454187 290.429806,252.237047 C289.007464,239.49849 287.528229,226.361854 289.348827,213.338954 C289.974657,208.960075 290.94185,204.41059 291.852148,200.031711 C294.81062,185.985178 297.882879,171.426827 290.429806,159.825641 L290.771169,159.598167 L290.372913,159.768772 C281.781967,141.229623 270.573912,126.045718 256.122918,113.420898 C243.435627,102.27466 228.415696,93.1188227 208.901163,84.6454076 C195.189787,78.7310776 180.340536,74.69341 166.287797,71.0538223 C147.62667,66.2199948 127.770776,61.3861674 105.525348,56.3817343 C92.2691202,53.3677008 76.5664646,50.2399301 60.863809,50.0693244 C60.6362343,50.1830615 60.2379785,50.1830615 59.8397228,50.1830615 Z M256.976323,326.052435 C251.05938,326.052435 245.02865,325.426881 239.111707,324.744459 C238.144515,324.630722 237.177322,324.516984 236.267023,324.460116 C234.503319,324.28951 232.739615,324.118905 231.032805,323.948299 C226.253736,323.49335 221.303986,323.152139 216.524917,322.754059 C199.684387,321.502951 182.274921,320.138105 166.287797,315.588621 C143.302751,308.991868 124.869199,297.447551 111.612971,281.183143 C111.100928,280.614458 110.645779,279.988904 110.190629,279.420218 C96.2516777,261.620359 89.1399678,240.465256 82.1989389,219.992575 C80.4921285,214.874405 78.6715307,209.585629 76.850933,204.524327 C68.8858178,182.686801 60.1241912,166.138051 48.3471995,151.011015 C44.4215356,145.949713 40.0407222,141.059017 35.8305899,136.338927 C22.2898942,121.21189 9.48881624,106.881014 10.2853278,86.8632813 C10.6266898,78.3898662 13.8127359,69.8595825 19.6158912,62.2391958 C25.4190465,54.4482034 33.2703743,48.4770048 42.2595757,44.8942857 C48.0058374,42.6764119 54.5486105,41.5959093 62.9119815,41.5959093 C78.1594876,41.6527779 93.4069938,44.4962058 107.57352,47.5671079 C127.144946,51.8322497 148.08182,56.4386029 168.33597,61.3861674 C181.649091,64.6276752 197.010384,68.5516057 211.120017,74.1815929 C230.80523,82.143191 246.10963,90.8440804 259.308964,101.535369 C274.328895,113.705241 286.276568,128.434197 295.777812,146.404661 L295.777812,146.404661 C303.913609,158.915744 300.670669,174.554597 297.484623,189.738502 C296.460537,194.57233 295.43645,199.576763 294.81062,204.296853 C292.933128,218.457124 294.696832,232.731132 296.460537,246.60706 C298.394922,261.904702 300.3862,277.714161 297.313942,293.068672 C295.948493,299.779162 291.340105,315.986701 277.34426,322.355979 C270.801487,325.142539 263.974245,326.052435 256.976323,326.052435 Z M62.8550878,41.9371207 C54.5486105,41.9371207 48.0627311,42.9607547 42.3733631,45.1786284 C33.4410554,48.7613476 25.7035149,54.6756776 19.9003596,62.4098015 C14.154098,69.9733197 10.9680519,78.4467348 10.6266898,86.8064128 C9.83017832,106.653539 22.5743626,120.927547 36.1150583,135.997715 C40.3251906,140.717806 44.706004,145.608502 48.6316679,150.669803 C60.4086595,165.910577 69.2271799,182.459327 77.1922951,204.353722 C79.0697865,209.415023 80.8334906,214.760668 82.5403009,219.878838 C89.4244362,240.29465 96.5930398,261.449754 110.475098,279.192744 C110.930247,279.761429 111.385397,280.386984 111.89744,280.955669 C125.153667,297.10634 143.473432,308.650657 166.401585,315.190541 C182.388709,319.796894 199.741281,321.104871 216.58181,322.355979 C221.360879,322.697191 226.253736,323.09527 231.089699,323.550219 C232.853403,323.720825 234.617107,323.89143 236.323917,324.062036 C237.29111,324.175773 238.258302,324.28951 239.168601,324.346379 C252.026573,325.711224 265.2828,327.132938 277.002898,321.901031 C290.828062,315.645489 295.379557,299.551688 296.745005,292.954935 C299.817264,277.657293 297.825985,261.904702 295.8916,246.663929 C294.127896,232.788001 292.307298,218.457124 294.241683,204.239985 C294.867513,199.463026 295.948493,194.458593 296.97258,189.624765 C300.158626,174.554597 303.401565,158.972613 295.322663,146.632136 L295.493344,146.518398 L295.322663,146.575267 C285.821418,128.604803 273.930639,113.989583 258.967602,101.819712 C245.825162,91.1852917 230.520762,82.4844024 210.892442,74.5228043 C196.839703,68.8928171 181.47841,64.9688866 168.165289,61.7273788 C147.911139,56.7798142 127.031158,52.1734611 107.459733,47.9083192 C93.2932064,44.8374171 78.1025939,41.9371207 62.8550878,41.9371207 Z M282.123329,321.957899 C297.143261,315.190541 301.92233,297.618157 303.287778,290.39585 C306.41693,273.960837 304.027396,257.070875 301.751649,240.749599 C299.646583,225.736299 297.484623,210.268052 299.475902,194.97041 C300.158626,189.795371 301.296499,184.335989 302.377479,179.104082 C305.734206,162.953412 309.261614,146.234056 300.443094,132.983682 L300.044838,133.211156 C308.749571,146.290924 305.279057,162.953412 301.92233,179.047214 C300.84135,184.279121 299.703476,189.738502 299.020752,194.97041 C297.029473,210.32492 299.191433,225.850037 301.296499,240.863336 C303.572246,257.127743 305.961781,274.017705 302.832629,290.338981 C301.46718,297.504419 296.745005,314.84933 281.895755,321.559819 C270.175657,326.848595 256.919429,325.313144 244.061458,323.834562 C242.980478,323.720825 241.842604,323.607087 240.761624,323.436482 C238.99792,323.209008 237.177322,323.038402 235.470512,322.867796 C229.781144,322.299111 223.921095,321.901031 218.288621,321.446082 C202.130816,320.251843 185.460967,319.000734 169.928993,314.963067 C145.635392,308.707525 126.519115,297.333814 113.149101,281.183143 C112.637057,280.557589 112.181908,279.988904 111.669865,279.36335 C96.9344019,260.710463 90.3347351,237.792434 84.0195366,215.670565 C82.6540883,210.950474 81.2317463,206.059778 79.8094043,201.339688 C74.5182921,184.051647 67.0652201,163.863309 52.4435444,144.812342 C47.9489437,139.011749 42.8285125,133.495499 37.8218687,128.149854 C23.9398109,113.307161 10.7973709,99.2606269 11.2525203,79.4135002 C11.4232014,70.6557423 14.7230348,61.954853 20.7537648,54.2775977 C26.8413885,46.4297367 34.9771847,40.4016696 44.3077482,36.875819 C50.0540098,34.7148138 56.767464,33.6911798 64.7325792,33.5774427 C79.866298,33.4637055 95.0000168,36.1933963 109.166543,39.1505613 C112.864632,39.9467211 116.505828,40.6860124 120.147023,41.4253036 C137.328914,45.0080228 153.543613,48.3632677 169.872099,52.1165925 C186.200585,55.8130488 199.741281,59.2820308 212.71304,64.1158582 C253.960958,79.7547116 280.871668,100.966684 300.044838,133.211156 L300.3862,132.983682 C281.156137,100.682341 254.131639,79.3566317 212.769934,63.8315154 C199.798175,58.997688 186.257479,55.528706 169.928993,51.8322497 C153.657401,48.0789249 137.385808,44.72368 120.203917,41.1409608 C116.562721,40.4016696 112.864632,39.6055098 109.223437,38.8662185 C95.0569105,35.9090535 79.866298,33.1224942 64.7325792,33.2362313 C56.7105704,33.2930999 49.9402225,34.3736025 44.1370672,36.5346077 C34.74961,40.0604582 26.5569201,46.1453939 20.4124027,54.106992 C14.324779,61.8979844 10.9680519,70.7126109 10.7973709,79.5272374 C10.3422214,99.5449697 23.4846614,113.591503 37.4805066,128.547934 C42.4871505,133.893579 47.6075816,139.35296 52.0452886,145.153553 C60.2379785,155.787973 69.9099041,170.801273 79.3542549,201.510294 C80.8334906,206.230384 82.1989389,211.12108 83.5643872,215.84117 C89.9364793,238.019908 96.5361461,260.937937 111.328503,279.647692 C111.783652,280.273246 112.295695,280.841932 112.807739,281.467486 C126.234647,297.675025 145.407817,309.105605 169.815206,315.361147 C185.404074,319.398814 202.073922,320.649922 218.231727,321.844162 C223.864201,322.242242 229.72425,322.697191 235.413618,323.265876 C237.177322,323.436482 238.941026,323.607087 240.70473,323.834562 C241.78571,323.948299 242.86669,324.062036 244.004564,324.232642 C250.092188,324.915064 256.293599,325.654356 262.381222,325.654356 C269.208464,325.654356 275.865024,324.744459 282.123329,321.957899 Z M267.786122,325.199407 C261.527817,325.199407 255.212619,324.403247 248.954314,323.663956 C247.702653,323.49335 246.450992,323.379613 245.256225,323.209008 L243.151159,322.981533 C242.070179,322.867796 240.989199,322.754059 239.908219,322.640322 C233.251658,321.957899 226.481311,321.502951 219.938537,320.991134 C204.463456,319.853763 188.476332,318.716392 173.456401,315.247409 C147.740458,309.276211 127.770776,298.073105 114.116293,281.808697 C113.60425,281.183143 113.092207,280.557589 112.580164,279.932035 C96.9912956,260.312383 91.0174592,235.688297 85.2711976,211.860371 C84.1902177,207.481492 83.1092377,202.932008 81.9713641,198.553129 C73.3804185,165.114417 63.9360677,149.873643 55.8571652,139.35296 C50.907415,132.926813 45.047366,126.898746 39.3579981,121.098153 C24.9070034,106.312328 11.2525203,92.3226629 11.4772897,72.3049305 C11.5369887,63.2059613 14.9506095,54.1638606 21.3795953,46.0885254 C27.8654748,37.9563216 36.4564204,31.8145174 46.2421333,28.3455353 C52.159076,26.2413987 58.8725302,25.1608961 66.7807517,24.9902904 C81.8006831,24.7059476 96.9912956,27.3787699 111.157822,30.2221977 C118.497106,31.7007802 125.893285,33.1224942 133.061888,34.5442081 C145.862966,37.0464247 159.119194,39.6623783 171.863378,42.3920691 C185.859223,45.3492341 200.708474,48.7613476 214.818106,53.595175 C256.578067,68.0397887 284.512864,88.3987324 305.335951,119.562702 L305.392844,119.562702 C314.894089,133.609236 311.139106,151.352226 307.554804,168.52653 C306.360037,174.213386 305.16527,180.070848 304.425652,185.700835 C302.320586,202.135848 304.880801,218.798335 307.327229,234.949006 C309.944339,252.350785 312.675235,270.26438 309.602977,287.836765 C308.237528,295.570888 303.287778,314.394381 287.24376,321.673557 C280.985456,324.28951 274.442682,325.199407 267.786122,325.199407 Z M68.7720305,25.3315018 C68.0324126,25.3315018 67.3496885,25.3315018 66.6100706,25.3315018 C58.7587428,25.5021074 52.1021823,26.58261 46.2421333,28.6298781 C36.5133141,32.0988602 28.0361558,38.1837958 21.60717,46.259131 C15.2350779,54.2207291 11.8783508,63.2059613 11.8198671,72.1911934 C11.6507761,92.0951886 25.2483655,105.971117 39.5855728,120.700073 C45.2749408,126.557535 51.1918834,132.585602 56.1416336,139.011749 C70.5926282,157.778373 77.5336571,179.559031 82.3696199,198.382523 C83.5074935,202.818271 84.5884734,207.310887 85.6694533,211.746634 C91.415715,235.517691 97.3895513,260.141777 112.921526,279.647692 C113.433569,280.273246 113.945612,280.898801 114.457655,281.467486 C128.055245,297.618157 147.911139,308.821262 173.570188,314.735592 C188.59012,318.204574 204.577244,319.341946 219.995431,320.479317 C226.538204,320.934265 233.365446,321.446082 239.965113,322.128505 C241.046093,322.242242 242.127072,322.355979 243.208052,322.469716 L245.313118,322.697191 C246.564779,322.867796 247.81644,322.981533 249.011208,323.152139 C261.869179,324.744459 275.1823,326.393647 286.902398,321.104871 C302.775735,313.939433 307.611698,295.286546 308.977146,287.60929 C312.106298,270.150643 309.375402,252.237047 306.701399,234.892137 C304.254971,218.741467 301.694755,202.022111 303.799821,185.530229 C304.539439,179.900242 305.734206,174.04278 306.928974,168.355925 C310.513275,151.295357 314.154471,133.666104 304.823907,119.790176 L304.767014,119.790176 C284.000821,88.6830752 256.122918,68.3241315 214.41985,53.9363863 C200.310218,49.1025589 185.460967,45.6904455 171.522016,42.7332805 C158.777832,40.0035897 145.521604,37.4445046 132.77742,34.8854195 C125.608816,33.4637055 118.212638,32.0419916 110.873353,30.5634091 C97.446445,27.8905869 83.0523441,25.3315018 68.7720305,25.3315018 Z M292.022829,321.275477 C303.856715,315.929832 312.675235,302.395115 315.519919,285.163942 C318.649072,266.511055 315.576813,247.460089 312.561448,229.034676 C309.773658,211.803503 306.87208,193.946776 309.03404,176.374391 C309.773658,170.346324 311.082212,164.033914 312.333873,157.948979 C316.088856,139.75104 320.01452,120.984416 309.887445,106.198591 L309.546083,106.426065 C319.55937,121.098153 315.6906,139.807909 311.935617,157.89211 C310.683956,164.033914 309.375402,170.346324 308.57889,176.374391 C306.41693,194.003644 309.318508,211.860371 312.106298,229.148413 C315.06477,247.516957 318.193922,266.567924 315.06477,285.107074 C312.220086,302.22451 303.515353,315.588621 291.795255,320.877397 C280.075157,326.166173 266.705142,324.460116 253.790277,322.754059 C252.424828,322.583453 251.05938,322.412848 249.693932,322.242242 C248.044015,322.014768 246.280311,321.844162 244.289032,321.616688 C236.494598,320.76366 228.529483,320.251843 220.848836,319.683157 C206.284054,318.659523 191.264123,317.57902 176.926916,314.678724 C149.959311,309.162474 129.306906,298.073105 115.481741,281.865566 C115.026592,281.29688 114.514549,280.671326 113.945612,279.988904 C97.6740197,259.686829 92.4398012,233.413555 87.3762637,207.993309 C86.5797522,203.898773 85.726347,199.633631 84.8160481,195.482227 C80.2645538,174.156518 74.0631427,151.864043 59.7259354,133.268024 C54.3210358,126.273192 47.721369,119.790176 41.3492769,113.534635 C26.4431328,98.862547 12.3335002,85.0434875 12.2197129,65.0257551 C12.1628192,55.6993116 15.6333336,46.4297367 22.2898942,38.297533 C29.060242,30.0515921 37.9356561,23.9097878 48.0627311,20.4408058 C54.0934611,18.4504063 60.7500216,17.3130351 68.3737747,17.0855609 C83.1092377,16.6306124 98.2998502,19.1896975 112.52327,21.9762569 C122.195196,23.8529193 131.980909,25.6158446 141.368366,27.3219013 C151.836803,29.2554323 162.703496,31.1889632 173.171933,33.2930999 C186.314373,35.852185 201.675666,39.0936928 216.183554,43.7000459 C258.284877,57.0072885 287.073079,76.3425981 309.489189,106.426065 L309.830551,106.198591 C287.357548,76.0582553 258.512452,56.6660771 216.297342,43.301966 C201.73256,38.7524814 186.371266,35.4541051 173.228826,32.89502 C162.760389,30.8477519 151.893696,28.8573524 141.425259,26.9238214 C131.980909,25.2177647 122.252089,23.3979708 112.580164,21.578177 C98.2998502,18.7916176 83.1092377,16.2894011 68.316881,16.687481 C60.6362343,16.9149552 53.9227801,17.9954578 47.89205,20.0427259 C37.8218687,23.4548394 28.889561,29.7103807 22.0623194,38.0131902 C15.3488652,46.2022625 11.8214571,55.528706 11.8776733,64.9688866 C11.9921381,85.1572246 26.1017707,99.0900213 41.1217021,113.762109 C47.4937943,120.017651 54.0934611,126.500666 59.4983607,133.495499 C67.9186253,144.47113 76.7940393,159.541298 84.4746861,195.539095 C85.3849849,199.6905 86.1814964,203.955642 87.0349016,208.050178 C92.0984391,233.470423 97.3895513,259.800566 113.718037,280.216378 C114.286974,280.898801 114.799017,281.524355 115.254167,282.09304 C129.136225,298.414316 149.845524,309.503685 176.926916,315.076804 C191.264123,318.033969 206.340948,319.057603 220.90573,320.081237 C228.586377,320.649922 236.551492,321.161739 244.289032,322.014768 C246.337205,322.242242 248.100909,322.412848 249.693932,322.640322 C251.05938,322.810928 252.424828,322.981533 253.790277,323.152139 C260.219263,324.005167 266.705142,324.860683 273.134128,324.860683 C279.676901,324.915064 286.048993,324.005167 292.022829,321.275477 Z M296.97258,320.991134 C309.546083,315.304278 318.762859,300.973401 321.664437,282.604857 C324.793589,262.871468 321.323075,242.739998 318.023241,223.234083 C314.894089,204.865539 311.651149,185.87144 313.870002,167.161685 C314.666514,160.735538 316.031962,153.96818 317.397411,147.428295 C321.379968,128.263591 325.476313,108.416465 314.723408,92.8344799 L314.382046,93.0619541 C325.021164,108.473333 320.924819,128.206723 316.999155,147.314558 C315.633707,153.854442 314.268258,160.621801 313.471747,167.047948 C311.196,185.814572 314.495833,204.865539 317.624985,223.234083 C320.981712,242.68313 324.395333,262.814599 321.266181,282.49112 C318.364603,300.689059 309.261614,314.963067 296.801899,320.593054 C285.024907,325.938698 271.654892,324.062036 258.683133,322.242242 C257.203898,322.014768 255.724662,321.844162 254.245426,321.616688 C252.424828,321.389214 250.604231,321.161739 248.783633,320.934265 C240.022006,319.9675 231.089699,319.398814 222.441859,318.830129 C208.616695,317.920232 194.279488,316.953466 180.511217,314.45125 C152.235059,309.333079 130.786141,298.471185 116.733402,282.09304 C116.221359,281.467486 115.652423,280.841932 115.140379,280.159509 C98.1860629,259.118143 93.6914622,231.25255 89.3106488,204.296853 C88.6848183,200.429791 88.0020942,196.392124 87.3762637,192.411325 C83.7350682,171.199353 78.5577434,146.973347 63.4809183,127.353694 C57.6777629,119.790176 50.3953719,112.909081 43.283662,106.25546 C27.8085811,91.6402402 13.1300117,77.8211806 12.7886497,57.6328426 C12.6179686,48.0220563 16.2022704,38.5250072 23.1432994,30.1084606 C30.2550093,21.6919141 39.5286791,15.4363727 49.9971162,12.0811278 C56.596783,10.0338597 63.3671309,8.95335712 70.2512661,8.72588289 C85.2143039,8.10032875 100.860066,10.7162824 114.286974,13.218499 C125.210561,15.265767 136.191041,17.0855609 146.830159,18.8484862 C156.103829,20.3839372 165.661967,21.9762569 174.878743,23.6823136 C186.940203,25.8433188 202.699752,28.9142209 218.004152,33.2930999 C260.617518,45.5198398 290.259125,63.888384 314.268258,92.948217 L314.60962,92.6638742 C290.543594,63.5471726 260.788199,45.1217599 218.11794,32.89502 C202.81354,28.516141 186.997097,25.4452389 174.935637,23.2842337 C165.661967,21.578177 156.103829,19.9858573 146.830159,18.4504063 C136.191041,16.687481 125.210561,14.8108186 114.286974,12.8204191 C100.803172,10.3182025 85.1574102,7.70224885 70.1374788,8.32780299 C63.2533435,8.55527722 56.3692083,9.69264837 49.7695415,11.6830479 C39.187317,15.0951614 29.8567536,21.3507027 22.6881499,29.8241178 C15.6333336,38.297533 12.0490318,47.9083192 12.2197129,57.6328426 C12.5610749,78.0486549 27.296538,91.8677144 42.8285125,106.539802 C49.8833288,113.193424 57.1657198,120.074519 62.9688751,127.581169 C76.5095709,145.153553 82.2558325,166.251788 86.7504332,192.468193 C87.4331574,196.392124 88.0589879,200.429791 88.6848183,204.353722 C93.0656317,231.366287 97.5602324,259.288749 114.571443,280.386984 C115.083486,281.069406 115.652423,281.69496 116.164466,282.320515 C130.274098,298.755528 151.836803,309.674291 180.169855,314.792461 C193.938126,317.294678 208.275333,318.261443 222.100497,319.17134 C230.748336,319.740026 239.680644,320.36558 248.442271,321.275477 C250.262869,321.502951 252.14036,321.730425 253.904064,321.957899 C255.3833,322.128505 256.862535,322.355979 258.341771,322.583453 C264.941438,323.49335 271.597998,324.403247 278.140772,324.403247 C284.854226,324.516984 291.112531,323.607087 296.97258,320.991134 Z M283.659459,324.175773 C276.946004,324.175773 270.118763,323.152139 263.405309,322.185374 C261.812286,321.957899 260.219263,321.730425 258.62624,321.502951 C246.963035,319.910631 234.958469,319.17134 223.409052,318.432049 C210.437293,317.635889 197.010384,316.839729 183.924838,314.735592 C154.283231,310.072371 131.980909,299.267345 117.586808,282.718594 C98.4705313,260.710463 94.6586547,230.342653 90.9036719,200.941608 C87.3762637,172.848541 83.6781745,143.845576 66.7807517,121.894313 C60.6362343,113.875846 52.6142254,106.653539 44.9335787,99.6018383 C28.7757737,84.9297504 13.5282675,71.0538223 12.902437,50.4674043 C12.6179686,40.1173268 16.5436325,29.9947235 24.3380666,21.1232285 C31.5066703,12.9910247 41.2923832,6.73548337 51.8746076,3.55084413 C72.2994386,-2.64782867 93.9759306,0.366204893 116.221359,4.29013538 C128.112138,6.39427202 140.116705,8.21406587 151.666122,9.97699116 C214.021595,19.4740403 272.849659,28.4592725 319.502477,79.4135002 L319.388689,79.5272374 L319.55937,79.4135002 C330.995,95.7347763 326.67108,116.662406 322.460948,136.850744 C321.038606,143.788708 319.55937,151.011015 318.705965,157.835241 C316.373324,177.682368 319.957626,197.870706 323.485034,217.376621 C327.183124,237.906171 330.995,259.118143 327.808954,279.988904 C324.850483,299.494819 315.178557,314.678724 301.92233,320.649922 C296.119174,323.265876 289.974657,324.175773 283.659459,324.175773 Z M77.8181255,0.423073451 C69.0564989,0.423073451 60.4086595,1.38983893 51.988395,3.94892403 C41.4630642,7.13356327 31.7911387,13.3322361 24.6794287,21.4075713 C16.9418883,30.1653292 13.0731181,40.2310639 13.3575865,50.4674043 C13.9834169,70.8832166 29.1740294,84.7022761 45.2749408,99.3174955 C53.0124812,106.369197 61.03449,113.591503 67.1790074,121.666839 C84.133324,143.731839 87.8314132,172.791672 91.3588213,200.941608 C95.0569105,230.285784 98.9256807,260.596725 117.92817,282.49112 C132.265377,298.983002 154.453912,309.674291 183.981732,314.337513 C197.010384,316.384781 210.437293,317.237809 223.409052,318.033969 C235.015362,318.716392 246.963035,319.455683 258.683133,321.104871 C260.276156,321.332345 261.869179,321.559819 263.462202,321.787294 C276.433961,323.663956 289.86087,325.654356 301.694755,320.308711 C314.837195,314.394381 324.395333,299.324213 327.353805,279.932035 C330.482957,259.175011 326.67108,237.963039 323.029885,217.490359 C319.502477,197.927575 315.918175,177.739237 318.250816,157.835241 C319.047327,150.954146 320.526563,143.788708 322.005799,136.793875 C326.159037,116.662406 330.482957,95.905382 319.161115,79.697843 L319.161115,79.697843 C272.622085,28.8004838 213.850914,19.8721202 151.609228,10.3750711 C140.059811,8.61214578 128.055245,6.79235193 116.164466,4.68821529 C103.135813,2.41347297 90.2778414,0.423073451 77.8181255,0.423073451 Z"></path>
                    </g>
                </g>
            </g>
        </g>
    </g>
</svg>