<?xml version="1.0" encoding="UTF-8"?>
<svg width="615px" height="282px" viewBox="0 0 615 282" version="1.1" xmlns="http://www.w3.org/2000/svg" xmlns:xlink="http://www.w3.org/1999/xlink">
    <title>Shape 2</title>
    <g id="Ok" stroke="none" stroke-width="1" fill="none" fill-rule="evenodd" opacity="0.7">
        <g id="Homepage" transform="translate(-1061.000000, -2085.000000)" fill="#C5C9F0" fill-rule="nonzero">
            <g id="Live" transform="translate(150.000000, 1880.000000)">
                <g id="Bg" transform="translate(683.000000, 139.000000)">
                    <g id="Shape-2" transform="translate(228.000000, 66.000000)">
                        <path d="M284,195.725 C281.7,195.725 279.3,195.525 276.8,195.125 C254.2,191.825 232.4,177.925 212.1,153.925 C204.2,144.525 203.6,135.525 203.1,126.025 C202.7,118.825 202.2,111.425 198.7,103.125 C196.1,97.025 195,91.025 193.9,85.125 C192.4,77.225 191,69.725 186.4,62.525 C170.4,37.425 135.6,18.125 109.4,12.025 C94.3,8.525 71.6,21.025 49.7,33.125 C30.9,43.325 13.4,53.025 0.3,53.425 L0.3,52.625 C13.2,52.225 30.7,42.625 49.2,32.325 C71.2,20.125 94.1,7.525 109.5,11.125 C135.8,17.325 170.9,36.725 187,61.925 C191.7,69.225 193.1,76.825 194.6,84.825 C195.7,90.625 196.8,96.725 199.4,102.725 C203,111.125 203.4,118.625 203.9,125.925 C204.5,135.325 205,144.225 212.8,153.425 C233,177.225 254.6,191.025 277,194.325 C286.8,195.725 294.4,194.425 299.7,190.325 C302.6,188.025 304.8,184.825 306.9,181.825 C307.8,180.425 308.8,179.025 309.8,177.725 C323.7,159.825 349.4,155.925 370.3,154.625 L374,154.425 C395.3,153.025 417.2,151.725 433.5,138.625 C440.3,133.125 445.6,125.825 450.7,118.825 C452.8,115.925 454.9,113.025 457.1,110.225 C482.5,78.125 521.9,60.825 556.6,45.625 C577.7,36.325 593.6,32.725 612.9,41.825 L612.6,42.525 C593.6,33.525 577.8,37.125 556.9,46.325 C522.2,61.525 483,78.825 457.7,110.725 C455.5,113.525 453.4,116.425 451.3,119.325 C446.2,126.425 440.8,133.725 433.9,139.325 C417.5,152.525 395.4,153.925 374,155.325 L370.2,155.325 C330.8,157.925 317.5,168.925 310.3,178.225 C309.3,179.525 308.3,180.925 307.4,182.325 C305.3,185.425 303.1,188.625 300,191.025 C295.9,194.125 290.5,195.725 284,195.725 Z M302.5,193.725 C305.5,191.525 307.8,188.425 310,185.425 L310.5,184.825 C311.2,183.925 312,182.725 313,181.625 C322.5,170.025 337.8,163.025 360,160.225 C363.6,159.725 367.6,159.325 372.1,159.025 C373.9,158.925 375.7,158.825 377.5,158.725 C397.9,157.425 418.9,156.125 434.8,144.225 C441.8,139.025 447.2,132.025 452.5,125.325 C454.6,122.725 456.7,119.925 458.9,117.425 C482.9,89.125 516.7,71.325 543.6,59.025 C548.3,56.825 553.2,54.625 557.4,52.725 C578.3,43.425 594,39.625 612.7,47.925 L613,47.225 C594,38.825 578.1,42.625 557.1,52.025 C552.8,53.925 548,56.125 543.3,58.325 C516.2,70.525 482.2,88.325 458.2,116.825 C456,119.425 453.9,122.125 451.8,124.825 C446.6,131.525 441.2,138.425 434.3,143.625 C418.6,155.425 397.6,156.725 377.4,158.025 C375.6,158.125 373.8,158.225 372,158.325 C367.5,158.625 363.5,159.025 359.9,159.525 C337.6,162.425 322,169.525 312.4,181.225 C311.5,182.325 310.6,183.525 309.9,184.425 L309.4,185.025 C307.2,187.925 305,191.025 302.1,193.125 C296.9,197.025 289.4,198.325 279.7,196.925 C268.4,195.325 256.9,191.125 245.6,184.325 C236.9,179.125 229.3,172.125 222,165.325 C220.2,163.625 218.4,162.025 216.6,160.425 C210.2,154.625 206.4,149.425 204.3,143.525 C203.1,140.225 202.3,136.925 201.5,133.425 C200.6,129.525 199.6,125.525 198.1,121.525 C197.4,119.725 196.5,117.925 195.5,116.125 C194.5,114.225 193.4,112.225 192.6,109.925 C190.4,104.325 189.4,98.725 188.3,93.225 C186.8,85.225 185.3,77.625 180.7,70.325 C164.7,44.725 130.9,26.325 106.3,20.125 C91.1,16.325 69,27.925 47.7,39.025 C29.8,48.425 12.9,57.225 0.3,57.425 L0.3,58.225 C13.1,58.025 30,49.125 48,39.825 C69.3,28.725 91.2,17.225 106,21.025 C130.5,27.225 164.1,45.425 180,70.825 C184.5,78.025 186,85.525 187.5,93.525 C188.6,99.025 189.6,104.625 191.8,110.325 C192.7,112.625 193.7,114.625 194.8,116.525 C195.8,118.325 196.7,120.025 197.3,121.825 C198.8,125.825 199.7,129.725 200.7,133.625 C201.6,137.225 202.4,140.525 203.6,143.825 C205.8,149.925 209.6,155.225 216.1,161.125 C217.9,162.725 219.7,164.425 221.5,166.025 C228.8,172.825 236.4,179.825 245.2,185.125 C256.6,191.925 268.2,196.225 279.6,197.825 C282.1,198.125 284.4,198.325 286.6,198.325 C293.1,198.225 298.4,196.725 302.5,193.725 Z M305,196.425 C308.1,194.225 310.4,191.325 312.7,188.425 L313,188.025 C313.3,187.725 313.5,187.325 313.8,187.025 C314.3,186.325 314.9,185.625 315.5,185.025 C325.3,173.725 340.5,166.825 361.8,163.925 C365.4,163.425 369.3,163.025 373.7,162.725 C376,162.525 378.4,162.425 380.7,162.325 C400.1,161.125 420.1,159.925 435.5,149.225 C442.6,144.325 448.2,137.625 453.6,131.225 C455.6,128.825 457.6,126.425 459.8,124.125 C480.2,101.525 507.7,82.425 543.8,65.525 C548.4,63.425 552.9,61.325 557.5,59.225 C578.3,49.725 594,45.725 612.5,53.425 L612.8,52.725 C603.7,48.925 594.5,47.825 584.7,49.325 C575,50.825 565.4,54.825 557.2,58.525 C552.6,60.625 548,62.725 543.5,64.825 C507.3,81.725 479.7,100.925 459.3,123.525 C457.2,125.925 455.1,128.325 453.1,130.725 C447.5,137.425 442.1,143.725 435.1,148.625 C419.9,159.225 399.9,160.425 380.7,161.625 C378.3,161.725 376,161.925 373.7,162.025 C369.3,162.325 365.4,162.725 361.8,163.225 C340.3,166.125 324.9,173.125 315,184.525 C314.4,185.225 313.9,185.925 313.3,186.625 C313,186.925 312.8,187.325 312.5,187.625 L312.2,188.025 C309.9,191.025 307.7,193.825 304.7,195.825 C299.5,199.425 292.1,200.625 282.6,199.425 C271.7,198.025 260.4,194.225 248.9,188.125 C242.6,184.825 237.2,180.325 232,176.025 C228.4,173.025 224.6,169.925 220.6,167.325 C214.4,163.225 207.9,158.925 204.1,152.025 C202.2,148.525 200.6,144.825 199,140.925 C197.4,136.925 195.7,132.925 193.5,128.925 C192.6,127.325 191.5,125.925 190.4,124.525 C188.7,122.325 186.9,120.025 185.8,117.025 C183.9,111.725 182.9,106.525 181.9,101.425 C180.3,93.425 178.9,85.925 174.4,78.525 C159.2,53.625 126.7,35.325 103,29.025 C88.3,25.025 66.9,35.525 46.2,45.625 C28.9,54.125 12.6,62.125 0.3,62.125 L0.3,62.925 C12.8,62.925 29.2,54.925 46.5,46.425 C67.1,36.325 88.3,25.925 102.8,29.825 C126.4,36.125 158.6,54.325 173.8,79.025 C178.2,86.225 179.7,93.725 181.2,101.625 C182.2,106.725 183.2,112.025 185.1,117.325 C186.2,120.525 188,122.825 189.8,125.025 C190.9,126.425 192,127.825 192.9,129.325 C195.1,133.225 196.7,137.325 198.3,141.225 C199.9,145.225 201.4,148.925 203.4,152.425 C207.3,159.425 213.8,163.725 220.1,167.925 C224,170.525 227.8,173.625 231.4,176.625 C236.7,180.925 242.1,185.425 248.5,188.825 C260,194.925 271.4,198.725 282.4,200.225 C284.8,200.525 287.1,200.725 289.3,200.725 C295.7,200.625 301,199.225 305,196.425 Z M307.5,199.125 C310.6,197.125 312.9,194.325 315.2,191.625 L315.6,191.225 C316.4,190.225 317.3,189.225 318.1,188.325 C328.1,177.525 343.5,170.525 363.8,167.625 C367.9,167.025 371.8,166.625 375.5,166.425 C378.4,166.225 381.3,166.025 384.2,165.925 C402.6,164.825 421.6,163.725 436.4,154.225 C443.6,149.625 449.2,143.525 455,137.125 C456.9,135.025 458.9,132.825 460.9,130.725 C483.5,107.425 512.3,87.125 544.3,71.925 C548.8,69.825 553.4,67.625 557.9,65.525 C574.5,57.825 592.4,50.925 612.5,58.725 L612.8,58.025 C603.8,54.525 594.6,53.725 584.9,55.425 C575.3,57.125 565.7,61.125 557.6,64.925 C553,67.025 548.5,69.225 544,71.325 C512,86.525 483.1,106.925 460.4,130.225 C458.4,132.325 456.4,134.525 454.5,136.625 C448.7,143.025 443.2,149.025 436,153.625 C421.3,163.025 402.4,164.125 384.1,165.225 C381.2,165.425 378.2,165.525 375.4,165.725 C371.7,165.925 367.8,166.325 363.6,166.925 C343.1,169.825 327.6,176.925 317.5,187.825 C316.6,188.725 315.8,189.725 314.9,190.725 L314.5,191.125 C312.3,193.725 309.9,196.525 307,198.425 C301.8,201.825 294.7,202.925 285.3,201.825 C274.7,200.525 263.9,197.325 252.1,191.825 C242.2,187.225 232.9,181.325 224.5,174.225 L224.4,174.125 L224.3,174.125 C216.6,172.825 209.1,167.825 203.7,160.625 C200.9,156.925 198.7,152.825 196.3,148.525 C194,144.425 191.7,140.225 188.9,136.225 C187.8,134.725 186.5,133.425 185,132.125 C182.6,129.925 180.1,127.525 178.9,124.025 C177.3,119.125 176.4,114.225 175.4,109.625 C173.8,101.625 172.4,94.125 168,86.725 C153.6,62.625 122.4,44.525 99.6,37.825 C85.2,33.625 64.4,43.125 44.4,52.225 C28,59.925 12.3,67.125 0.3,66.925 L0.3,67.725 C12.5,67.925 28.2,60.725 44.9,53.125 C64.8,44.025 85.5,34.725 99.6,38.825 C122.3,45.325 153.2,63.325 167.5,87.325 C171.8,94.525 173.3,102.025 174.9,109.925 C175.8,114.625 176.8,119.525 178.4,124.425 C179.6,128.125 182.2,130.525 184.7,132.825 C186.1,134.125 187.4,135.425 188.5,136.825 C191.3,140.725 193.6,144.925 195.9,149.025 C198.3,153.325 200.6,157.425 203.3,161.125 C208.8,168.425 216.4,173.525 224.3,174.925 C232.7,182.025 242,187.925 252,192.525 C263.8,198.025 274.7,201.225 285.4,202.525 C287.8,202.825 290.1,202.925 292.2,202.925 C298.4,203.125 303.5,201.725 307.5,199.125 Z M310.1,201.825 C313.4,199.725 316,196.925 318.3,194.425 C319.1,193.525 320,192.625 320.9,191.725 C331.2,181.325 346.7,174.225 365.9,171.325 C369.7,170.725 373.6,170.325 377.4,170.025 C380.9,169.825 384.4,169.625 387.9,169.425 C405.3,168.525 423.2,167.525 437.5,159.125 C444.9,154.825 450.7,149.025 456.8,142.825 C458.6,141.025 460.4,139.125 462.3,137.325 C488.6,112.025 516.4,92.225 545,78.425 C549.5,76.325 554,74.125 558.5,71.925 C575.1,64.125 593,57.025 612.7,64.025 L613,63.325 C592.9,56.225 574.9,63.325 558.2,71.225 C553.7,73.425 549.2,75.525 544.7,77.725 C516,91.625 488.1,111.425 461.8,136.825 C459.9,138.625 458.1,140.525 456.3,142.325 C450.2,148.425 444.5,154.225 437.2,158.525 C423.1,166.725 405.2,167.725 387.9,168.725 C384.4,168.925 380.9,169.125 377.4,169.325 C373.6,169.625 369.7,170.025 365.9,170.625 C346.6,173.525 330.9,180.725 320.5,191.225 C319.6,192.125 318.7,193.025 317.9,193.925 C315.6,196.425 313.1,199.225 309.9,201.225 C304.7,204.425 297.7,205.425 288.4,204.425 C275.4,202.925 263.5,198.825 255.7,195.725 C246.2,192.025 237.1,187.225 228.8,181.325 L228.7,181.225 L228.6,181.225 C220.4,181.525 210.9,177.025 203.9,169.425 C200.3,165.625 197.4,161.225 194.2,156.625 C191.3,152.325 188.3,147.925 184.8,143.925 C183.5,142.425 181.8,141.225 180.1,139.925 C177,137.725 173.9,135.325 172.7,131.325 C171.3,126.725 170.4,122.225 169.6,117.925 C168,109.925 166.6,102.425 162.3,95.125 C148.2,71.625 119.2,54.025 96.5,46.925 C82.4,42.525 62.4,50.925 42.9,59.025 C27,65.625 11.9,71.925 0.2,71.625 L0.2,72.425 C12.1,72.725 27.2,66.425 43.2,59.825 C62.6,51.725 82.5,43.325 96.3,47.625 C118.8,54.625 147.7,72.225 161.3,95.525 C165.5,102.725 167,110.225 168.5,118.125 C169.4,122.525 170.2,127.025 171.6,131.625 C172.9,135.925 176.2,138.225 179.3,140.625 C181,141.925 182.6,143.025 183.9,144.525 C187.4,148.525 190.4,152.825 193.3,157.125 C196.5,161.825 199.5,166.125 203.1,170.025 C210.2,177.725 219.9,182.325 228.3,182.025 C236.6,187.925 245.7,192.825 255.3,196.425 C263.1,199.425 275.1,203.625 288.2,205.125 C290.5,205.425 292.7,205.525 294.8,205.525 C301,205.525 306.1,204.325 310.1,201.825 Z M312.6,204.525 C315.7,202.625 318.4,200.325 320.9,197.625 L321.2,197.325 C321.9,196.625 322.7,195.825 323.5,195.125 C334.2,184.925 349.6,178.025 367.8,175.125 C371.1,174.625 374.7,174.225 379.1,173.825 C383.1,173.525 387.3,173.325 391.3,173.125 C407.7,172.325 424.6,171.525 438.3,164.225 C445.9,160.225 451.9,154.725 458.2,148.925 C459.9,147.425 461.6,145.725 463.4,144.225 C487.7,122.525 514.4,100.325 545.5,85.125 L548.7,83.625 C552.1,81.925 555.5,80.325 559,78.625 C575.6,70.625 593.3,63.425 612.9,69.725 L613.1,69.025 C593.3,62.625 575.4,69.925 558.7,77.925 C555.3,79.625 551.8,81.225 548.4,82.925 L545.2,84.425 C514.1,99.725 487.3,121.925 463,143.625 C461.2,145.225 459.5,146.825 457.8,148.325 C451.5,154.125 445.5,159.625 438.1,163.525 C424.5,170.725 407.7,171.525 391.5,172.325 C387.5,172.525 383.3,172.725 379.3,173.025 C374.9,173.325 371.3,173.825 368,174.325 C349.6,177.225 334.1,184.225 323.3,194.525 C322.5,195.225 321.8,196.025 321,196.825 L320.7,197.125 C318.3,199.725 315.6,202.025 312.6,203.925 C307.5,206.825 300.6,207.825 291.4,206.925 C279.7,205.725 268.6,202.525 259.2,199.625 C250.1,196.925 241.2,193.125 233,188.325 L232.9,188.225 L232.8,188.225 C223.9,190.125 212.6,186.125 203.9,178.125 C199.6,174.125 195.9,169.525 192,164.625 C188.4,160.125 184.7,155.525 180.5,151.425 C178.9,149.925 176.9,148.725 174.9,147.525 C171.2,145.325 167.4,143.025 166.1,138.525 C164.9,134.325 164.1,130.125 163.3,126.125 C161.8,118.225 160.3,110.725 156.2,103.425 C142.4,79.125 113.9,62.625 93.8,55.825 C80,51.225 60.6,58.525 41.8,65.625 C26.6,71.425 12.2,76.825 0.8,76.325 L0.8,77.025 C12.3,77.525 26.8,72.125 42.1,66.325 C60.8,59.225 80.1,51.925 93.6,56.525 C113.6,63.225 141.8,79.625 155.6,103.725 C159.7,110.925 161.1,118.325 162.7,126.225 C163.5,130.225 164.3,134.425 165.5,138.625 C166.9,143.325 170.8,145.725 174.7,148.025 C176.7,149.225 178.6,150.425 180.1,151.825 C184.3,155.925 188,160.525 191.6,164.925 C195.3,169.625 199.2,174.425 203.6,178.525 C212.4,186.625 223.9,190.625 233,188.825 C241.3,193.525 250.1,197.325 259.3,200.125 C268.8,203.025 279.9,206.325 291.7,207.525 C294,207.725 296.1,207.825 298.1,207.825 C303.7,207.925 308.7,206.825 312.6,204.525 Z M315.2,207.225 C318.3,205.425 321.1,203.325 323.5,200.825 L324,200.325 C324.7,199.725 325.4,199.025 326.1,198.425 C337.2,188.625 352.7,181.625 369.8,178.725 C373.3,178.125 376.9,177.725 380.9,177.425 C385.5,177.025 390.3,176.825 394.9,176.625 C410.2,175.925 426.1,175.325 439.2,169.125 C447.2,165.425 453.6,160.025 460.3,154.225 C461.7,153.025 463.1,151.925 464.5,150.725 C468,147.825 471.4,144.925 474.9,142.025 C496.9,123.625 519.6,104.525 545.9,91.425 L559.2,84.825 C575.7,76.725 593.4,69.325 612.7,74.925 L612.9,74.225 C593.4,68.525 575.5,76.025 558.9,84.125 L545.6,90.725 C519.2,103.825 496.5,122.925 474.5,141.425 C471,144.325 467.5,147.225 464.1,150.125 C462.7,151.325 461.3,152.425 459.9,153.625 C453.2,159.325 446.8,164.725 438.9,168.425 C425.9,174.525 410.1,175.225 394.9,175.825 C390.3,176.025 385.5,176.225 380.9,176.625 C376.9,176.925 373.2,177.325 369.8,177.925 C352.6,180.825 336.9,187.825 325.7,197.725 C325,198.325 324.3,199.025 323.5,199.725 L323,200.225 C320.6,202.725 317.8,204.825 314.8,206.525 C309.8,209.225 302.9,210.125 293.9,209.225 C283.7,208.325 274,206.025 265.5,204.025 C264.4,203.725 263.3,203.525 262.2,203.225 C252.8,201.025 244.8,198.725 236.6,195.125 L236.5,195.025 L236.4,195.125 C227,198.525 213.7,195.125 203.3,186.725 C198.2,182.625 193.5,177.525 189.1,172.525 C184.9,167.825 180.5,163.025 175.6,158.825 C173.8,157.225 171.4,156.025 169.1,154.925 C164.7,152.725 160.2,150.425 159,145.525 C158,141.725 157.3,137.925 156.6,134.225 C155.1,126.325 153.6,118.825 149.6,111.625 C136.5,88.025 109.5,71.625 90.2,64.725 C76.7,59.925 57.9,66.225 39.7,72.325 C25.2,77.225 11.5,81.825 0.4,81.125 L0.4,81.825 C11.6,82.525 25.4,77.925 40,73.025 C58.1,66.925 76.8,60.725 90,65.425 C109.1,72.225 136,88.525 149,112.025 C152.9,119.125 154.4,126.525 155.9,134.425 C156.6,138.125 157.3,141.925 158.4,145.725 C159.8,150.925 164.4,153.325 168.9,155.525 C171.3,156.725 173.5,157.825 175.3,159.325 C180.2,163.525 184.5,168.325 188.8,172.925 C193.3,177.925 197.9,183.025 203.1,187.225 C213.6,195.725 227.1,199.125 236.8,195.825 C245,199.525 252.9,201.725 262.4,203.925 C263.5,204.225 264.6,204.425 265.7,204.725 C274.3,206.725 284,209.025 294.3,209.925 C296.5,210.125 298.6,210.225 300.6,210.225 C306.3,210.325 311.2,209.325 315.2,207.225 Z M317.8,209.925 C320.8,208.325 323.7,206.325 326.2,204.025 L327.1,203.225 C327.7,202.725 328.3,202.225 328.9,201.725 C341.3,191.725 356.2,185.125 371.9,182.425 C375.3,181.825 379,181.325 382.8,181.125 C388,180.725 393.4,180.525 398.7,180.325 C413,179.825 427.8,179.325 440.3,174.125 C448.7,170.625 455.6,165.325 462.9,159.725 C463.9,158.925 464.9,158.225 465.9,157.425 C473.3,151.725 480.4,145.825 488,139.525 C506.2,124.425 525.1,108.825 546.6,97.925 L559.8,91.225 C576.3,83.025 593.9,75.325 612.9,80.325 L613.1,79.625 C593.9,74.625 576,82.325 559.4,90.625 L546.2,97.325 C524.6,108.225 505.7,123.925 487.4,139.025 C479.8,145.325 472.7,151.225 465.3,156.825 C464.3,157.625 463.3,158.325 462.3,159.125 C455.1,164.725 448.3,169.925 439.9,173.425 C427.6,178.525 412.8,179.025 398.6,179.525 C393.4,179.725 387.9,179.925 382.7,180.325 C378.9,180.625 375.2,181.125 371.8,181.725 C356,184.425 341,191.125 328.4,201.225 C327.8,201.725 327.2,202.225 326.6,202.725 L325.7,203.525 C323.2,205.825 320.4,207.725 317.4,209.325 C312.3,211.825 305.8,212.625 296.8,211.825 C289,211.225 281.6,209.925 274.5,208.625 C271.3,208.025 268.4,207.525 265.5,207.125 L263.2,206.725 C254.5,205.425 247.7,204.325 240.5,202.125 L240.4,202.125 L240.3,202.225 C230.3,207.125 215.3,204.425 203,195.525 C197.1,191.225 191.7,185.925 186.5,180.725 C181.6,175.825 176.5,170.725 170.9,166.425 C168.8,164.825 166.1,163.625 163.5,162.525 C158.5,160.325 153.3,158.125 152,152.825 C151.1,149.325 150.5,145.825 149.8,142.425 C148.3,134.625 146.9,127.225 143.1,120.025 C130.9,97.225 106,81.225 86.7,73.725 C73.5,68.625 55.3,73.925 37.7,79.025 C23.9,83.025 10.8,86.825 0.1,85.925 L-5.68434189e-14,86.625 C10.9,87.525 24,83.725 37.9,79.725 C55.4,74.725 73.4,69.425 86.4,74.425 C105.5,81.825 130.2,97.725 142.4,120.325 C146.2,127.325 147.6,134.725 149.1,142.525 C149.7,145.925 150.4,149.425 151.3,152.925 C152.7,158.625 158,160.925 163.2,163.125 C165.9,164.325 168.4,165.425 170.4,166.925 C176,171.225 181,176.225 185.9,181.125 C191.1,186.325 196.5,191.725 202.4,196.025 C214.8,205.025 230,207.725 240.3,202.825 C247.4,205.025 254.3,206.125 263,207.425 L265.3,207.825 C268.2,208.225 271.2,208.825 274.3,209.325 C281.4,210.625 288.8,211.925 296.6,212.525 C298.7,212.725 300.8,212.825 302.6,212.825 C309,212.825 313.8,211.925 317.8,209.925 Z M320.3,212.625 C323.3,211.225 326.2,209.325 328.8,207.225 L331.5,205.125 C343.9,195.725 358.6,189.125 373.9,186.225 C377.4,185.625 381,185.125 384.6,184.825 C390.4,184.325 396.4,184.225 402.3,184.125 C415.6,183.825 429.4,183.525 441.2,179.225 C450.1,176.025 457.5,170.925 465.3,165.425 L467,164.225 C476.8,157.325 486.1,149.525 495.9,141.325 C511.8,128.025 528.3,114.225 547.1,104.525 C549.1,103.525 551.1,102.425 553.2,101.425 C555.5,100.225 557.9,99.025 560.2,97.825 C576.7,89.425 594.3,81.625 612.9,85.825 L613.1,85.125 C594.2,80.825 576.4,88.725 559.8,97.125 C557.4,98.325 555.1,99.525 552.8,100.725 C550.8,101.825 548.7,102.825 546.7,103.825 C527.9,113.525 511.4,127.325 495.4,140.625 C485.6,148.825 476.3,156.625 466.5,163.525 L464.8,164.725 C457,170.125 449.7,175.325 440.9,178.425 C429.2,182.625 415.5,182.925 402.3,183.225 C396.5,183.325 390.4,183.525 384.6,183.925 C381,184.225 377.4,184.625 373.8,185.325 C358.4,188.325 343.6,194.925 331.1,204.425 L328.4,206.525 C325.8,208.625 323,210.425 320.1,211.825 C313.6,214.725 305.9,214.525 299.8,214.125 C294,213.725 288.4,213.025 282.9,212.225 C278,211.625 273.3,210.925 268.9,210.625 C265.7,210.425 262.8,210.225 260,210.125 C254.5,209.925 249.7,209.625 244.6,208.825 L244.5,208.825 L244.4,208.925 C235.5,214.225 219.3,214.725 202.9,203.925 C196.2,199.525 190.1,193.925 184.2,188.425 C178.6,183.325 172.9,178.025 166.6,173.625 C164.3,172.025 161.2,170.825 158.3,169.725 C152.6,167.625 146.8,165.425 145.5,159.625 C144.8,156.525 144.2,153.525 143.7,150.525 C142.2,142.625 140.8,135.125 137.1,128.025 C125.6,105.925 102,90.025 83.7,82.425 C70.8,77.125 53.2,81.325 36.1,85.325 C23,88.425 10.7,91.425 0.4,90.325 L0.3,91.025 C10.8,92.025 23.2,89.125 36.3,85.925 C53.2,81.925 70.7,77.725 83.4,82.925 C101.5,90.425 125,106.225 136.4,128.125 C140.1,135.225 141.5,142.625 142.9,150.425 C143.5,153.425 144,156.425 144.7,159.525 C146.1,165.625 152.1,167.925 157.9,170.125 C160.8,171.225 163.8,172.325 166.1,173.925 C172.4,178.325 178.1,183.525 183.7,188.625 C189.6,194.125 195.8,199.725 202.5,204.125 C214.4,212.025 232.1,216.625 244.6,209.225 C249.7,210.125 254.4,210.325 259.9,210.525 C262.7,210.625 265.6,210.725 268.7,211.025 C273,211.325 277.7,211.925 282.6,212.625 C288,213.325 293.7,214.025 299.5,214.525 C301.3,214.625 303.3,214.725 305.4,214.725 C310.4,215.225 315.6,214.725 320.3,212.625 Z M248.7,216.725 C252.7,216.825 256.5,216.525 260.5,216.125 C264.1,215.825 267.8,215.425 272.2,215.425 C277.7,215.325 283.7,215.925 290.1,216.525 C294.1,216.925 298.2,217.325 302.5,217.525 C308.5,217.925 316.3,217.925 322.8,215.425 C325.8,214.125 328.7,212.525 331.4,210.525 L332.5,209.725 C333,209.325 333.6,208.925 334.1,208.625 C347.9,198.925 362,192.725 375.8,190.025 C379.2,189.325 382.8,188.925 386.3,188.625 C392.7,188.125 399.4,188.025 405.9,187.925 C418.2,187.825 430.9,187.625 442,184.325 C451.3,181.625 459,176.925 468.1,171.025 C479.7,163.525 490.7,154.125 501.4,145.025 C515.8,132.725 530.6,120.125 547.6,111.225 C549.6,110.225 551.6,109.125 553.6,108.025 C555.9,106.825 558.2,105.625 560.6,104.325 C577,95.825 594.5,87.725 613,91.325 L613.1,90.625 C594.4,87.025 576.7,95.025 560.2,103.625 C557.8,104.825 555.5,106.125 553.2,107.325 C551.2,108.425 549.2,109.425 547.2,110.525 C530.2,119.425 515.3,132.125 500.9,144.425 C489.7,153.925 479.2,162.925 467.6,170.425 C458.5,176.225 450.9,180.925 441.7,183.625 C430.7,186.925 418.6,187.025 405.8,187.225 C399.3,187.325 392.6,187.325 386.2,187.925 C382.7,188.225 379.1,188.725 375.6,189.325 C361.7,192.025 347.5,198.325 333.6,208.025 C333.1,208.425 332.5,208.825 332,209.125 L330.9,209.925 C328.3,211.825 325.5,213.425 322.5,214.725 C316.1,217.225 308.5,217.225 302.5,216.825 C298.3,216.625 294.1,216.225 290.1,215.825 C283.7,215.225 277.6,214.625 272.1,214.725 C267.7,214.825 264,215.125 260.3,215.525 C256.3,215.925 252.5,216.225 248.5,216.125 L248.4,216.125 L248.3,216.225 C238.9,222.725 221.2,224.225 202.6,213.025 C195.1,208.525 188.3,202.625 181.7,196.925 C175.5,191.625 169,186.025 162,181.525 C159.4,179.825 156,178.725 152.8,177.625 C146.5,175.525 140,173.325 138.7,167.125 C138.1,164.525 137.7,161.825 137.2,159.325 C135.7,151.325 134.4,143.825 130.8,136.625 C121.7,118.425 102.9,101.625 80.5,91.725 C67.8,86.125 50.7,89.225 34.1,92.225 C21.8,94.525 10.3,96.625 0.4,95.425 L0.3,96.125 C10.3,97.325 22,95.125 34.3,92.925 C50.7,89.925 67.7,86.825 80.2,92.325 C102.5,102.225 121.2,118.925 130.2,136.925 C133.7,144.025 135.1,151.525 136.6,159.425 C137.1,161.925 137.5,164.625 138.1,167.225 C139.5,173.825 146.2,176.025 152.7,178.225 C155.9,179.325 159.2,180.425 161.8,182.025 C168.8,186.525 175.2,192.025 181.4,197.325 C188,203.025 194.9,208.925 202.4,213.425 C212.2,219.425 221.9,221.825 230.2,221.825 C237.7,221.825 244.1,219.825 248.7,216.725 Z M252.8,223.725 C256.2,223.325 259.3,222.525 262.7,221.725 C266.6,220.725 270.7,219.725 275.7,219.225 C282.1,218.525 289.2,218.925 296.8,219.425 C299.6,219.625 302.5,219.825 305.5,219.925 C311.8,220.225 319.1,220.225 325.5,218.025 C328.5,216.925 331.5,215.425 334.2,213.625 C334.9,213.125 335.7,212.725 336.4,212.225 L337,211.825 C346.8,205.625 361.6,196.925 378,193.525 C381.4,192.825 384.8,192.325 388.3,192.125 C395.4,191.525 402.8,191.525 409.9,191.625 C421.1,191.625 432.7,191.725 443.1,189.225 C452.3,187.025 460.3,183.025 469.4,177.625 C482.3,170.025 494.2,159.625 505.8,149.425 C519,137.825 532.6,125.925 548.3,117.625 C550.8,116.325 553.4,114.925 556,113.525 C557.7,112.625 559.4,111.725 561.2,110.725 C577.6,102.025 595.2,93.825 613.2,96.725 L613.3,96.025 C595,93.125 577.3,101.325 560.8,110.025 C559.1,110.925 557.3,111.925 555.6,112.825 C553,114.225 550.4,115.625 547.9,116.925 C532.2,125.325 518.5,137.225 505.3,148.825 C493.3,159.425 481.9,169.325 469,176.925 C459.9,182.225 452,186.225 442.9,188.425 C432.6,190.925 421.6,190.825 409.9,190.825 C402.8,190.825 395.4,190.725 388.3,191.325 C384.8,191.625 381.3,192.125 377.9,192.825 C361.4,196.225 346.4,204.925 336.6,211.225 L336,211.625 C335.2,212.125 334.5,212.625 333.8,213.025 C331.1,214.825 328.3,216.225 325.3,217.325 C319.1,219.525 311.9,219.525 305.6,219.225 C302.7,219.125 299.8,218.925 297,218.725 C289.4,218.225 282.2,217.725 275.7,218.525 C270.7,219.025 266.6,220.025 262.6,221.025 C259.3,221.825 256.1,222.625 252.7,223.025 L252.6,223.025 L252.5,223.125 C238.8,233.825 217.6,230.025 202.6,221.625 C194.3,216.925 186.7,210.825 179.4,204.925 C172.5,199.325 165.4,193.625 157.6,189.025 C154.7,187.325 151,186.225 147.5,185.125 C140.5,183.025 133.3,180.825 132.1,174.225 C131.7,172.025 131.3,169.925 130.9,167.825 C129.5,159.725 128.1,152.025 124.6,144.825 C116,126.925 98.8,110.825 77.3,100.525 C64.8,94.525 48.2,96.625 32.1,98.625 C20.7,100.025 9.9,101.425 0.5,100.125 L0.4,100.825 C9.9,102.125 21.3,100.725 32.2,99.325 C48.2,97.325 64.7,95.325 77,101.125 C98.3,111.325 115.4,127.325 124,145.025 C127.4,152.125 128.8,159.725 130.2,167.825 C130.6,169.925 130.9,172.025 131.4,174.225 C132.8,181.225 140.2,183.525 147.4,185.625 C150.9,186.725 154.6,187.825 157.4,189.425 C165.1,194.025 172.2,199.725 179.1,205.325 C186.5,211.225 194.1,217.425 202.4,222.125 C211,226.925 221.6,230.325 231.7,230.325 C239.2,230.325 246.7,228.425 252.8,223.725 Z M256.8,230.625 C259.9,229.825 262.7,228.625 265.6,227.425 C269.6,225.725 273.8,224.025 278.9,223.025 C286,221.525 294.3,221.925 303,222.225 C304.7,222.325 306.5,222.325 308.2,222.425 C314.8,222.625 321.7,222.625 327.8,220.725 C330.8,219.725 333.8,218.425 336.5,216.825 C337.4,216.325 338.4,215.725 339.3,215.225 C350.6,208.725 364.6,200.525 379.7,197.225 C383,196.525 386.4,196.025 389.8,195.725 C397.5,195.025 405.5,195.225 413.3,195.425 C423.5,195.625 434.1,195.825 443.7,194.125 C452.2,192.625 460.1,189.625 470.3,184.225 C484.3,176.725 496.8,165.425 508.9,154.525 C521.2,143.425 533.8,131.925 548.5,124.025 C552.6,121.825 556.9,119.425 561.3,117.025 C577.6,108.225 595.1,99.825 613,102.025 L613.1,101.325 C595,99.025 577.4,107.525 561,116.325 C556.6,118.725 552.3,121.125 548.2,123.325 C533.4,131.325 520.7,142.825 508.4,153.925 C495.8,165.325 483.9,176.025 470,183.525 C459.9,188.825 452.1,191.825 443.6,193.325 C434.1,195.125 424,194.825 413.4,194.625 C405.6,194.425 397.6,194.325 389.9,194.925 C386.5,195.225 383.1,195.725 379.7,196.425 C364.5,199.725 350.4,207.925 339.1,214.425 C338.2,214.925 337.2,215.525 336.3,216.025 C333.6,217.625 330.7,218.925 327.7,219.825 C321.7,221.725 314.8,221.725 308.3,221.525 C306.5,221.425 304.8,221.425 303.1,221.325 C294.3,220.925 286.1,220.625 278.8,222.125 C273.6,223.225 269.4,224.925 265.3,226.625 C262.3,227.825 259.5,229.025 256.5,229.825 L256.4,229.925 C241.9,242.325 218.8,238.925 202.3,230.125 C193.3,225.325 185,219.025 177,212.825 C169.4,207.025 161.5,201.025 153,196.225 C149.9,194.425 145.8,193.425 141.9,192.325 C134.3,190.325 126.5,188.125 125.2,181.125 C124.9,179.525 124.6,177.925 124.4,176.325 C123,168.025 121.7,160.225 118.3,152.925 C110.4,135.625 94.2,119.725 74,109.325 C61.6,102.925 45.4,103.925 29.7,104.925 C19.2,105.725 9.3,106.325 0.4,104.825 L0.3,105.525 C9.3,106.925 19.7,106.325 29.8,105.725 C45.4,104.825 61.5,103.825 73.7,110.025 C93.8,120.325 109.8,136.125 117.7,153.325 C121,160.525 122.4,168.325 123.8,176.525 C124.1,178.125 124.3,179.725 124.6,181.325 C126,188.825 134.1,191.025 141.9,193.125 C145.8,194.125 149.8,195.225 152.8,196.925 C161.2,201.625 169.1,207.625 176.7,213.425 C184.8,219.525 193.1,225.925 202.1,230.725 C211,235.525 221.9,238.725 232.3,238.725 C241.2,238.825 249.9,236.425 256.8,230.625 Z M260.8,237.525 C267.8,233.025 273.8,229.325 282.3,226.725 C290,224.425 299.1,224.625 308.7,224.825 L311.1,224.925 C317.2,225.025 324.2,225.125 330.4,223.425 C333.4,222.625 336.4,221.425 339.2,220.025 C339.7,219.725 340.3,219.525 340.8,219.225 C341.2,219.025 341.7,218.825 342.1,218.525 C344.2,217.425 346.2,216.325 348.3,215.225 C358.9,209.525 369.9,203.625 381.8,201.025 C385,200.325 388.4,199.825 391.7,199.525 C400.1,198.825 408.8,199.125 417.2,199.525 C426.4,199.925 435.9,200.325 444.7,199.225 C454.1,198.025 463.1,195.225 471.5,191.025 C486.5,183.925 499.3,171.825 511.7,160.225 C523.2,149.425 535.1,138.325 549,130.625 C550.6,129.725 552.3,128.825 554,127.925 C556.5,126.525 559.1,125.125 561.7,123.625 C578,114.625 595.4,106.025 613,107.625 L613.1,106.925 C595.2,105.325 577.7,114.025 561.4,123.025 C558.8,124.425 556.2,125.925 553.7,127.325 C552,128.225 550.4,129.125 548.8,130.025 C534.8,137.725 522.9,148.925 511.3,159.725 C498.4,171.825 486.2,183.225 471.2,190.325 C462.8,194.525 453.9,197.225 444.6,198.425 C435.9,199.525 426.8,199.125 417.2,198.725 C408.8,198.325 400,198.025 391.6,198.725 C388.3,199.025 384.9,199.525 381.6,200.225 C369.5,202.925 358.5,208.825 347.9,214.525 C345.8,215.625 343.7,216.725 341.7,217.825 C341.3,218.025 340.8,218.225 340.4,218.525 C339.9,218.825 339.4,219.025 338.8,219.325 C336,220.725 333.1,221.825 330.1,222.625 C324,224.225 317,224.225 311,224.025 L308.6,223.925 C298.9,223.725 289.8,223.525 282,225.825 C273.4,228.425 267.4,232.125 260.3,236.725 C243.8,247.525 220.9,248.225 202,238.725 C192.3,233.825 183.2,227.225 174.5,220.925 C166.2,214.925 157.6,208.625 148.4,203.825 C145,202.025 140.6,200.925 136.4,199.925 C128.1,197.925 119.6,195.825 118.4,188.325 L118,185.925 C116.6,177.225 115.3,168.925 111.9,161.225 C101.8,138.125 81.7,124.425 70.6,118.325 C58.2,111.525 42.3,111.325 26.9,111.225 C17.9,111.125 8.5,111.025 0.3,109.525 L0.2,110.325 C8.5,111.825 17.9,111.925 27,112.025 C42.3,112.125 58.2,112.325 70.4,119.025 C81.4,125.125 101.4,138.725 111.4,161.625 C114.7,169.225 116,177.425 117.4,186.125 L117.8,188.525 C119.1,196.425 127.9,198.625 136.4,200.725 C140.6,201.725 145,202.825 148.3,204.525 C157.5,209.325 166,215.625 174.3,221.625 C183.1,228.025 192.1,234.625 201.9,239.525 C210.8,244.025 220.6,246.225 230.2,246.225 C241.1,246.225 251.9,243.325 260.8,237.525 Z M264.9,244.525 C266.2,243.525 267.5,242.525 268.8,241.525 C273.8,237.525 278.9,233.425 285.8,230.625 C294,227.225 303.7,227.325 314,227.425 C320.9,227.525 327.1,227.425 333,226.225 C336,225.525 339,224.625 341.9,223.325 C342.9,222.925 343.8,222.525 344.8,222.025 C348.4,220.325 352.1,218.425 355.7,216.625 C364.7,212.025 374,207.225 383.9,204.825 C387.1,204.125 390.3,203.525 393.6,203.225 C402.7,202.425 412.1,203.025 421.2,203.625 C429.3,204.125 437.7,204.725 445.6,204.225 C455,203.625 464.1,201.525 472.7,197.725 C488.6,191.025 501.6,178.325 514.2,166.125 C525.1,155.525 536.3,144.625 549.6,137.225 C552.1,135.825 554.6,134.425 557.1,132.925 C558.8,132.025 560.4,131.025 562.1,130.025 C578.3,120.925 595.6,112.025 613,113.025 L613,112.325 C595.4,111.425 578,120.225 561.6,129.425 C559.9,130.425 558.2,131.325 556.6,132.325 C554,133.825 551.5,135.225 549.1,136.625 C535.7,144.125 524.5,155.025 513.5,165.625 C500.6,178.325 488.2,190.325 472.4,197.025 C463.9,200.725 454.8,202.825 445.5,203.425 C437.6,203.925 429.3,203.425 421.2,202.825 C412,202.225 402.6,201.625 393.4,202.425 C390.1,202.725 386.8,203.225 383.6,204.025 C373.5,206.425 364.2,211.225 355.2,215.825 C351.6,217.625 348,219.525 344.4,221.225 C343.4,221.725 342.5,222.125 341.5,222.525 C338.7,223.725 335.7,224.725 332.7,225.325 C326.9,226.625 320.8,226.625 313.9,226.525 C303.5,226.425 293.7,226.325 285.4,229.725 C278.4,232.525 273.3,236.725 268.3,240.725 C267,241.725 265.8,242.725 264.5,243.725 C248.2,256.325 223.6,257.825 202,247.425 C191.5,242.325 181.7,235.525 172.2,228.925 C163.3,222.725 154,216.225 144.2,211.225 C140.6,209.425 135.9,208.325 131.3,207.325 C122.3,205.325 113,203.325 111.8,195.325 C110.6,187.025 109.3,177.725 105.8,169.425 C97,148.025 80.1,134.625 67.5,127.125 C55,119.625 39,118.325 23.5,116.925 C15.7,116.225 7.7,115.625 0.4,114.125 L0.3,114.825 C7.6,116.325 15.7,117.025 23.5,117.625 C38.9,118.925 54.8,120.325 67.2,127.625 C79.7,135.025 96.4,148.325 105.2,169.525 C108.3,177.125 109.6,184.925 111.1,195.225 C112.4,203.625 121.9,205.725 131.1,207.825 C135.6,208.825 140.3,209.825 143.8,211.625 C153.6,216.625 162.8,223.025 171.7,229.225 C181.2,235.825 191.1,242.725 201.6,247.825 C211.3,252.525 221.6,254.825 231.5,254.825 C243.9,255.225 255.7,251.625 264.9,244.525 Z M268.9,251.425 C270.8,249.725 272.7,247.825 274.4,246.125 C278.7,241.825 283.1,237.425 289,234.325 C296.9,230.225 306.2,229.925 316.7,229.825 C322.9,229.825 329.3,229.825 335.3,228.825 C338.3,228.325 341.4,227.525 344.3,226.425 C345.4,226.025 346.4,225.625 347.3,225.325 C352,223.425 356.8,221.025 361.3,218.625 C369.1,214.625 377.1,210.525 385.7,208.425 C388.8,207.625 392,207.125 395.1,206.825 C404.9,205.925 415,206.825 424.8,207.825 C431.9,208.525 439.3,209.225 446.3,209.125 C455.6,209.225 464.8,207.625 473.6,204.325 C490.3,198.125 503.4,184.825 516.1,172.125 C526.4,161.725 537.2,150.925 549.9,143.625 C552.4,142.225 555,140.725 557.6,139.225 C559.2,138.325 560.8,137.425 562.4,136.425 C578.6,127.125 595.8,118.125 613,118.325 L613,117.525 C595.7,117.225 578.3,126.325 562,135.725 C560.4,136.625 558.8,137.625 557.2,138.525 C554.6,140.025 552,141.525 549.5,142.925 C536.7,150.225 525.9,161.025 515.5,171.525 C502.3,184.825 489.8,197.425 473.3,203.625 C464.6,206.825 455.5,208.425 446.2,208.325 C439.2,208.425 431.9,207.725 424.8,207.025 C415,206.125 404.8,205.125 395,206.025 C391.8,206.325 388.6,206.825 385.5,207.625 C376.8,209.725 368.7,213.925 360.9,217.825 C356.3,220.125 351.6,222.525 346.9,224.425 C346,224.825 345,225.225 344,225.525 C341.1,226.525 338.2,227.325 335.2,227.825 C329.2,228.825 322.9,228.825 316.7,228.825 C306.1,228.825 296.7,229.225 288.6,233.425 C282.6,236.525 278.1,241.025 273.8,245.325 C272,247.125 270.2,248.925 268.3,250.625 C255.1,262.425 229.3,268.725 201.6,256.025 C190.3,250.825 179.8,243.725 169.6,236.925 C160,230.425 150.1,223.825 139.5,218.625 C135.6,216.725 130.5,215.725 125.6,214.725 C115.5,212.725 106,210.725 105,202.425 C104,194.225 102.6,185.525 99.5,177.725 C93.2,161.425 81,147.025 64.3,136.325 C51.2,127.925 34.6,125.125 18.6,122.525 C12.5,121.525 6.2,120.525 0.3,119.125 L0.1,119.825 C6,121.125 12.3,122.225 18.4,123.225 C34.3,125.825 50.8,128.525 63.8,136.925 C80.3,147.525 92.4,161.825 98.8,178.225 C101.8,186.025 103.2,194.625 104.2,202.825 C105.3,211.725 115.5,213.725 125.4,215.725 C130.3,216.725 135.3,217.725 139.2,219.525 C149.7,224.625 159.7,231.325 169.2,237.725 C179.4,244.625 190,251.725 201.3,256.925 C210.7,261.225 221.9,263.925 233.1,263.925 C246.1,263.925 259,260.325 268.9,251.425 Z M273,258.325 C275.3,256.025 277.4,253.425 279.5,250.825 C283.3,246.125 287.2,241.325 292.5,238.025 C300.4,233.025 310.3,232.425 319.7,232.225 C320.8,232.225 321.9,232.225 323.1,232.225 C328.1,232.125 333.2,232.125 338,231.425 C341.1,231.025 344.1,230.425 347.1,229.525 C348.1,229.225 349.2,228.925 350.1,228.525 C355.7,226.525 361.1,223.725 366.4,221.125 C373.3,217.625 380.3,214.025 387.9,212.025 C390.9,211.225 394,210.725 397.2,210.425 C407.6,209.425 418.5,210.825 429,212.125 C435.1,212.925 441.4,213.725 447.6,214.025 C458.2,214.625 467,213.625 475.2,211.025 C492.6,205.325 505.8,191.625 518.5,178.325 C528.4,168.025 538.6,157.225 550.9,150.125 C553.5,148.625 556.2,147.025 558.9,145.425 C560.3,144.625 561.8,143.725 563.2,142.825 C578.6,133.825 596.5,124.125 613.4,123.725 L613.4,122.925 C596.2,123.625 578.2,133.325 562.7,142.325 C561.2,143.225 559.8,144.025 558.4,144.925 C555.7,146.525 553,148.125 550.4,149.625 C538,156.825 527.7,167.525 517.8,177.925 C504.6,191.725 492.1,204.825 474.9,210.425 C466.8,213.025 458.1,214.025 447.6,213.425 C441.5,213.125 435.2,212.325 429.1,211.525 C418.6,210.225 407.7,208.825 397.2,209.825 C394.1,210.125 390.9,210.725 387.8,211.425 C380.2,213.425 373.1,217.025 366.2,220.525 C360.9,223.225 355.5,225.925 350,227.925 C349,228.325 348,228.625 347,228.925 C344.1,229.725 341.1,230.425 338.1,230.725 C333.3,231.325 328.2,231.425 323.2,231.425 C322.1,231.425 321,231.425 319.8,231.425 C310.3,231.625 300.3,232.225 292.2,237.325 C286.8,240.725 282.8,245.625 279,250.325 C277,252.825 274.9,255.425 272.6,257.725 C254.4,276.125 223.9,274.625 201.7,264.825 C189.6,259.525 178.4,252.225 167.5,245.125 C157.2,238.425 146.6,231.525 135.2,226.225 C131,224.325 125.6,223.325 120.3,222.325 C109.5,220.325 99.4,218.425 98.4,209.725 C97.7,201.725 96,193.725 93.4,186.125 C87.5,169.725 76.7,155.925 61.2,145.125 C46.4,134.825 27.8,130.325 9.9,126.025 C6.7,125.225 3.6,124.525 0.5,123.725 L0.3,124.425 C3.4,125.225 6.6,125.925 9.7,126.725 C27.5,131.025 46,135.425 60.7,145.625 C76.1,156.325 86.9,170.025 92.7,186.225 C95.3,193.825 97,201.625 97.7,209.625 C98.7,218.925 109.6,220.925 120.2,222.925 C125.4,223.925 130.9,224.925 134.9,226.825 C146.2,232.025 156.8,238.925 167.1,245.625 C178,252.725 189.3,260.125 201.4,265.425 C211.5,269.825 223.2,272.625 234.8,272.625 C249,272.825 262.9,268.625 273,258.325 Z M277,265.325 C279.6,262.325 281.9,259.025 284,255.825 C287.4,250.825 290.9,245.625 295.8,241.925 C304.9,235.125 316.3,234.925 328.4,234.725 C335.5,234.625 342.8,234.525 349.6,232.925 C357,231.225 364,227.625 370.6,224.125 C376.7,221.025 383,217.725 389.7,215.825 C403.6,212.025 418.4,214.525 432.7,216.825 C447.1,219.225 462,221.625 476,217.825 C494.1,212.825 507.2,198.525 519.8,184.725 C529.3,174.425 539,163.725 551,156.725 C553.4,155.325 555.9,153.825 558.4,152.325 C575.4,142.125 594.7,130.425 613.1,129.325 L613.1,128.625 C594.5,129.825 575.1,141.425 558,151.725 C555.5,153.225 553,154.725 550.6,156.125 C538.6,163.125 528.8,173.925 519.3,184.225 C506.1,198.625 493.7,212.125 475.8,217.025 C461.9,220.825 447.1,218.425 432.8,216.025 C418.4,213.625 403.6,211.225 389.5,215.025 C382.7,216.925 376.4,220.125 370.2,223.325 C363.6,226.725 356.7,230.325 349.3,232.025 C342.6,233.625 335.3,233.725 328.2,233.825 C316.6,234.025 304.5,234.225 295.2,241.125 C290.2,244.825 286.7,250.125 283.3,255.225 C281.1,258.425 278.9,261.725 276.3,264.725 C258.2,285.125 225.6,283.825 201.2,273.525 C188.4,268.125 176.4,260.525 164.9,253.225 C153.9,246.325 142.5,239.125 130.5,233.725 C126.1,231.725 120.2,230.725 114.6,229.825 C103.1,227.825 92.3,226.025 91.5,216.825 C86.5,160.025 42.6,140.325 0.3,128.525 L0.2,129.325 C18.3,134.325 41.3,141.925 59.1,156.025 C78.2,171.125 88.6,191.025 90.8,217.025 C91.6,226.825 103.3,228.825 114.5,230.725 C120.1,231.725 125.9,232.625 130.2,234.625 C142.2,239.925 153.6,247.125 164.5,254.025 C176.2,261.325 188.2,268.925 201.1,274.325 C211.8,278.925 224.2,281.725 236.2,281.725 C251.7,281.725 266.7,277.025 277,265.325 Z M274.7,180.025 C284.9,177.625 292.6,171.825 300.7,165.725 C308.5,159.825 316.5,153.725 327.2,150.725 C335.6,148.325 346,148.825 357,149.425 C374.4,150.325 394.1,151.325 413.8,141.725 C430.2,133.725 440.1,118.825 449.7,104.425 C459.1,90.225 468.9,75.625 484.8,67.225 C495.1,61.825 506.2,54.925 516.9,48.225 C540.1,33.825 564.1,18.825 582,17.825 C607.7,16.325 614,21.125 614.1,21.225 L614.6,20.625 C614.3,20.425 608.2,15.525 582,17.125 C563.9,18.225 539.9,33.125 516.6,47.625 C505.9,54.325 494.8,61.225 484.6,66.525 C468.5,75.025 458.7,89.725 449.2,103.925 C439.7,118.225 429.8,133.025 413.6,140.925 C394.1,150.425 374.5,149.425 357.2,148.525 C346.2,147.925 335.8,147.425 327.2,149.825 C316.4,152.925 308.3,159.025 300.5,164.925 C292.4,171.025 284.8,176.825 274.8,179.125 C258.4,182.925 245,165.525 233.1,150.225 C230.6,146.925 228.2,143.825 225.8,141.025 C215.9,129.125 215.5,119.425 214.9,104.625 C214.7,99.025 214.4,92.625 213.5,85.225 C212,72.825 204.5,58.125 192.4,43.825 C181,30.425 166.1,18.225 151.6,10.425 C125.7,-3.475 98.3,-3.475 67.9,10.425 C41.6,22.425 1.5,32.125 1.1,32.225 L1.3,32.925 C1.7,32.825 41.8,23.125 67.8,11.225 C98.1,-2.575 125.2,-2.575 150.9,11.325 C186.2,30.325 209.9,64.025 212.5,85.525 C213.4,92.925 213.6,99.225 213.9,104.825 C214.5,119.225 214.9,129.525 225,141.625 C227.4,144.525 229.8,147.625 232.3,150.825 C243.2,164.825 255.3,180.525 270,180.525 C271.5,180.525 273.1,180.425 274.7,180.025 Z" id="Shape"></path>
                    </g>
                </g>
            </g>
        </g>
    </g>
</svg>