<?xml version="1.0" encoding="UTF-8"?>
<svg width="16px" height="13px" viewBox="0 0 16 13" version="1.1" xmlns="http://www.w3.org/2000/svg" xmlns:xlink="http://www.w3.org/1999/xlink">
    <title>WhiteArrow</title>
    <g id="Ok" stroke="none" stroke-width="1" fill="none" fill-rule="evenodd">
        <g id="Homepage" transform="translate(-467.000000, -608.000000)" fill="#FEFEFE">
            <g id="HeroSection" transform="translate(-394.000000, -331.000000)">
                <g id="HeroText" transform="translate(544.000000, 542.000000)">
                    <g id="Input" transform="translate(0.000000, 372.000000)">
                        <g id="Btn/BtnLarge/Black" transform="translate(297.000000, 4.000000)">
                            <path d="M35.7206087,26.6407481 L35.7099375,26.6148826 L30.8273813,21.4066057 C30.5809737,21.1448468 30.2550173,21 29.9077184,21 C29.5604196,21 29.233493,21.1448468 28.9870854,21.4076403 C28.4806888,21.9487465 28.4806888,22.8292081 28.9880555,23.3682451 L31.5607834,26.1130919 L21.3009155,26.1130919 C20.5840053,26.1130919 20,26.7348985 20,27.5005173 C20,27.8698766 20.1358152,28.217509 20.3812527,28.481337 C20.6266901,28.7430959 20.9536167,28.8869081 21.3009155,28.8869081 L31.5607834,28.8869081 L28.9890256,31.6317549 C28.7426181,31.8935137 28.6068029,32.2421807 28.6068029,32.6125746 C28.6068029,32.9819339 28.7426181,33.3306009 28.9880555,33.5933943 C29.233493,33.8551532 29.5604196,34 29.9077184,34 C30.2550173,34 30.5809737,33.8551532 30.8273813,33.5933943 L35.6915055,28.4047752 L35.7012066,28.3840828 C35.7846359,28.2785515 35.8515734,28.1595702 35.9010489,28.0312774 C36.0329837,27.6950259 36.0329837,27.308078 35.9010489,26.967688 C35.8486631,26.834222 35.7778451,26.7111023 35.7206087,26.6407481 Z" id="WhiteArrow"></path>
                        </g>
                    </g>
                </g>
            </g>
        </g>
    </g>
</svg>