<?xml version="1.0" standalone="no"?>
<!DOCTYPE svg PUBLIC "-//W3C//DTD SVG 20010904//EN"
 "http://www.w3.org/TR/2001/REC-SVG-20010904/DTD/svg10.dtd">
<svg version="1.0" xmlns="http://www.w3.org/2000/svg"
 width="260.000000pt" height="260.000000pt" viewBox="0 0 260.000000 260.000000"
 preserveAspectRatio="xMidYMid meet">
<metadata>
Created by potrace 1.11, written by Peter Selinger 2001-2013
</metadata>
<g transform="translate(0.000000,260.000000) scale(0.100000,-0.100000)"
fill="#000000" stroke="none">
<path d="M1158 2177 l-168 -82 0 -826 0 -825 30 -22 30 -23 0 406 c0 268 3
404 10 400 6 -4 10 -153 10 -414 l0 -408 23 -21 22 -21 82 67 c64 52 82 73 82
93 1 20 -6 30 -29 39 -37 15 -37 20 0 45 41 27 41 63 0 72 -34 6 -35 7 -44 44
-5 24 -2 29 35 43 36 15 40 19 37 48 -2 25 -9 33 -36 42 -30 11 -51 30 -52 49
0 4 20 17 45 29 l44 22 3 135 c3 132 4 136 26 139 19 3 22 10 22 45 1 40 12
55 245 331 l245 288 -242 194 c-134 106 -245 193 -248 193 -3 -1 -80 -38 -172
-82z m241 -211 l114 -115 -109 -165 -109 -166 -107 0 -108 0 0 233 0 232 93
47 c50 26 97 47 102 47 6 1 62 -50 124 -113z"/>
</g>
</svg>
